<svg xmlns="http://www.w3.org/2000/svg" width="472.699" height="80.79" viewBox="0 0 472.699 80.79">
  <g id="jashvare" transform="translate(-0.031 0.026)">
    <g id="Layer_2" data-name="Layer 2">
      <path id="Path_538" data-name="Path 538" d="M472.69,36.49c-1.15,1.28-2.53,1.81-4.08.86-3.05-1.88-5.58-.83-8.22,1A110.6,110.6,0,0,1,433.17,52.8c-12.32,4.29-24.72,5.43-37.19.56a53.47,53.47,0,0,1-16-10.12c-.64.8-1.15,1.53-1.76,2.18A60.781,60.781,0,0,1,373,50.85a9.36,9.36,0,0,1-9.65,1.91c-1.45-.54-2.22-.1-3.1,1a109.583,109.583,0,0,0-14.53,23.79c-.48,1-.59,2.43-1.56,3a1.2,1.2,0,0,1-1.37,0c-.9-.94-.22-2.75.26-3.87C346,69.81,349.13,63,352.29,56c-.92-.51-2.06-1.07-3.13-1.75-2.63-1.67-3.49-4.14-2.07-6.91,2.63-5.12,6.87-8.76,11.73-11.62,2.16-1.27,4.26-.23,4.49,2.36a56.3,56.3,0,0,1-.12,10.22c-.14,1.49.4,2.28,1.48,2.22A11.92,11.92,0,0,0,370,49.37c3.68-2.22,5.15-6.08,6.35-10,.38-1.25.83-2.48,1.38-4.09,1.06,1,1.75,1.54,2.39,2.16,8.45,8.18,18.12,14,30,15.42,9.54,1.14,18.55-.94,27.21-4.78a96.7,96.7,0,0,0,23.4-15.13,2.362,2.362,0,0,0,.36-.53c-3-3.08-7.16-2.7-9.2.92a27.727,27.727,0,0,0-1.69,4.46c-.5,1.43-1.31,2.65-3,2.13s-1.16-1.9-.85-3.13c2.51-9.77,8.91-12.2,17.32-6.63,2.9,1.92,5.95,3.61,8.93,5.41Zm-113,4.8c-.33-2.45-4.77,2.16-5.91,4.21-.74,1.34-.83,2.15.39,3.08,2.55,1.93,6.26-1.86,5.54-7.29Z" fill="#020202" fill-rule="evenodd"/>
      <path id="Path_539" data-name="Path 539" d="M4.25,23A26.22,26.22,0,0,1,23.94,12.23c6.42-.4,10.68,2.95,12,9.25a58.86,58.86,0,0,1,.83,8.42c.05.77.19,1.88-.46,2.36-.43.32-1.21-1.4-1.34-2.17a66.669,66.669,0,0,0-1.26-7.65c-1.64-5.55-5.94-8.07-11.63-7.17C13,16.71,3.67,25.71,2.72,34A18.42,18.42,0,0,0,17.87,54.3,21.82,21.82,0,0,0,26,54c5.3-1.24,7-5.94,4.3-10.67A21.86,21.86,0,0,0,29,41.46a3.76,3.76,0,0,1,2.35-6.15,2.53,2.53,0,0,1,2.2.94c1.81,3.9,2.65,8,1.46,12.25-1.51,5.34-6.54,8.7-13,9-10.72.54-19.86-6.77-21.76-18C-.25,37-.25,28.85,4.25,23Z" fill="#020202" fill-rule="evenodd"/>
      <path id="Path_540" data-name="Path 540" d="M426.72,1.07c4.2,1.69,6,5.29,3.88,9.19a42.18,42.18,0,0,1-7.3,9.24c-2.68,2.66-5.95,4.72-9.13,7.17a6.869,6.869,0,0,1,1.16,1.59c.27.75.88,1.76.38,2.39s-2,.57-2.71.2a10.19,10.19,0,0,1-3-2.74,2.75,2.75,0,0,0-3.73-1,17,17,0,0,1-10.32,1.06c-.85-.2-2.1-.48-2.37-1.36-.06-.2.18-.39.27-.58l12.46-1.11c-.66-2.33-1.24-4.05-1.64-5.81-2.19-9.44,2.79-17,12.39-19a18.06,18.06,0,0,1,9.66.76Zm-16.8,20.84c.4,1.5,1.36,1.92,2.76.95s2.81-1.83,4.17-2.81c3.59-2.61,7.18-5.25,9.38-9.24s.27-7.18-4.24-7.4C414.9,3.08,407,11.54,409.92,21.91Z" fill="#020202" fill-rule="evenodd"/>
      <path id="Path_541" data-name="Path 541" d="M89,45.86c-1.28.16-1.57-1.75-2.33-2.47-2.22-2.14-4.19-2-5.42.84a12.52,12.52,0,0,0-.92,6c.63,6.24,6.07,15,12.23,15.9,10,1.5,18.52-6.69,19-20.79-.69-18.55-5.3-27.23-9.1-32-.51-.64-1.56-1.19-1.46-2.08.22-1.85,2.83-1.13,3.87-.22a16.59,16.59,0,0,1,4,4.58c3.16,6.19,4.52,12.93,5.56,19.76a10.47,10.47,0,0,0,1.46,4.2c2,3,5.2,4.55,8.2,2.51,2.8-1.17,5.22-6.83,7.12-5.78a3,3,0,0,1,1.08,2.92A14.66,14.66,0,0,1,121.92,49.6c-2.59.75-5,0-7-2.39-7.42,51.3-50.48,8.55-35.89-6.69,2.74-2.86,4.53-2.88,7.57-1.5C90.43,40.72,93.05,45.34,89,45.86Z" fill="#020202" fill-rule="evenodd"/>
      <path id="Path_542" data-name="Path 542" d="M160,48.63c-1-.53-2.13-1.09-3.2-1.79-2.52-1.63-3.37-4-2-6.72,2.62-5.21,6.91-8.9,11.86-11.77A2.75,2.75,0,0,1,171,30.6c.32,3.38,0,6.82,0,10.22a1,1,0,0,0,.78,1.09,3.72,3.72,0,0,0,2.73-.67c.59-.6.58-.82.82-1.76.47-1.83.65-3.8,1.48-5.45,1.61-3.24,4.73-4.62,8.08-3.39a21.66,21.66,0,0,1,6.19,3.73c1.91,1.59,1.68,4,.55,5.9-2.31,4-5.33,7.22-10.51,6.7a79.167,79.167,0,0,1-10.08-1.58,2.62,2.62,0,0,0-3.11,1,109.129,109.129,0,0,0-14.63,24,6.232,6.232,0,0,1-.28.62c-.46.61-1.43,2.34-2.36,1.93s-.5-2.22-.13-3.07C153.6,62.85,156.75,55.91,160,48.63Zm23-14c-2.18,0-3.14.84-3.18,2.73s1.37,3.17,3.65,3.18,3.23-.92,3.19-2.71c-.01-2.02-1.35-3.2-3.66-3.18ZM167.44,34c-1.4-2-4.52,2.41-5.9,4.18-.93,1.19-.94,2.26.36,3.08s2.54.86,3.39-.48C166.25,39.21,168.42,35.36,167.44,34Z" fill="#020202" fill-rule="evenodd"/>
      <path id="Path_543" data-name="Path 543" d="M253,45.21c-.51.28-1,.57-1.54.83-1,.53-2.16,1.32-3-.09s.36-2,1.38-2.61c1.31-.79,2.62-1.57,3.85-2.47a12.54,12.54,0,0,0,5.25-8,2.56,2.56,0,0,1,.41-1.29c.65-.64,1.28-1.83,2.18-1.68s1.72,1.74,1.61,2.45c-1.2,7.67-3.37,14.88-11.21,18.5s-15.73,3.9-23.95,1.85c-14.24-3.55-15.54-19.47-9.58-27.28,5.06-6.64,11.36-11.48,20.19-11.19a20.18,20.18,0,0,1,8,2.33c3.22,1.62,3.72,4.56,1.71,7.55a14,14,0,0,1-2.92,3.18c-1.06.82-3.92,1.77-3.66-.32.17-1.41,2.19-1.7,3.14-2.65,2.06-2,2-3.75-.3-5.58a10.64,10.64,0,0,0-8.88-2c-8,1.39-16,9.4-16.63,17.5-.78,10.47,3.21,14.78,13.78,16.49a28.26,28.26,0,0,0,15.75-1.78A39.52,39.52,0,0,0,253.52,46Z" fill="#020202" fill-rule="evenodd"/>
      <path id="Path_544" data-name="Path 544" d="M284.58,38.6c.07,4.7-1.46,8.53-5.36,11.52a78.219,78.219,0,0,1-18.64,10.61c-.21.08-3.61.61-3.91-.46s1.35-1.5,2.17-2c2.58-1.61,5.34-2.95,7.83-4.68,3.08-2.14,3.09-3.38,1-6.45a19.419,19.419,0,0,1-2.67-4.8c-2.23-6.59,1.82-12,9.37-12.65.91-.08,1.83-.07,2.75-.08,4.25,0,6.67,2,7.27,6.25A22.647,22.647,0,0,1,284.58,38.6ZM273,43.05c2,.05,5.1-2.42,5.14-4.14a4.18,4.18,0,0,0-3.76-3.64c-2.11,0-4.78,2.31-4.8,4.14A3.92,3.92,0,0,0,273,43.05Z" fill="#020202" fill-rule="evenodd"/>
      <path id="Path_545" data-name="Path 545" d="M306,38.8c-3-2.6-5.71-5-8.41-7.42-1.13-1-2.88-2-1.46-3.92.95-1.29,3.16-.9,4.79.83,2.5,2.66,5.31,5.87,7.8,8.6,4.64-2,9-4.54,13.78-6.51a56.671,56.671,0,0,1,5.44-1.78c1-.3,2.47-1,2.79.63.11.59-1.1,1.8-2,2.17-4.95,2.16-13.87,5.43-17.17,7.51L313.11,41c3.58,4.86,2.62,10.42-2.49,13.63A23.82,23.82,0,0,1,295,57.82c-4.26-.47-5.62-3.55-2.77-6.76A83.26,83.26,0,0,1,303,41,34.057,34.057,0,0,1,306,38.8Zm-9.36,16.37a20.25,20.25,0,0,0,12.81-3.64c3.44-2.45,1.27-8.44-1.59-10.08-6.07,4-10.71,8-12.55,10.31-1.2,1.53-1.31,3.05,1.32,3.41Z" fill="#020202" fill-rule="evenodd"/>
      <path id="Path_546" data-name="Path 546" d="M27.82,68.12c-.11-1.1,1.15-1.89,1.84-2.75,6.53-8.16,13.63-15.89,18.72-25.1,1.81-3.27,3.34-6.68,5-10A18.05,18.05,0,0,1,54.53,28c1.15-1.67,2.55-1.75,3.24.14a45.37,45.37,0,0,1,2.62,10.05c.37,3.22-.11,6.54-.35,9.81a4.11,4.11,0,0,1-1,2.5c-.81.79-2,1.75-3,1.63s-1.92-1.35-2.47-2.32A10.23,10.23,0,0,1,53,46.72c-.32-1.65-1.25-2-2.55-.91a19.089,19.089,0,0,0-1.53,1.7C43,54,37,60.59,31,67.08c-.66.72-1.48,1.8-2.48,1.7A.83.83,0,0,1,27.82,68.12Z" fill="#020202" fill-rule="evenodd"/>
      <path id="Path_547" data-name="Path 547" d="M340.64,22.26a14.27,14.27,0,0,1,3-6c1.52-2,3.68-1.56,4.26.88a16.53,16.53,0,0,1,.26,6.75C345.9,35.8,343.41,47.67,341,59.55c-.08.38-1.06,3.11-1.89,3s-.93-1.42-.94-2.13c-.08-4.59,0-9.18,0-13.77C338,46.58,339.42,30.32,340.64,22.26Z" fill="#020202" fill-rule="evenodd"/>
      <path id="Path_548" data-name="Path 548" d="M151.08,36.37c1.29.41.43,2.91-.08,4a36.169,36.169,0,0,1-4.55,7.81c-3,3.64-7.18,3.32-9.67-.74a15.59,15.59,0,0,1-2.11-6.85c-.31-5.16-.18-10.35,0-15.52a5.44,5.44,0,0,1,1.45-3.1,2.44,2.44,0,0,1,2.29-.23,3,3,0,0,1,1,2,8,8,0,0,1-.17,3c-1.91,17.41,2.71,17.43,5,15.93C146.71,41,150.45,36.17,151.08,36.37Z" fill="#020202" fill-rule="evenodd"/>
      <path id="Path_549" data-name="Path 549" d="M192.53,59.13c.78-1.46,6.93-8.71,10.52-13.22-.82-.47-1.25-.74-1.71-1a4.18,4.18,0,0,1-2.44-4.9,18.18,18.18,0,0,1,5.26-9.45c1.3-1.36,3.18-2.26,4.73-1.16a5.46,5.46,0,0,1,1.84,4.05c-.22,6.74-3.28,12.48-7.2,17.74a51.711,51.711,0,0,1-6.39,6.85c-1,1-2.49,2.33-3.91,2C192.85,60,192.35,59.47,192.53,59.13Zm15.08-25.59a1,1,0,0,0-1.32-.55c-2.35,1.26-3.42,5.59-3.69,7.06a2.23,2.23,0,0,0,.74,1.77,1.71,1.71,0,0,0,1.73-.67C206,40,208.06,36.19,207.61,33.54Z" fill="#020202" fill-rule="evenodd"/>
      <path id="Path_550" data-name="Path 550" d="M311,78.65c.16-1,1.29-1.62,2-2.32,5.72-5.39,9.57-11.77,10.75-19.67a2.75,2.75,0,0,0-1.35-3.23c-1.11-.68-1.33-1.66,0-2.24,1.82-.81,3.82-8.11,4.61-8.11s1.93,1.56,2.87,2.38a11.079,11.079,0,0,1,.89,1c1.95,2.23,1.86,2.2-.31,4a5,5,0,0,0-1.4,2.9c-.92,5.69-2.14,11.4-5.73,16-2.84,3.6-6.54,6.53-9.95,9.66a2.06,2.06,0,0,1-2.07.29.73.73,0,0,1-.31-.66Z" fill="#020202" fill-rule="evenodd"/>
      <path id="Path_551" data-name="Path 551" d="M64.34,46.52a135.309,135.309,0,0,1,3.74-29.24,9.71,9.71,0,0,1,1.79-3.61,2.68,2.68,0,0,1,2.39-.57c.56.18,1.07,1.21,1.2,1.94a4.72,4.72,0,0,1-.34,2.45c-3.47,8.62-4.58,17.69-5.24,26.85q-.21,2.86-.52,5.71a3.38,3.38,0,0,1-.53,1.71c-.38.48-1,1.2-1.6,1.05s-.81-1-.85-1.49C64.27,49.73,64.34,48.12,64.34,46.52Z" fill="#020202" fill-rule="evenodd"/>
      <path id="Path_552" data-name="Path 552" d="M41.21,48c-.91-.65-1-2.11-1.06-3.19q-.78-12.64-1.35-25.33c-.07-1.63-.24-3.9,1.88-4.08,2.35-.2,2.46,2.09,2.47,3.84.05,8.68.07,17.36,0,26a3.4,3.4,0,0,1-1,2.72.84.84,0,0,1-.94.04Z" fill="#020202" fill-rule="evenodd"/>
      <path id="Path_553" data-name="Path 553" d="M135.18,60c-4.5.55-9,1.08-13.51,1.68-1.35.18-2.65.68-4,.83-.64.07-1.76.11-2-.54s.75-1.86,1.26-1.94a108.4,108.4,0,0,1,11.49-1.35c2.27-.11,4.57.5,6.86.78Z" fill="#020202" fill-rule="evenodd"/>
      <path id="Path_554" data-name="Path 554" d="M62.14,59c-5,.87-10.81,2.74-14.47,2.45-.39,0-1.27,0-1.47-.52s.47-1.25.8-1.54a7.74,7.74,0,0,1,3.5-1C54.33,58,58.17,57.63,62.14,59Z" fill="#020202" fill-rule="evenodd"/>
      <path id="Path_555" data-name="Path 555" d="M375.69,23.55a3,3,0,0,1,2.79,3.29,2.93,2.93,0,1,1-5.81-.24,2.94,2.94,0,0,1,3.02-3.05Z" fill="#020202" fill-rule="evenodd"/>
      <path id="Path_556" data-name="Path 556" d="M15.62,33.78c.53-.5,1.51-2.17,2.82-2.51,2-.51,4.85,3.14,4.43,5.9a5.14,5.14,0,0,1-2.66,3.58C18.2,41.44,15.69,38,15.62,33.78Z" fill="#020202" fill-rule="evenodd"/>
      <path id="Path_557" data-name="Path 557" d="M140,57.42c.33-.32,1-1.46,1.89-1.71,1.53-.42,3.67,2.3,3.31,4.35a3.59,3.59,0,0,1-2,2.46C141.72,62.93,140,60.45,140,57.42Z" fill="#020202" fill-rule="evenodd"/>
      <path id="Path_558" data-name="Path 558" d="M242.61,64.15c-.44.42-1.15,1.63-2.12,1.89-1.43.39-3.11-2-3.19-4-.05-1.4.23-2.66,1.88-2.86S242.52,61.28,242.61,64.15Z" fill="#020202" fill-rule="evenodd"/>
      <path id="Path_559" data-name="Path 559" d="M465.73,53.51a2.47,2.47,0,0,1-2.67-2.72,2.42,2.42,0,0,1,2.6-2.77,2.36,2.36,0,0,1,2.53,2.59,2.48,2.48,0,0,1-2.46,2.9Z" fill="#020202" fill-rule="evenodd"/>
      <path id="Path_560" data-name="Path 560" d="M359.52,68.55v6.79h-.89V68.55Z" fill="#020202"/>
      <path id="Path_561" data-name="Path 561" d="M360.91,72V70.49h.77v1h0a1.49,1.49,0,0,1,1.36-1.06.86.86,0,0,1,.24,0v.83a1.17,1.17,0,0,0-.29,0,1.24,1.24,0,0,0-1.19,1.14,1.753,1.753,0,0,0,0,.4v2.61h-.87Z" fill="#020202"/>
      <path id="Path_562" data-name="Path 562" d="M367.36,74.17a8.268,8.268,0,0,0,.07,1.17h-.79l-.08-.61h0a1.87,1.87,0,0,1-1.49.72,1.4,1.4,0,0,1-1.49-1.4c0-1.18,1-1.82,2.93-1.8v-.11A1,1,0,0,0,365.38,71a2.39,2.39,0,0,0-1.27.36l-.2-.58a3,3,0,0,1,1.6-.42c1.49,0,1.85,1,1.85,2Zm-.86-1.31c-1,0-2.06.14-2.06,1.09a.79.79,0,0,0,.84.85,1.23,1.23,0,0,0,1.18-.82,1,1,0,0,0,0-.28Z" fill="#020202"/>
      <path id="Path_563" data-name="Path 563" d="M368.58,71.78v-1.3h.79v.79h0a1.8,1.8,0,0,1,1.61-.9c.66,0,1.71.4,1.71,2.06v2.91h-.88v-2.8c0-.8-.29-1.45-1.12-1.45a1.34,1.34,0,0,0-1.26,1.32v2.93h-.88Z" fill="#020202"/>
      <path id="Path_564" data-name="Path 564" d="M376.66,75.34l-1.72-6.79h.93l.81,3.44c.2.84.38,1.69.5,2.34h0a21,21,0,0,1,.56-2.35l.9-3.43h.92L380.4,72a23.466,23.466,0,0,1,.48,2.32h0c.14-.74.33-1.51.53-2.34l.9-3.43h.9l-1.92,6.79h-.93l-.84-3.54c-.21-.86-.35-1.53-.45-2.21h0c-.13.67-.29,1.34-.53,2.21l-1,3.54Z" fill="#020202"/>
      <path id="Path_565" data-name="Path 565" d="M384,73.06a1.56,1.56,0,0,0,1.67,1.7A3,3,0,0,0,387,74.5l.15.64a3.87,3.87,0,0,1-1.62.31A2.27,2.27,0,0,1,383.16,73a2.35,2.35,0,0,1,2.29-2.62,2.05,2.05,0,0,1,2,2.28,1.811,1.811,0,0,1,0,.41Zm2.6-.63A1.26,1.26,0,0,0,385.37,71,1.46,1.46,0,0,0,384,72.43Z" fill="#020202"/>
      <path id="Path_566" data-name="Path 566" d="M388.34,68.19h.88v3.06h0a1.81,1.81,0,0,1,1.66-.88A2.19,2.19,0,0,1,393,72.84a2.33,2.33,0,0,1-2.19,2.61,1.76,1.76,0,0,1-1.64-.91h0v.8h-.77V74.09Zm.88,5.2a1.12,1.12,0,0,0,0,.32,1.36,1.36,0,0,0,1.33,1c.94,0,1.48-.75,1.48-1.87s-.5-1.81-1.46-1.81a1.41,1.41,0,0,0-1.34,1.09,1.84,1.84,0,0,0,0,.36Z" fill="#020202"/>
      <path id="Path_567" data-name="Path 567" d="M396.94,73.2l-.7,2.14h-.91l2.31-6.79h1.05L401,75.34h-.93l-.73-2.14Zm2.22-.68-.66-2c-.16-.45-.26-.85-.36-1.24h0q-.14.6-.33,1.23l-.66,2Z" fill="#020202"/>
      <path id="Path_568" data-name="Path 568" d="M401.73,71.78v-1.3h.79v.79h0a1.83,1.83,0,0,1,1.62-.9c.66,0,1.71.4,1.71,2.06v2.91H405v-2.8c0-.8-.29-1.45-1.12-1.45a1.34,1.34,0,0,0-1.26,1.32v2.93h-.88Z" fill="#020202"/>
      <path id="Path_569" data-name="Path 569" d="M411.31,68.19v7.15h-.79v-.85h0a1.74,1.74,0,0,1-1.64,1A2.22,2.22,0,0,1,406.76,73a2.31,2.31,0,0,1,2.18-2.61,1.62,1.62,0,0,1,1.47.73h0V68.19Zm-.88,4.26a2.311,2.311,0,0,0,0-.37,1.31,1.31,0,0,0-1.29-1c-.91,0-1.47.8-1.47,1.87s.5,1.81,1.45,1.81a1.34,1.34,0,0,0,1.3-1.06,1.559,1.559,0,0,0,0-.39Z" fill="#020202"/>
      <path id="Path_570" data-name="Path 570" d="M420.27,72.36c-.06-.94-.12-2.09-.11-2.92h0c-.23.79-.53,1.7-.87,2.61l-1.17,3.25h-.7l-1.07-3.23a23.826,23.826,0,0,1-.78-2.63h0c0,.83-.06,2-.13,3l-.18,2.91h-.84l.48-6.79H416l1.16,3.3c.28.81.5,1.62.67,2.32h0c.18-.68.42-1.48.73-2.34l1.21-3.28h1.11l.43,6.79h-.87Z" fill="#020202"/>
      <path id="Path_571" data-name="Path 571" d="M426.86,72.9a2.39,2.39,0,0,1-2.45,2.55,2.32,2.32,0,0,1-2.31-2.53,2.37,2.37,0,0,1,2.42-2.55,2.31,2.31,0,0,1,2.34,2.53Zm-3.87,0c0,1,.5,1.87,1.48,1.87A1.653,1.653,0,0,0,426,72.91c0-.84-.39-1.89-1.49-1.89S423,72.06,423,72.92Z" fill="#020202"/>
      <path id="Path_572" data-name="Path 572" d="M427.77,68.19h.87v3.06h0a1.83,1.83,0,0,1,1.67-.88,2.19,2.19,0,0,1,2.06,2.47,2.33,2.33,0,0,1-2.2,2.61,1.77,1.77,0,0,1-1.64-.91h0v.8h-.76V68.19Zm.87,5.2a1.12,1.12,0,0,0,0,.32,1.38,1.38,0,0,0,1.33,1c.94,0,1.48-.75,1.48-1.87s-.5-1.81-1.46-1.81a1.42,1.42,0,0,0-1.34,1.09,1.837,1.837,0,0,0-.05.36Z" fill="#020202"/>
      <path id="Path_573" data-name="Path 573" d="M434.29,69.1a.53.53,0,0,1-.56.54.51.51,0,0,1-.53-.54.545.545,0,1,1,1.09,0Zm-1,6.24V70.48h.87v4.86Z" fill="#020202"/>
      <path id="Path_574" data-name="Path 574" d="M435.44,68.19h.88v7.15h-.88Z" fill="#020202"/>
      <path id="Path_575" data-name="Path 575" d="M438.09,73.06a1.56,1.56,0,0,0,1.67,1.7,3,3,0,0,0,1.35-.26l.15.64a3.87,3.87,0,0,1-1.62.31A2.27,2.27,0,0,1,437.25,73a2.35,2.35,0,0,1,2.29-2.62,2.05,2.05,0,0,1,2,2.28,1.93,1.93,0,0,1,0,.41Zm2.6-.63A1.26,1.26,0,0,0,439.46,71a1.46,1.46,0,0,0-1.36,1.43Z" fill="#020202"/>
      <path id="Path_576" data-name="Path 576" d="M444.39,68.55H448v.73h-2.77v2.26h2.57v.73h-2.57v3.07h-.88Z" fill="#020202"/>
      <path id="Path_577" data-name="Path 577" d="M449.23,73.06a1.56,1.56,0,0,0,1.67,1.7,3,3,0,0,0,1.35-.26l.15.64a3.87,3.87,0,0,1-1.62.31A2.27,2.27,0,0,1,448.39,73a2.35,2.35,0,0,1,2.29-2.62,2.05,2.05,0,0,1,2,2.28,3,3,0,0,1,0,.41Zm2.6-.63A1.26,1.26,0,0,0,450.6,71a1.46,1.46,0,0,0-1.36,1.43Z" fill="#020202"/>
      <path id="Path_578" data-name="Path 578" d="M453.45,74.43a2.35,2.35,0,0,0,1.17.36c.65,0,.95-.33.95-.73s-.25-.64-.91-.89c-.87-.32-1.29-.8-1.29-1.39a1.5,1.5,0,0,1,1.68-1.41,2.43,2.43,0,0,1,1.2.29l-.22.64a2,2,0,0,0-1-.29.71.71,0,0,0-.8.67c0,.41.28.59.92.84.84.31,1.28.73,1.28,1.46a1.63,1.63,0,0,1-1.82,1.47,2.83,2.83,0,0,1-1.37-.34Z" fill="#020202"/>
      <path id="Path_579" data-name="Path 579" d="M458.42,69.07v1.41h1.27v.66h-1.27v2.63c0,.6.17.94.66.94a2.11,2.11,0,0,0,.52-.06v.67a2,2,0,0,1-.8.13,1.31,1.31,0,0,1-1-.37,2,2,0,0,1-.33-1.28V71.14h-.75v-.66h.75V69.3Z" fill="#020202"/>
      <path id="Path_580" data-name="Path 580" d="M461.47,69.1a.53.53,0,0,1-.56.54.51.51,0,0,1-.54-.54.55.55,0,1,1,1.1,0Zm-1,6.24V70.48h.88v4.86Z" fill="#020202"/>
      <path id="Path_581" data-name="Path 581" d="M463,70.48l1,2.72a12.747,12.747,0,0,1,.39,1.26h0c.11-.4.25-.81.4-1.26l1-2.72h.93l-1.92,4.86h-.84L462,70.48Z" fill="#020202"/>
      <path id="Path_582" data-name="Path 582" d="M470.64,74.17a8.272,8.272,0,0,0,.07,1.17h-.8l-.08-.61h0a1.84,1.84,0,0,1-1.49.72,1.4,1.4,0,0,1-1.49-1.4c0-1.18,1.05-1.82,2.93-1.8v-.11A1,1,0,0,0,468.65,71a2.45,2.45,0,0,0-1.27.36l-.2-.58a3.09,3.09,0,0,1,1.6-.42c1.49,0,1.86,1,1.86,2Zm-.86-1.31c-1,0-2.06.14-2.06,1.09a.79.79,0,0,0,.83.85,1.23,1.23,0,0,0,1.19-.82,1.45,1.45,0,0,0,0-.28Z" fill="#020202"/>
      <path id="Path_583" data-name="Path 583" d="M471.86,68.19h.87v7.15h-.87Z" fill="#020202"/>
    </g>
  </g>
</svg>
