<svg xmlns="http://www.w3.org/2000/svg" width="167.763" height="199.568" viewBox="0 0 167.763 199.568">
  <g id="customer_service" transform="translate(-98.122 -28.775)">
    <path id="Path_586" data-name="Path 586" d="M167.667,130.241s-27.493-10.75-36.81-3.358-37.271,87.3-32.1,100.685,43.708,6.643,43.708,6.643,108.225,6.437,119.222,2.3c16.356-6.157-19.961-102.587-25.377-107.707s-30.456,3.712-30.456,3.712" transform="translate(0 -16.893)" fill="#ff3d00"/>
    <path id="Path_587" data-name="Path 587" d="M148.553,229.35a.4.4,0,0,1-.23-.074c-12.89-8.8-29.435-6.544-29.633-6.519a.412.412,0,0,1-.115-.815c.173,0,17.022-2.329,30.176,6.651a.412.412,0,0,1,.107.576.4.4,0,0,1-.3.181Z" transform="translate(-3.556 -34.117)" fill="#231f20"/>
    <path id="Path_588" data-name="Path 588" d="M251.908,229.347a.412.412,0,0,1-.239-.757c13.17-8.98,30.011-6.676,30.184-6.651a.412.412,0,0,1,.346.461.42.42,0,0,1-.469.354c-.165,0-16.71-2.28-29.592,6.519a.42.42,0,0,1-.23.074Z" transform="translate(-27.124 -34.115)" fill="#231f20"/>
    <path id="Path_589" data-name="Path 589" d="M144.837,205.856h0a.412.412,0,0,1-.387-.436l2.889-48.993a.412.412,0,0,1,.436-.387.4.4,0,0,1,.387.436l-2.889,48.993A.42.42,0,0,1,144.837,205.856Z" transform="translate(-8.194 -22.509)" fill="#231f20"/>
    <path id="Path_590" data-name="Path 590" d="M251.912,206.3a.412.412,0,0,1-.412-.412V158.972a.412.412,0,1,1,.823,0V205.89A.412.412,0,0,1,251.912,206.3Z" transform="translate(-27.128 -22.955)" fill="#231f20"/>
    <path id="Path_591" data-name="Path 591" d="M171.05,127.75s9.433,49.314,27.163,72.691c0,0,24.019-43.033,28.694-69.843,0,0-18.224,3.5-24.966,3.564S171.05,127.75,171.05,127.75Z" transform="translate(-12.899 -17.505)" fill="#231f20"/>
    <path id="Path_592" data-name="Path 592" d="M198.079,200.764a.4.4,0,0,1-.329-.165c-17.566-23.188-27.122-72.362-27.221-72.855a.42.42,0,0,1,.123-.379.4.4,0,0,1,.387-.1c.239.066,23.871,6.4,30.653,6.4h.107c6.634-.066,24.694-3.515,24.9-3.556a.4.4,0,0,1,.362.115.4.4,0,0,1,.115.362c-4.634,26.571-28.505,69.538-28.744,69.966a.4.4,0,0,1-.329.214ZM171.492,128.23c1.177,5.836,10.437,49.594,26.554,71.366,2.79-5.087,23.69-43.749,28.242-68.567-3.227.609-18.348,3.391-24.455,3.457h-.107C195.4,134.453,175.418,129.267,171.492,128.23Z" transform="translate(-12.805 -17.418)" fill="#231f20"/>
    <path id="Path_593" data-name="Path 593" d="M195.917,148.566l3.811,6.61-9.6,28.415,11.442,19.426,10.437-20.331L204.452,155.3l3.976-6.733-6.305-6.256Z" transform="translate(-16.273 -20.081)" fill="#d1d3d4"/>
    <path id="Path_594" data-name="Path 594" d="M201.457,203.34a.412.412,0,0,1-.362-.206l-11.433-19.426a.379.379,0,0,1,0-.337l9.532-28.233-3.721-6.445a.412.412,0,0,1,.066-.494l6.2-6.256a.313.313,0,0,1,.3-.123.387.387,0,0,1,.288.123l6.305,6.256a.4.4,0,0,1,.066.5l-3.885,6.585,7.515,27.221a.461.461,0,0,1,0,.3l-10.446,20.331a.42.42,0,0,1-.354.222Zm-10.964-19.887,10.964,18.6,10.026-19.516L203.967,155.3a.4.4,0,0,1,0-.321l3.811-6.453-5.762-5.762-5.688,5.762,3.655,6.338a.436.436,0,0,1,0,.337Z" transform="translate(-16.183 -19.993)" fill="#231f20"/>
    <path id="Path_595" data-name="Path 595" d="M180.412,125.57l36.152.115-.634,13.8H190.4L178,133.554Z" transform="translate(-14.128 -17.12)" fill="#231f20"/>
    <path id="Path_596" data-name="Path 596" d="M215.845,139.841H190.328a.444.444,0,0,1-.173,0l-12.4-5.935a.42.42,0,0,1-.214-.494l2.412-7.976a.4.4,0,0,1,.4-.3h0l36.16.115a.428.428,0,0,1,.3.132.4.4,0,0,1,.107.3l-.634,13.8a.412.412,0,0,1-.428.354Zm-25.435-.823h25.04l.6-12.981-35.395-.115-2.247,7.334Z" transform="translate(-14.043 -17.044)" fill="#231f20"/>
    <path id="Path_597" data-name="Path 597" d="M224.426,73.506c1.934-4.272,2.469-10.009,3.2-14.586.329-2.066,1.391-4.782,1.1-6.865-.206-1.457-1.2-2.634-1.292-4.28-.074-1.465-.066-3.029-.881-4.247s-2.832-1.737-3.712-.568A44.649,44.649,0,0,0,224.9,31.674a19.2,19.2,0,0,1-9.96,1.646,14.577,14.577,0,0,0,3.441-4c-2.98,2.272-7.153,1.515-10.874,1.037-8.486-1.087-17.45,0-24.859,4.3-2.379,1.383-4.774,3.408-5.046,6.157a5.433,5.433,0,0,0-5.161,1.794,11.1,11.1,0,0,0-2.412,5.145c-2.469,10.882,1.646,20.233,2.7,30.966,8.034.494,16.142,1.177,24.249,1.054C203.428,79.646,220.985,81.062,224.426,73.506Z" transform="translate(-12.581 -0.096)" fill="#fff"/>
    <path id="Path_598" data-name="Path 598" d="M203.534,80.11h-6.6c-6.585.107-13.244-.337-19.681-.757l-4.6-.3a.412.412,0,0,1-.387-.37c-.346-3.465-1.021-6.824-1.646-10.075-1.408-6.988-2.733-13.59-1.021-21.023a11.252,11.252,0,0,1,2.469-5.326,6,6,0,0,1,5.128-2.066c.4-2.231,2.148-4.256,5.186-6.017,6.881-4,15.8-5.548,25.122-4.363l.823.107c3.507.461,7.137.947,9.762-1.054a.4.4,0,0,1,.519,0,.412.412,0,0,1,.082.519,15.014,15.014,0,0,1-2.807,3.465,18.726,18.726,0,0,0,8.775-1.646.412.412,0,0,1,.584.4,45.017,45.017,0,0,1-1.745,10.289,2.692,2.692,0,0,1,.774-.091,3.293,3.293,0,0,1,2.56,1.4,7.729,7.729,0,0,1,.93,4.05v.4a6.741,6.741,0,0,0,.65,2.272,7.919,7.919,0,0,1,.634,1.976,13.631,13.631,0,0,1-.626,4.865c-.189.757-.37,1.473-.477,2.124-.132.823-.263,1.737-.4,2.642-.576,3.992-1.235,8.519-2.84,12.042C222.038,79.451,211.518,80.11,203.534,80.11Zm-5.836-.881h2.362c7.359.1,21.064.28,23.928-6.05h0c1.556-3.424,2.206-7.886,2.774-11.82.132-.914.263-1.8.4-2.659.107-.683.288-1.416.477-2.19a12.948,12.948,0,0,0,.584-4.5,7.054,7.054,0,0,0-.576-1.77,7.409,7.409,0,0,1-.716-2.552v-.4a7.062,7.062,0,0,0-.823-3.63,2.469,2.469,0,0,0-1.893-1.037,1.325,1.325,0,0,0-1.144.486.412.412,0,0,1-.519.123.428.428,0,0,1-.206-.494,44.021,44.021,0,0,0,2-10.511,19.549,19.549,0,0,1-9.557,1.408.4.4,0,0,1-.346-.3.4.4,0,0,1,.132-.436,13.993,13.993,0,0,0,2.387-2.469c-2.675,1.128-5.9.7-8.8.313l-.823-.1c-9.137-1.169-17.87.337-24.6,4.247-3,1.745-4.634,3.712-4.848,5.844a.4.4,0,0,1-.173.3.412.412,0,0,1-.337.058,5.029,5.029,0,0,0-4.766,1.646,10.585,10.585,0,0,0-2.313,4.939c-1.646,7.268-.362,13.779,1.029,20.677.634,3.161,1.284,6.429,1.646,9.812l4.256.272c6.429.42,13.071.823,19.615.757Z" transform="translate(-12.498)" fill="#231f20"/>
    <path id="Path_599" data-name="Path 599" d="M182.61,130.459s6.692,3.424,18.183,3.819,13.417-2.725,13.417-2.725l-.28-6.149-.626-14.29-.626-13.31L186.454,96.9,185.2,107.683l-.387,3.523Z" transform="translate(-14.943 -12.049)" fill="#fff"/>
    <path id="Path_600" data-name="Path 600" d="M202.656,134.632h-1.967c-11.45-.4-18.282-3.828-18.348-3.861a.4.4,0,0,1-.222-.412l3.836-33.608a.4.4,0,0,1,.428-.362l26.225.905a.412.412,0,0,1,.4.4l1.515,33.748a.4.4,0,0,1-.066.239C214.378,131.817,212.476,134.632,202.656,134.632Zm-19.689-4.5c1.325.6,7.729,3.293,17.755,3.646,9.878.337,12.52-1.959,12.964-2.469L212.2,98.052l-25.476-.889Z" transform="translate(-14.856 -11.959)" fill="#231f20"/>
    <path id="Path_601" data-name="Path 601" d="M185.29,113.563c1.868,3.293,5.062,5.869,8.355,7.853,5.531,3.293,13.862,7.128,20.743,6.322l-.626-14.29a64.278,64.278,0,0,1-15.129-.428c-4.412-.535-8.956-1.136-12.956-2.98Z" transform="translate(-15.417 -14.373)" fill="#231f20"/>
    <path id="Path_602" data-name="Path 602" d="M212.34,128.17c-7.062,0-14.816-3.967-19-6.486a23.486,23.486,0,0,1-8.5-8,.428.428,0,0,1-.049-.247l.387-3.523a.42.42,0,0,1,.206-.313.412.412,0,0,1,.379,0c4.058,1.869,8.717,2.469,12.833,2.947a63.62,63.62,0,0,0,15.03.42.42.42,0,0,1,.461.387l.626,14.3a.4.4,0,0,1-.362.42,16.153,16.153,0,0,1-2.008.1Zm-26.719-14.816a22.976,22.976,0,0,0,8.149,7.589c4.428,2.659,12.874,6.964,20.1,6.305l-.593-13.466a65.5,65.5,0,0,1-14.816-.469c-3.992-.494-8.5-1.045-12.553-2.782Z" transform="translate(-15.328 -14.287)" fill="#231f20"/>
    <path id="Path_603" data-name="Path 603" d="M219.48,61.119c1.3.132.955,3.778.963,5.7v9.729c0,3.811.132,7.647,0,11.45a20.35,20.35,0,0,1-.551,4.042,20.117,20.117,0,0,1-20.241,15.36l-2.346-.091a20.109,20.109,0,0,1-19.377-20.792c.074-2.214,0-4.453,0-6.676,0-2.823-1.49-9.713,1.844-10.989a14.059,14.059,0,0,1,3.383-.5,12.149,12.149,0,0,0,8.281-4.733l-.535,3.1A37.979,37.979,0,0,0,207.767,64.4c2.634-1,5.359-2.469,6.437-5.1l-.1,5.762c1.366-.2,2.313-1.408,3.235-2.469S219.011,61.07,219.48,61.119Z" transform="translate(-14.057 -5.399)" fill="#fff"/>
    <path id="Path_604" data-name="Path 604" d="M200.288,107.721h-.708l-2.346-.091a20.5,20.5,0,0,1-19.8-21.212c.049-1.473,0-2.98,0-4.437V79.751c0-.568-.066-1.309-.14-2.165-.288-3.416-.683-8.083,2.255-9.2a9.055,9.055,0,0,1,2.585-.453l.889-.082a11.8,11.8,0,0,0,7.984-4.577.412.412,0,0,1,.733.313l-.453,2.667A37.634,37.634,0,0,0,207.54,63.9c3.383-1.284,5.359-2.832,6.206-4.873a.4.4,0,0,1,.461-.247.412.412,0,0,1,.329.412l-.091,5.194a6.239,6.239,0,0,0,2.264-1.91l.239-.272c1.037-1.169,1.811-1.646,2.469-1.646h0c1.465.156,1.408,2.766,1.35,5.07V80.2c0,2.511.066,5.1,0,7.655a20.479,20.479,0,0,1-20.512,19.8Zm-9.589-42.8a12.693,12.693,0,0,1-7.581,3.745l-.914.082a8.116,8.116,0,0,0-2.362.4c-2.354.9-1.984,5.219-1.72,8.363.074.881.14,1.646.14,2.239v6.692a19.681,19.681,0,0,0,19,20.364l2.354.091a19.656,19.656,0,0,0,20.364-19c.082-2.535.049-5.12,0-7.622v-14.6c0-1.35.1-4.157-.609-4.231h0c-.165,0-.667.074-1.786,1.333l-.23.3c-.864.988-1.836,2.107-3.235,2.3a.411.411,0,0,1-.337-.091.428.428,0,0,1-.14-.321l.074-4.116a12.465,12.465,0,0,1-5.852,3.885,38.572,38.572,0,0,1-17.047,2.338.412.412,0,0,1-.37-.477Z" transform="translate(-13.969 -5.305)" fill="#231f20"/>
    <path id="Path_605" data-name="Path 605" d="M203.391,77.17s6.585,14.578,3.679,14.816S200,90.093,200,90.093" transform="translate(-18.019 -8.559)" fill="#fff"/>
    <path id="Path_606" data-name="Path 606" d="M206.5,92.365c-2.939,0-6.585-1.9-6.75-1.984a.412.412,0,0,1,.379-.733c.041,0,4.116,2.115,6.84,1.868a.263.263,0,0,0,.23-.148c.881-1.515-2.14-9.458-4.247-14.108a.412.412,0,0,1,.749-.337c.576,1.268,5.589,12.487,4.206,14.816a1.07,1.07,0,0,1-.864.56A1.912,1.912,0,0,1,206.5,92.365Z" transform="translate(-17.936 -8.477)" fill="#231f20"/>
    <ellipse id="Ellipse_22" data-name="Ellipse 22" cx="1.383" cy="2.659" rx="1.383" ry="2.659" transform="translate(176.334 70.314)" fill="#231f20"/>
    <ellipse id="Ellipse_23" data-name="Ellipse 23" cx="1.383" cy="2.659" rx="1.383" ry="2.659" transform="translate(193.76 70.314)" fill="#231f20"/>
    <path id="Path_607" data-name="Path 607" d="M221.252,125.71c-.494,0-16.742,13.664-16.742,13.664l10.042,11.713,10.7-20.471Z" transform="translate(-18.817 -17.145)" fill="#fff"/>
    <path id="Path_608" data-name="Path 608" d="M214.464,151.37a.436.436,0,0,1-.313-.148l-10.042-11.7a.428.428,0,0,1-.1-.3.412.412,0,0,1,.148-.28c16.356-13.763,16.817-13.763,17.006-13.763a.428.428,0,0,1,.321.148l4.033,4.939a.412.412,0,0,1,.041.453l-10.7,20.471a.42.42,0,0,1-.321.214Zm-9.458-12.075,9.375,10.931L224.7,130.537l-3.63-4.42c-1.638,1.161-10.182,8.264-16.068,13.211Z" transform="translate(-18.728 -17.049)" fill="#231f20"/>
    <path id="Path_609" data-name="Path 609" d="M180.145,125.57c.535,0,19.566,13.779,19.566,13.779L188.1,151.062,176.49,128.706Z" transform="translate(-13.861 -17.12)" fill="#fff"/>
    <path id="Path_610" data-name="Path 610" d="M188.017,151.347h-.066a.412.412,0,0,1-.3-.214L176.04,128.777a.412.412,0,0,1,.1-.5l3.646-3.136a.412.412,0,0,1,.272-.1c.165,0,.667,0,19.8,13.862a.387.387,0,0,1,.173.3.412.412,0,0,1-.115.321l-11.573,11.738A.42.42,0,0,1,188.017,151.347Zm-11.1-22.636,11.195,21.566L198.989,139.3c-7.03-5.087-17.286-12.4-18.866-13.343Z" transform="translate(-13.773 -17.026)" fill="#231f20"/>
    <path id="Path_611" data-name="Path 611" d="M202.306,108.225h-.593c-7.844-.551-9.5-9.5-9.515-9.589a.4.4,0,0,1,.082-.329.42.42,0,0,1,.313-.148l20.916-.708a.4.4,0,0,1,.354.173.4.4,0,0,1,0,.387C213.74,98.421,209.747,108.225,202.306,108.225Zm-9.194-9.285c.453,1.778,2.469,8.017,8.659,8.445s10.1-6.947,11.112-9.1Z" transform="translate(-16.638 -12.146)" fill="#231f20"/>
    <path id="Path_612" data-name="Path 612" d="M171.619,64.85h3.926V91.19h-3.918a7.507,7.507,0,0,1-7.507-7.507v-11.3a7.507,7.507,0,0,1,7.5-7.532Z" transform="translate(-11.673 -6.38)" fill="#fff"/>
    <path id="Path_613" data-name="Path 613" d="M175.455,91.517h-3.926a7.935,7.935,0,0,1-7.919-7.927V72.3a7.935,7.935,0,0,1,7.919-7.927h3.926a.42.42,0,0,1,.412.412v26.34a.42.42,0,0,1-.412.4Zm-3.926-26.34a7.112,7.112,0,0,0-7.1,7.12V83.59a7.112,7.112,0,0,0,7.1,7.1h3.515V65.177Z" transform="translate(-11.583 -6.296)" fill="#231f20"/>
    <path id="Path_614" data-name="Path 614" d="M7.507,0h3.918V26.34H7.507A7.507,7.507,0,0,1,0,18.833V7.515A7.507,7.507,0,0,1,7.507,0Z" transform="translate(217.902 84.118) rotate(180)" fill="#fff"/>
    <path id="Path_615" data-name="Path 615" d="M233.58,90.663h-3.918a.412.412,0,0,1-.412-.412V63.912a.412.412,0,0,1,.412-.412h3.918a7.927,7.927,0,0,1,7.927,7.919V82.745A7.935,7.935,0,0,1,233.58,90.663Zm-3.507-.823h3.507a7.112,7.112,0,0,0,7.1-7.1V71.427a7.112,7.112,0,0,0-7.1-7.1h-3.507Z" transform="translate(-23.192 -6.142)" fill="#231f20"/>
    <path id="Path_616" data-name="Path 616" d="M223.725,66.964a.823.823,0,0,1-.823-.823c0-13.746-8.6-24.924-19.163-24.924h-10.7c-10.561,0-19.163,11.178-19.163,24.924a.823.823,0,0,1-1.646,0c0-14.652,9.334-26.571,20.809-26.571h10.7c11.474,0,20.809,11.919,20.809,26.571A.823.823,0,0,1,223.725,66.964Z" transform="translate(-13.107 -1.909)" fill="#231f20"/>
    <path id="Path_617" data-name="Path 617" d="M181.731,104.135c-3.959,0-7.161-.206-7.713-.823-1.424-1.646-1.868-9.17-1.918-10.026a.42.42,0,0,1,.387-.436.4.4,0,0,1,.436.4c.123,2.247.667,8.347,1.712,9.524.889.823,12.956.609,24.118-.14a.428.428,0,0,1,.436.387.412.412,0,0,1-.387.436C196.407,103.608,188.093,104.135,181.731,104.135Z" transform="translate(-13.084 -11.333)" fill="#231f20"/>
    <rect id="Rectangle_48" data-name="Rectangle 48" width="12.487" height="3.605" rx="1.803" transform="translate(173.857 90.201)" fill="#231f20"/>
    <path id="Path_618" data-name="Path 618" d="M200.726,107.328h-8.882a2.214,2.214,0,1,1,0-4.428h8.882a2.214,2.214,0,0,1,0,4.428Zm-8.882-3.605a1.391,1.391,0,1,0,0,2.782h8.882a1.391,1.391,0,1,0,0-2.782Z" transform="translate(-16.185 -13.11)" fill="#231f20"/>
    <path id="Path_619" data-name="Path 619" d="M194.938,84.461h-8.915a5.342,5.342,0,0,1-5.334-5.342V74.452a.412.412,0,0,1,.412-.412h18.776a.412.412,0,0,1,.412.412v4.667a5.35,5.35,0,0,1-5.35,5.342ZM181.513,74.83v4.256a4.519,4.519,0,0,0,4.511,4.519h8.915a4.527,4.527,0,0,0,4.519-4.519V74.83Z" transform="translate(-14.604 -8.006)" fill="#231f20"/>
    <path id="Path_620" data-name="Path 620" d="M221.51,84.461h-8.947a5.35,5.35,0,0,1-5.342-5.342V74.452a.412.412,0,0,1,.412-.412h18.8a.412.412,0,0,1,.412.412v4.667a5.342,5.342,0,0,1-5.334,5.342ZM208.043,74.83v4.256a4.527,4.527,0,0,0,4.519,4.519h8.947a4.519,4.519,0,0,0,4.511-4.519V74.83Z" transform="translate(-19.296 -8.006)" fill="#231f20"/>
    <path id="Path_621" data-name="Path 621" d="M206.994,77.339a.37.37,0,0,1-.222-.066,2.527,2.527,0,0,0-1.926-.609.7.7,0,0,0-.428.4.412.412,0,0,1-.519.255.4.4,0,0,1-.263-.51,1.506,1.506,0,0,1,.922-.914,3.128,3.128,0,0,1,2.667.7.412.412,0,0,1-.23.749Z" transform="translate(-18.659 -8.317)" fill="#231f20"/>
    <path id="Path_622" data-name="Path 622" d="M180.537,77.493h-2.626a.412.412,0,1,1,0-.823h2.626a.42.42,0,0,1,.412.412A.412.412,0,0,1,180.537,77.493Z" transform="translate(-14.039 -8.471)" fill="#231f20"/>
    <path id="Path_623" data-name="Path 623" d="M240,249.624H134.282L124.75,180.53H249.545Z" transform="translate(-4.71 -26.841)" fill="#231f20"/>
    <path id="Path_624" data-name="Path 624" d="M239.916,249.971H134.193a.4.4,0,0,1-.4-.354L124.25,180.5a.445.445,0,0,1,.1-.321.436.436,0,0,1,.313-.148H249.456a.4.4,0,0,1,.3.148.379.379,0,0,1,.1.321l-9.532,69.094a.412.412,0,0,1-.412.379Zm-105.361-.823H239.562l9.417-68.32H125.13Z" transform="translate(-4.621 -26.752)" fill="#231f20"/>
    <rect id="Rectangle_49" data-name="Rectangle 49" width="113.008" height="5.145" rx="2.572" transform="translate(125.819 222.783)" fill="#231f20"/>
    <path id="Path_625" data-name="Path 625" d="M242.154,269.937H134.324a2.988,2.988,0,1,1,0-5.968h107.83a2.988,2.988,0,0,1,0,5.968Zm-107.913-5.12a2.165,2.165,0,1,0,0,4.321H242.154a2.165,2.165,0,0,0,0-4.321Z" transform="translate(-5.847 -41.598)" fill="#231f20"/>
    <path id="Path_626" data-name="Path 626" d="M237.859,264.823H134.812a.412.412,0,0,1,0-.823H237.859a.412.412,0,1,1,0,.823Z" transform="translate(-6.416 -41.604)" fill="#fff"/>
    <path id="Path_627" data-name="Path 627" d="M168.459,82.823h-3.177a.412.412,0,0,1,0-.823h3.177a.412.412,0,1,1,0,.823Z" transform="translate(-11.806 -9.414)" fill="#d1d3d4"/>
    <path id="Path_628" data-name="Path 628" d="M168.459,86.523h-3.177a.412.412,0,0,1,0-.823h3.177a.412.412,0,1,1,0,.823Z" transform="translate(-11.806 -10.068)" fill="#d1d3d4"/>
    <path id="Path_629" data-name="Path 629" d="M198.785,220.719a1.7,1.7,0,0,0-.757-.576,2.568,2.568,0,0,0-.905-.181,2.65,2.65,0,0,0-1.037.206,2.47,2.47,0,0,0-1.317,1.416,3,3,0,0,0-.181,1.062,3.292,3.292,0,0,0,.173,1.095,2.527,2.527,0,0,0,.5.823,2.321,2.321,0,0,0,.782.551,2.535,2.535,0,0,0,1.021.2,2.247,2.247,0,0,0,1.045-.239,1.984,1.984,0,0,0,.733-.609l1.045.733a3.293,3.293,0,0,1-1.185.947,3.819,3.819,0,0,1-1.646.337,4.314,4.314,0,0,1-1.58-.288,3.589,3.589,0,0,1-1.235-.823,3.663,3.663,0,0,1-.823-1.218,4.165,4.165,0,0,1-.288-1.564,4.05,4.05,0,0,1,.3-1.589,3.622,3.622,0,0,1,.823-1.21,3.745,3.745,0,0,1,1.259-.766,4.6,4.6,0,0,1,1.572-.263,3.846,3.846,0,0,1,.733.066,3.571,3.571,0,0,1,.733.206,3.415,3.415,0,0,1,.667.346,2.322,2.322,0,0,1,.527.494Z" transform="translate(-16.804 -33.602)" fill="#fff"/>
    <path id="Path_630" data-name="Path 630" d="M205.946,220.533a1.572,1.572,0,0,0-.584-.444,1.7,1.7,0,0,0-.757-.181,1.77,1.77,0,0,0-.461.058,1.218,1.218,0,0,0-.412.173,1,1,0,0,0-.3.313.961.961,0,0,0-.016.881,1.12,1.12,0,0,0,.288.3,1.959,1.959,0,0,0,.436.214l.568.189c.239.074.477.156.733.255a3.136,3.136,0,0,1,.691.379,1.918,1.918,0,0,1,.519.6,1.885,1.885,0,0,1,.2.905,2.28,2.28,0,0,1-.214,1.029,2.181,2.181,0,0,1-.576.724,2.51,2.51,0,0,1-.823.436,3.531,3.531,0,0,1-1.029.148,3.86,3.86,0,0,1-1.391-.263,2.7,2.7,0,0,1-1.119-.823l.93-.873a1.951,1.951,0,0,0,.716.593,2.1,2.1,0,0,0,.889.214,1.812,1.812,0,0,0,.461-.058,1.152,1.152,0,0,0,.741-.527.93.93,0,0,0,.123-.5.823.823,0,0,0-.14-.477,1.078,1.078,0,0,0-.362-.329,2.148,2.148,0,0,0-.535-.247l-.65-.214q-.337-.115-.667-.247a2.232,2.232,0,0,1-.593-.387,1.819,1.819,0,0,1-.428-.584,2.05,2.05,0,0,1-.165-.864,1.893,1.893,0,0,1,.23-.963,2.248,2.248,0,0,1,.609-.667,3.012,3.012,0,0,1,.823-.4,3.942,3.942,0,0,1,.98-.123,3.514,3.514,0,0,1,1.136.2,2.749,2.749,0,0,1,1,.584Z" transform="translate(-18.318 -33.606)" fill="#fff"/>
    <path id="Path_631" data-name="Path 631" d="M198.535,230.88a9.4,9.4,0,1,1,9.425-9.4,9.4,9.4,0,0,1-9.425,9.4Zm0-17.977a8.577,8.577,0,1,0,8.6,8.577,8.577,8.577,0,0,0-8.6-8.577Z" transform="translate(-16.102 -32.421)" fill="#fff"/>
  </g>
</svg>
