<svg xmlns="http://www.w3.org/2000/svg" width="35" height="35" viewBox="0 0 35 35">
  <g id="download" transform="translate(0 -2.09)">
    <path id="Path_914" data-name="Path 914" d="M175.474,241h-4.736a1.092,1.092,0,0,0-1.184.968v8.711h-2.368a1.234,1.234,0,0,0-1.059.535.824.824,0,0,0,.112,1.013l5.92,5.872a1.351,1.351,0,0,0,1.894,0l5.92-5.872a.824.824,0,0,0,.112-1.013,1.234,1.234,0,0,0-1.059-.535h-2.368v-8.711A1.092,1.092,0,0,0,175.474,241Z" transform="translate(-155.606 -221.396)" fill="#fff"/>
    <path id="Path_915" data-name="Path 915" d="M28.676,10.974A5.286,5.286,0,0,0,24.407,6.7,8.413,8.413,0,0,0,16.475,0,8.381,8.381,0,0,0,8.563,6.621c-.1-.005-.193-.009-.291-.009A8.539,8.539,0,0,0,0,15.333a8.539,8.539,0,0,0,8.271,8.72h4.1V18.6a3.181,3.181,0,0,1,3.076-3.27h4.1a3.181,3.181,0,0,1,3.076,3.27v5.45h6.152A6.418,6.418,0,0,0,35,17.513,6.385,6.385,0,0,0,28.676,10.974Z" transform="translate(0 2.09)" fill="#fff"/>
  </g>
</svg>
