<svg xmlns="http://www.w3.org/2000/svg" width="235.589" height="163.137" viewBox="0 0 235.589 163.137">
  <g id="fast_working" transform="translate(-52.27 -42.178)">
    <path id="Path_633" data-name="Path 633" d="M145.858,74.84h62.675a29.969,29.969,0,0,1,29.82,32.888L232.463,167.9H121.928l-5.9-60.169A29.977,29.977,0,0,1,145.858,74.84Z" transform="translate(-10.995 -5.645)" fill="#fff"/>
    <path id="Path_634" data-name="Path 634" d="M232.376,168.224H121.841a.414.414,0,0,1-.414-.372l-5.9-60.169A30.382,30.382,0,0,1,145.771,74.34h62.675a30.366,30.366,0,0,1,30.233,33.343l-5.889,60.169A.422.422,0,0,1,232.376,168.224ZM122.213,167.4H232l5.856-59.8a29.555,29.555,0,0,0-29.414-32.434H145.771A29.547,29.547,0,0,0,116.357,107.6Z" transform="translate(-10.908 -5.558)" fill="#d1d3d4"/>
    <path id="Path_635" data-name="Path 635" d="M276.629,128.231c-4.814,2.647-31.433,5.145-35.486,7.023a16.742,16.742,0,0,0-2.084,1.191c-6.469,4.268-10.753,14.591.521,15.526,3.449.29,33.79-10.927,45.859-15.989,2.664-1.108,11.489-5.674,10.811-7.445s-3.5-6.369-4.591-6.038-9.322,4.227-9.322,4.227,2.291-6.866,0-6.617S276.629,128.231,276.629,128.231Z" transform="translate(-31.164 -13.467)" fill="#fff"/>
    <path id="Path_636" data-name="Path 636" d="M239.616,152.305h-.157c-5.1-.43-6.725-2.7-7.2-4.525-1.026-4.028,2.482-9.157,6.469-11.787a17.139,17.139,0,0,1,2.142-1.216c1.869-.877,8.04-1.812,15.187-2.9,8.164-1.241,17.371-2.647,20.15-4.045.562-1.307,3.59-8.057,5.972-8.272a1.166,1.166,0,0,1,1.084.43c.877,1.1.157,4.136-.323,5.79,2.159-1.026,7.585-3.582,8.5-3.83,1.654-.447,4.607,4.963,5.112,6.32.993,2.606-10.919,7.957-11.043,8.007C274.523,140.89,243.9,152.305,239.616,152.305Zm42.724-31.921h-.074c-1.5.149-4.061,4.963-5.327,7.916a.422.422,0,0,1-.19.207c-2.721,1.5-11.787,2.879-20.564,4.21-6.783,1.034-13.235,2.01-14.947,2.829A15.929,15.929,0,0,0,239.2,136.7c-4.194,2.771-6.94,7.643-6.113,10.861.571,2.242,2.8,3.582,6.444,3.888h.132c3.863,0,33.385-10.869,45.495-15.956,4.186-1.754,10.985-5.84,10.571-6.923-.827-2.151-3.383-5.79-4.07-5.79h0c-.877.232-6.965,3.11-9.24,4.194a.43.43,0,0,1-.471-.066.422.422,0,0,1-.116-.455c.67-2.027,1.357-5.211.761-5.956a.29.29,0,0,0-.256-.116Zm-5.79,7.751Z" transform="translate(-31.076 -13.371)" fill="#231f20"/>
    <path id="Path_637" data-name="Path 637" d="M212.83,75.452a85.645,85.645,0,0,0,17.288-21l6.907,4.276S230.689,75.584,212.83,75.452Z" transform="translate(-27.749 -2.121)" fill="#fff"/>
    <path id="Path_638" data-name="Path 638" d="M212.963,75.784h-.232a.422.422,0,0,1-.265-.753,85.762,85.762,0,0,0,17.189-20.886.405.405,0,0,1,.265-.2.422.422,0,0,1,.331.05l6.907,4.276a.438.438,0,0,1,.182.513C237.273,58.951,230.739,75.784,212.963,75.784Zm17.214-20.828a87.9,87.9,0,0,1-16.287,19.96C229.06,74.395,235.4,61.069,236.4,58.8Z" transform="translate(-27.658 -2.032)" fill="#231f20"/>
    <path id="Path_639" data-name="Path 639" d="M212.49,78.616a31.714,31.714,0,0,0,21.854-5.856l1.448,9.57s-10.025,5.236-24.931-.571Z" transform="translate(-27.408 -5.285)" fill="#fff"/>
    <path id="Path_640" data-name="Path 640" d="M224.553,84.811a38.381,38.381,0,0,1-13.963-2.746.455.455,0,0,1-.248-.248.422.422,0,0,1,0-.347L212,78.326a.414.414,0,0,1,.447-.223,31.581,31.581,0,0,0,21.507-5.79.43.43,0,0,1,.422-.05.414.414,0,0,1,.248.331l1.431,9.57a.447.447,0,0,1-.223.447C235.811,82.652,231.559,84.811,224.553,84.811Zm-13.235-3.375c12.987,4.9,22.193,1.3,23.864.554L233.908,73.4a32.723,32.723,0,0,1-21.3,5.583Z" transform="translate(-27.312 -5.194)" fill="#231f20"/>
    <path id="Path_641" data-name="Path 641" d="M227.821,130.078s-2.482-6.1-14.3-19.852c-5.674-6.617-20.9-9.1-24.989-9.314.893.091,3.449-1.315-13.954,0-8.95.678-14.674,1.125-19.943,6.733-9.926,10.58-31.433,33.087-31.433,33.087l22.706,6.477a29.973,29.973,0,0,0,5.029-4.367l-3.259,24.22,61.318,3.573-.513-27.768,6.287,5.128Z" transform="translate(-12.259 -10.053)" fill="#ff3d00"/>
    <path id="Path_642" data-name="Path 642" d="M200.91,101h1.051A6.922,6.922,0,0,0,200.91,101Z" transform="translate(-25.689 -10.161)" fill="#ff3d00"/>
    <path id="Path_643" data-name="Path 643" d="M181.55,103.45l.554,62.1h17.18v-65.5Z" transform="translate(-22.343 -10.002)" fill="#fff"/>
    <path id="Path_644" data-name="Path 644" d="M199.213,165.855H182.025a.381.381,0,0,1-.38-.372l-.554-62.113A.38.38,0,0,1,181.4,103l17.735-3.4a.372.372,0,0,1,.455.364v65.512A.38.38,0,0,1,199.213,165.855Zm-16.808-.753h16.428V100.425l-16.99,3.251Z" transform="translate(-22.263 -9.922)" fill="#231f20"/>
    <path id="Path_645" data-name="Path 645" d="M175.861,144.13a.372.372,0,0,1-.339-.215l-7.445-15.609a.389.389,0,0,1,0-.381l4.831-7.105-4.74-3.491a.38.38,0,0,1-.091-.513l7.445-11a.372.372,0,0,1,.521-.1.38.38,0,0,1,.1.529l-7.271,10.7,4.731,3.482a.38.38,0,0,1,.091.521l-4.864,7.23,7.387,15.419a.38.38,0,0,1-.182.5A.372.372,0,0,1,175.861,144.13Z" transform="translate(-20.004 -10.97)" fill="#231f20"/>
    <path id="Path_646" data-name="Path 646" d="M206.24,144.137a.372.372,0,0,1-.165,0,.381.381,0,0,1-.182-.5l7.387-15.419-4.905-7.23a.381.381,0,0,1,.091-.521l4.731-3.482-7.271-10.7a.381.381,0,0,1,.1-.529.372.372,0,0,1,.521.1l7.486,11a.381.381,0,0,1-.091.513l-4.74,3.466,4.831,7.105a.389.389,0,0,1,0,.381l-7.445,15.609a.372.372,0,0,1-.347.207Z" transform="translate(-26.544 -10.977)" fill="#231f20"/>
    <path id="Path_647" data-name="Path 647" d="M204.358,88.071c-.108,0,1.878-10.613,2.051-11.506,1.166-6,2.068-11.44,1.522-16.287-1.431.695-1.778,2.821-2.97,3.863a124.309,124.309,0,0,1-.579-13.59c-7.775,2.754-15.964,5.79-21.085,12.267l-.612-9.67c-3.59,5.79-7.238,11.713-9.165,18.289s-.6,12.705,1,19.19Z" transform="translate(-20.79 -1.447)" fill="#fff"/>
    <path id="Path_648" data-name="Path 648" d="M174.441,90.932a.43.43,0,0,1-.414-.331c-1.654-6.766-2.854-12.9-.96-19.372,1.977-6.775,5.79-12.945,9.215-18.4a.43.43,0,0,1,.463-.19.422.422,0,0,1,.323.389l.529,8.594c5.4-6.187,13.789-9.165,20.58-11.58a.43.43,0,0,1,.571.405,124.519,124.519,0,0,0,.488,12.54c.182-.29.356-.6.529-.926a4.9,4.9,0,0,1,1.919-2.275.447.447,0,0,1,.4,0,.455.455,0,0,1,.215.331c.571,4.963-.4,10.621-1.53,16.419-.215,1.125-1.977,10.613-2.043,11.382a.339.339,0,0,1,0,.182.405.405,0,0,1-.364.281L174.5,90.932Zm7.858-36.52c-3.176,5.12-6.617,10.861-8.412,17.056s-.687,12.068.885,18.578l29.191-2.482c.1-1.051.538-3.805,1.977-11.192,1.059-5.443,1.977-10.753,1.588-15.427a6.774,6.774,0,0,0-1,1.514,6.618,6.618,0,0,1-1.332,1.894.405.405,0,0,1-.438.074.422.422,0,0,1-.273-.356,129.309,129.309,0,0,1-.587-13.028c-6.882,2.482-15.253,5.542-20.315,11.928a.438.438,0,0,1-.463.141.447.447,0,0,1-.3-.381Z" transform="translate(-20.71 -1.356)" fill="#231f20"/>
    <path id="Path_649" data-name="Path 649" d="M205.69,94.413c.827-5.079,9.248-6.328,8.834-.339a8.859,8.859,0,0,1-2.25,5.625,5.22,5.22,0,0,1-5.658,1.323" transform="translate(-26.515 -8.277)" fill="#fff"/>
    <path id="Path_650" data-name="Path 650" d="M208.289,101.718a4.665,4.665,0,0,1-1.936-.4.426.426,0,1,1,.347-.778,4.765,4.765,0,0,0,5.178-1.232A8.437,8.437,0,0,0,214,93.951c.141-2.027-.827-3.309-2.6-3.515a5.013,5.013,0,0,0-5.385,3.962.422.422,0,0,1-.488.347.43.43,0,0,1-.356-.488,5.832,5.832,0,0,1,6.328-4.674c1.754.207,3.557,1.472,3.309,4.425a9.322,9.322,0,0,1-2.366,5.9A6,6,0,0,1,208.289,101.718Z" transform="translate(-26.426 -8.187)" fill="#231f20"/>
    <path id="Path_651" data-name="Path 651" d="M178.431,94.413c-.827-5.079-9.248-6.328-8.834-.339a8.9,8.9,0,0,0,2.25,5.625,5.22,5.22,0,0,0,5.658,1.323" transform="translate(-20.275 -8.277)" fill="#fff"/>
    <path id="Path_652" data-name="Path 652" d="M175.63,101.727a6,6,0,0,1-4.21-1.812,9.314,9.314,0,0,1-2.333-5.848c-.207-2.961,1.6-4.227,3.309-4.434a5.84,5.84,0,0,1,6.328,4.674.414.414,0,0,1-.356.488.422.422,0,0,1-.488-.347,5.021,5.021,0,0,0-5.385-3.962c-1.795.207-2.738,1.489-2.6,3.515a8.437,8.437,0,0,0,2.126,5.36,4.773,4.773,0,0,0,5.178,1.232.426.426,0,1,1,.347.778,4.649,4.649,0,0,1-1.919.356Z" transform="translate(-20.186 -8.196)" fill="#231f20"/>
    <path id="Path_653" data-name="Path 653" d="M181.75,119.5l8.462,6.957,9.082-5.054.6-21.052L181.75,99.78Z" transform="translate(-22.377 -9.955)" fill="#fff"/>
    <path id="Path_654" data-name="Path 654" d="M190.14,126.8a.405.405,0,0,1-.265-.1l-8.487-6.973a.405.405,0,0,1-.149-.331v-19.7a.438.438,0,0,1,.124-.306.447.447,0,0,1,.314-.116l18.148.562a.43.43,0,0,1,.414.438l-.612,21.052a.414.414,0,0,1-.215.364l-9.1,5.054a.356.356,0,0,1-.174.058Zm-8.032-7.585,8.081,6.617,8.611-4.8.587-20.39-17.28-.529Z" transform="translate(-22.289 -9.867)" fill="#231f20"/>
    <path id="Path_655" data-name="Path 655" d="M182.418,110c.165.96,5.327,7.362,17.238,8.09V110c-2.845.405-6.617,1.795-9.686,1.514a24.923,24.923,0,0,1-7.552-1.464C182.054,109.858,182.8,110.247,182.418,110Z" transform="translate(-22.475 -11.72)" fill="#231f20"/>
    <path id="Path_656" data-name="Path 656" d="M199.571,118.449h0c-11.274-.687-16.833-6.535-17.544-8.206a.389.389,0,0,1-.165-.521c.083-.165.265-.331.662-.149h0A25.03,25.03,0,0,0,189.967,111a21.308,21.308,0,0,0,6.419-.827c1.125-.265,2.192-.513,3.168-.653a.405.405,0,0,1,.331.1.43.43,0,0,1,.141.306v8.139a.378.378,0,0,1-.455.38ZM183.3,110.74c1.563,1.9,6.444,6.154,15.857,6.849v-7.213c-.827.141-1.7.347-2.63.562a22.143,22.143,0,0,1-6.675.877,30.407,30.407,0,0,1-6.551-1.075Z" transform="translate(-22.389 -11.634)" fill="#231f20"/>
    <path id="Path_657" data-name="Path 657" d="M189.261,107.727h1.357a11.647,11.647,0,0,0,11.647-11.655v-13.7c0-2.862-4-4.616-6.336-4.963a24.65,24.65,0,0,0-7.585.364c-6.154.951-10.795,3.2-10.753,10.125v8.222a11.647,11.647,0,0,0,11.671,11.605Z" transform="translate(-21.658 -6.065)" fill="#fff"/>
    <path id="Path_658" data-name="Path 658" d="M190.533,108.056h-1.357A12.093,12.093,0,0,1,177.1,95.971V87.749c-.066-7.817,5.889-9.744,11.092-10.546a24.65,24.65,0,0,1,7.726-.364c2.771.463,6.684,2.482,6.684,5.426V95.971a12.085,12.085,0,0,1-12.068,12.085Zm3.027-30.531a34.45,34.45,0,0,0-5.219.529c-7.321,1.133-10.422,4.028-10.373,9.694v8.23A11.241,11.241,0,0,0,189.193,107.2h1.357a11.233,11.233,0,0,0,11.2-11.233v-13.7c0-2.482-3.565-4.186-5.972-4.583a14.5,14.5,0,0,0-2.217-.165Z" transform="translate(-21.574 -5.964)" fill="#231f20"/>
    <ellipse id="Ellipse_24" data-name="Ellipse 24" cx="0.703" cy="1.613" rx="0.703" ry="1.613" transform="translate(171.342 83.599) rotate(-3.78)" fill="#231f20"/>
    <ellipse id="Ellipse_25" data-name="Ellipse 25" cx="0.705" cy="1.617" rx="0.705" ry="1.617" transform="translate(161.87 83.101) rotate(-4.004)" fill="#231f20"/>
    <path id="Path_659" data-name="Path 659" d="M188.862,108.227h-.67a.43.43,0,0,1,.083-.827,14.765,14.765,0,0,0,10.108-3.731.438.438,0,0,1,.6.05.43.43,0,0,1-.05.6,15.849,15.849,0,0,1-10.075,3.9Z" transform="translate(-23.443 -10.61)" fill="#231f20"/>
    <path id="Path_660" data-name="Path 660" d="M202.047,105.113a.364.364,0,0,1-.182,0c-2.118-.976-1.886-3.367-1.464-4.492a.414.414,0,0,1,.546-.248.43.43,0,0,1,.256.546c-.041.1-.91,2.531,1.026,3.424a.4.4,0,0,1-.182.769Z" transform="translate(-25.552 -10.053)" fill="#231f20"/>
    <path id="Path_661" data-name="Path 661" d="M190.123,103.5a.91.91,0,0,1-.72-.356c-1.092-1.348.058-7.271.306-8.445a.43.43,0,0,1,.827.174c-.571,2.754-1.092,6.973-.48,7.726,1.53,0,2.688-1.812,2.7-1.828a.422.422,0,0,1,.587-.132.43.43,0,0,1,.141.587C193.432,101.312,192.059,103.5,190.123,103.5Z" transform="translate(-23.62 -9.03)" fill="#231f20"/>
    <path id="Path_662" data-name="Path 662" d="M193.911,92.9a.438.438,0,0,1-.414-.314.43.43,0,0,1,.3-.521,25.739,25.739,0,0,0,3.946-2.9c.554-.455.993-.827,1.208-.968a.43.43,0,1,1,.5.7c-.19.132-.645.5-1.166.926a20.87,20.87,0,0,1-4.252,3.061Z" transform="translate(-24.405 -7.939)" fill="#231f20"/>
    <path id="Path_663" data-name="Path 663" d="M186.675,93.151a.447.447,0,0,1-.232-.066c-1.861-1.216-3.962-2.482-4.334-2.68a.422.422,0,0,1,0-.827c.207-.05.389-.083,4.822,2.8a.43.43,0,0,1,.124.587A.422.422,0,0,1,186.675,93.151Z" transform="translate(-22.381 -8.19)" fill="#231f20"/>
    <path id="Path_664" data-name="Path 664" d="M286.67,214.839H52.77L78.785,166.16H260.656Z" transform="translate(-0.086 -21.427)" fill="#fff"/>
    <path id="Path_665" data-name="Path 665" d="M286.586,215.166H52.686a.405.405,0,0,1-.347-.2.4.4,0,0,1,0-.405l26.015-48.679a.414.414,0,0,1,.364-.223H260.571a.413.413,0,0,1,.364.223l26.031,48.679a.414.414,0,0,1-.364.6Zm-233.205-.827H285.891l-25.568-47.852H78.949Z" transform="translate(-0.002 -21.341)" fill="#231f20"/>
    <path id="Path_666" data-name="Path 666" d="M255.588,172.615l-33.914-8.5s-17,26.817-25.494,32.26l40.6,11.7S253.545,181.3,255.588,172.615Z" transform="translate(-24.871 -21.075)" fill="#fff"/>
    <path id="Path_667" data-name="Path 667" d="M236.644,208.445h-.116l-40.589-11.721a.422.422,0,0,1-.108-.753c8.321-5.36,25.2-31.888,25.369-32.161a.4.4,0,0,1,.447-.174l33.989,8.5a.405.405,0,0,1,.3.5c-2.068,8.652-18.247,34.526-18.934,35.618A.405.405,0,0,1,236.644,208.445ZM197,196.194l39.473,11.349c1.721-2.763,16.262-26.279,18.562-34.741l-33.294-8.33C219.926,167.326,205.294,190.049,197,196.194Z" transform="translate(-24.779 -20.989)" fill="#231f20"/>
    <path id="Path_668" data-name="Path 668" d="M243.722,206.406h-.141c-10.7-3.813-27-9.6-28.016-9.719a.418.418,0,1,1,.116-.827c1.423.19,25.444,8.76,28.182,9.736a.42.42,0,1,1-.141.827Z" transform="translate(-28.159 -26.559)" fill="#d1d3d4"/>
    <path id="Path_669" data-name="Path 669" d="M247.722,199.8a.421.421,0,0,1-.141,0c-10.7-3.822-27-9.562-28.016-9.694a.414.414,0,1,1,.116-.819c1.423.19,25.444,8.76,28.182,9.736a.42.42,0,1,1-.141.827Z" transform="translate(-28.851 -25.424)" fill="#d1d3d4"/>
    <path id="Path_670" data-name="Path 670" d="M253.09,191.515a.422.422,0,0,1-.141,0c-10.7-3.846-27-9.587-28.025-9.686a.414.414,0,0,1-.356-.463.422.422,0,0,1,.463-.356c1.431.19,25.452,8.76,28.19,9.736a.42.42,0,1,1-.141.827Z" transform="translate(-29.777 -23.993)" fill="#d1d3d4"/>
    <path id="Path_671" data-name="Path 671" d="M256.723,182.643h-.141c-10.7-3.822-27-9.554-28.008-9.694a.405.405,0,0,1-.356-.463.414.414,0,0,1,.463-.356c1.423.19,25.444,8.76,28.182,9.736a.405.405,0,0,1,.248.529.4.4,0,0,1-.389.248Z" transform="translate(-30.408 -22.458)" fill="#d1d3d4"/>
    <path id="Path_672" data-name="Path 672" d="M237.62,184.136s4.533,23.79,7.933,29.174c0,0,33-1.563,41.491-7.792,0,0-13.739-18.554-16.006-27.049Z" transform="translate(-32.033 -23.555)" fill="#fff"/>
    <path id="Path_673" data-name="Path 673" d="M245.466,213.638a.43.43,0,0,1-.356-.2c-3.4-5.385-7.8-28.339-7.982-29.315a.389.389,0,0,1,.066-.314.4.4,0,0,1,.273-.165l33.418-5.666a.414.414,0,0,1,.471.3c2.217,8.321,15.8,26.726,15.931,26.908a.406.406,0,0,1,.074.306.422.422,0,0,1-.157.273c-8.5,6.237-40.366,7.809-41.723,7.875Zm-7.445-29.249c.612,3.143,4.607,23.161,7.668,28.405,2.994-.157,32.26-1.845,40.68-7.445-1.9-2.6-13.342-18.413-15.716-26.47Z" transform="translate(-31.947 -23.469)" fill="#231f20"/>
    <path id="Path_674" data-name="Path 674" d="M162.241,172.06,151.57,202.07l53.055,2-9.943-32.012Z" transform="translate(-17.162 -22.447)" fill="#fff"/>
    <path id="Path_675" data-name="Path 675" d="M204.542,204.4h0l-53.055-2a.422.422,0,0,1-.323-.182.4.4,0,0,1-.05-.372l10.654-30.01a.414.414,0,0,1,.389-.273H194.6a.414.414,0,0,1,.4.29l9.926,32.012a.4.4,0,0,1-.066.372.405.405,0,0,1-.314.165Zm-52.476-2.8,51.889,1.952-9.678-31.16H162.43Z" transform="translate(-17.078 -22.361)" fill="#231f20"/>
    <rect id="Rectangle_50" data-name="Rectangle 50" width="233.892" height="11.489" transform="translate(52.684 193.412)" fill="#fff"/>
    <path id="Path_676" data-name="Path 676" d="M286.584,236.825H52.684a.414.414,0,0,1-.414-.414v-11.5a.422.422,0,0,1,.414-.414h233.9a.422.422,0,0,1,.414.414v11.5A.414.414,0,0,1,286.584,236.825ZM53.1,236h233.04V225.335H53.1Z" transform="translate(0 -31.51)" fill="#231f20"/>
    <path id="Path_677" data-name="Path 677" d="M180.347,160.19l8.363,15.294.091.736.447,3.615-2.8-2.324-.571-.471-8.363-15.3Z" transform="translate(-21.645 -20.396)" fill="#231f20"/>
    <path id="Path_678" data-name="Path 678" d="M189.161,180.166a.389.389,0,0,1-.265-.1l-3.375-2.8a.439.439,0,0,1-.1-.116l-8.363-15.3a.405.405,0,0,1,.165-.554l2.837-1.555a.414.414,0,0,1,.314,0,.405.405,0,0,1,.24.2l8.371,15.294a.339.339,0,0,1,0,.149l.538,4.351a.389.389,0,0,1-.207.405.364.364,0,0,1-.157.025Zm-3.061-3.482,2.482,2.084-.4-3.243-8.131-14.889-2.118,1.158Z" transform="translate(-21.558 -20.313)" fill="#231f20"/>
    <path id="Path_679" data-name="Path 679" d="M.769,0H3.143A.827.827,0,0,1,3.97.827V9.1H0V.827A.827.827,0,0,1,.827,0Z" transform="translate(153.499 137.735) rotate(-28.67)" fill="#231f20"/>
    <path id="Path_680" data-name="Path 680" d="M178.952,165.677h-.116a.4.4,0,0,1-.248-.2l-3.979-7.271a1.224,1.224,0,0,1-.1-.918,1.2,1.2,0,0,1,.587-.728l2.076-1.142a1.232,1.232,0,0,1,1.654.488l3.97,7.271a.405.405,0,0,1-.157.554l-3.5,1.911a.38.38,0,0,1-.19.033Zm-1.191-9.6a.381.381,0,0,0-.19.05l-2.076,1.133h0a.347.347,0,0,0-.19.24.372.372,0,0,0,0,.3l3.772,6.907,2.771-1.514-3.772-6.907A.4.4,0,0,0,177.761,156.082Zm-2.482.827Z" transform="translate(-21.118 -19.546)" fill="#231f20"/>
    <path id="Path_681" data-name="Path 681" d="M177.016,166.132a.414.414,0,0,1-.372-.215c-.091-.157-2.093-3.78-2.333-4.318a9.151,9.151,0,0,1,.2-3.2.43.43,0,0,1,.5-.339.422.422,0,0,1,.339.5,9.645,9.645,0,0,0-.265,2.7c.19.422,1.721,3.209,2.3,4.252a.422.422,0,0,1-.165.579.472.472,0,0,1-.207.05Z" transform="translate(-21.076 -20.026)" fill="#231f20"/>
    <path id="Path_682" data-name="Path 682" d="M137.67,152.546c-6.874-3.218-17.553-7.039-20.332,3.085a10.183,10.183,0,0,0,6.435,12.408c12.292,4.574,46.322,9.281,46.322,9.281s3.309-.571,4.492-2.713,4.136.141,5.79-1.29.488-4.177-1.084-6.361-6.692-2.424-7.991-2.175a24.547,24.547,0,0,0-4.583,2.184c-3.085,1.8-10.5-4.558-13.028-6.014q-7.254-4.136-14.79-7.817Z" transform="translate(-11.177 -18.476)" fill="#fff"/>
    <path id="Path_683" data-name="Path 683" d="M170.077,177.638h-.05c-.339-.05-34.237-4.765-46.429-9.3a10.563,10.563,0,0,1-6.684-12.887q1.241-4.442,4.6-6.014c4.748-2.192,11.58.48,16.262,2.68h0c.438.2.869.405,1.274.6,4.963,2.424,9.984,5.062,14.815,7.833.579.331,1.4.91,2.349,1.58,3.036,2.134,8.106,5.708,10.3,4.425a24.935,24.935,0,0,1,4.7-2.225c1.208-.232,6.617-.066,8.371,2.333,2.184,3.019,2.556,5.526,1.026,6.866-.827.761-2.051.62-3.094.5-1.315-.157-2.142-.207-2.622.678-1.216,2.283-4.616,2.887-4.756,2.912Zm-44.444-28.265a9,9,0,0,0-3.8.753,7.8,7.8,0,0,0-4.136,5.526,9.81,9.81,0,0,0,6.2,11.969c11.862,4.417,44.568,9.024,46.206,9.256.422-.091,3.2-.7,4.136-2.482.736-1.39,2.134-1.224,3.375-1.075a3.111,3.111,0,0,0,2.482-.314c1.754-1.539-.43-4.872-1.142-5.856-1.406-1.952-6.311-2.275-7.61-2.027a23.268,23.268,0,0,0-4.467,2.134c-2.606,1.522-7.527-1.936-11.117-4.458-.935-.662-1.737-1.232-2.291-1.547-4.814-2.763-9.777-5.393-14.765-7.809l-1.266-.6h0c-3.375-1.621-7.891-3.466-11.812-3.466Z" transform="translate(-11.101 -18.396)" fill="#231f20"/>
    <path id="Path_684" data-name="Path 684" d="M172.034,82.6s21.341,8.991,34.675.993l1.423-9.016s-20.679,4.6-34.03-3.118a25.13,25.13,0,0,0-2,5.716,17.941,17.941,0,0,0-.066,5.426Z" transform="translate(-20.668 -5.061)" fill="#fff"/>
    <path id="Path_685" data-name="Path 685" d="M192.931,87.182c-10.753,0-20.977-4.243-21.126-4.31a.381.381,0,0,1-.232-.281,18.281,18.281,0,0,1,.074-5.559,25.411,25.411,0,0,1,2.035-5.79.389.389,0,0,1,.232-.2.38.38,0,0,1,.3,0c13.053,7.544,33.55,3.118,33.757,3.077a.347.347,0,0,1,.339.091.356.356,0,0,1,.116.331L207,83.559a.372.372,0,0,1-.182.265C202.683,86.322,197.761,87.182,192.931,87.182Zm-20.679-4.963c2.175.827,21.639,8.272,33.989,1.017l1.315-8.272c-3.309.645-21.308,3.673-33.41-3.069a23.988,23.988,0,0,0-1.795,5.253,18.007,18.007,0,0,0-.058,5.112Z" transform="translate(-20.588 -4.984)" fill="#231f20"/>
    <path id="Path_686" data-name="Path 686" d="M188.3,128.131l1.927,3.2s-1.307,11.258,3.309,17.735,30.8-9.455,30.8-9.455l.827-8.9h-9.331S203.206,146.99,197.3,143.119c-5.195-3.416-4.715-12.408-4.715-12.408l3.391-2.581-4.186-3.731Z" transform="translate(-23.509 -14.21)" fill="#231f20"/>
    <path id="Path_687" data-name="Path 687" d="M197.363,150.917c-1.911,0-3.424-.488-4.268-1.654-4.409-6.212-3.515-16.494-3.375-17.884l-1.853-3.077a.414.414,0,0,1,.05-.5l3.482-3.731a.414.414,0,0,1,.579,0l4.185,3.731a.43.43,0,0,1,.141.323.422.422,0,0,1-.165.314l-3.234,2.482c0,1.29,0,8.876,4.541,11.853,5.509,3.623,17.85-12.151,17.966-12.308a.405.405,0,0,1,.331-.165h9.331a.422.422,0,0,1,.414.455l-.827,8.9a.389.389,0,0,1-.2.306C223.535,140.429,206.164,150.917,197.363,150.917Zm-8.636-22.789,1.77,2.928a.4.4,0,0,1,.058.256c0,.116-1.241,11.183,3.209,17.453,3.565,5.021,22.731-5.029,30.06-9.463l.827-8.272h-8.71c-1.414,1.795-13.053,16.213-18.951,12.333-5.335-3.507-4.922-12.408-4.9-12.772a.364.364,0,0,1,.157-.3l2.994-2.283-3.515-3.135Z" transform="translate(-23.424 -14.134)" fill="#231f20"/>
    <path id="Path_688" data-name="Path 688" d="M193.487,122.165c-7.445,0-11.357-3.077-11.58-3.243a.424.424,0,0,1,.529-.662c.066.041,5.931,4.607,16.742,2.482a.422.422,0,0,1,.5.331.43.43,0,0,1-.331.5A30.076,30.076,0,0,1,193.487,122.165Z" transform="translate(-22.377 -13.133)" fill="#231f20"/>
    <path id="Path_689" data-name="Path 689" d="M155.749,149.766a.414.414,0,0,1-.4-.273l-4.268-10.919a.442.442,0,1,1,.827-.314l4.268,10.927a.43.43,0,0,1-.248.554.471.471,0,0,1-.182.025Z" transform="translate(-17.073 -16.556)" fill="#231f20"/>
    <path id="Path_690" data-name="Path 690" d="M286.209,174.33l-30.779,3.209s3.78,26.246,6.047,31.722c0,0,27.942,2.076,42.293-6.229C303.77,203.008,286.4,179.243,286.209,174.33Z" transform="translate(-35.111 -22.839)" fill="#fff"/>
    <path id="Path_691" data-name="Path 691" d="M268.976,209.812c-4.516,0-7.527-.215-7.618-.223a.4.4,0,0,1-.347-.256c-2.266-5.459-5.923-30.746-6.071-31.821a.405.405,0,0,1,.083-.306.389.389,0,0,1,.281-.157l30.779-3.218a.412.412,0,0,1,.455.4c.149,3.788,11.5,20.282,17.478,28.471a.4.4,0,0,1,.074.331.422.422,0,0,1-.2.273C294.238,208.894,278.365,209.812,268.976,209.812Zm-7.3-1.034c2.812.182,27.95,1.514,41.4-5.964-2.233-3.077-16.353-22.7-17.321-28.124l-29.944,3.135C256.312,181.183,259.6,203.352,261.681,208.778Z" transform="translate(-35.026 -22.753)" fill="#231f20"/>
    <path id="Path_692" data-name="Path 692" d="M290.391,76.121,285.61,93.186s20.77.248,28-8.685l2.713-17.66S296.388,76.94,290.391,76.121Z" transform="translate(-40.327 -4.262)" fill="#fff"/>
    <path id="Path_693" data-name="Path 693" d="M285.646,93.52h-.132a.38.38,0,0,1-.323-.165.4.4,0,0,1-.074-.356l4.789-17.073a.43.43,0,0,1,.455-.3c5.79.827,25.485-9.1,25.684-9.231a.388.388,0,0,1,.6.4l-2.672,17.685a.372.372,0,0,1-.091.19c-3.061,3.788-8.76,6.427-16.957,7.842a71.137,71.137,0,0,1-11.274,1.009Zm4.963-17.04-4.541,16.2c3.309,0,20.63-.653,27.057-8.445l2.581-16.759C312.1,69.267,296.408,76.861,290.609,76.48Z" transform="translate(-40.239 -4.175)" fill="#231f20"/>
    <path id="Path_694" data-name="Path 694" d="M121.07,205.962l19.7-18.454L87.8,183.24l-19.091,16.9Z" transform="translate(-2.841 -24.379)" fill="#231f20"/>
    <path id="Path_695" data-name="Path 695" d="M120.984,206.288h0l-52.36-5.79a.414.414,0,0,1-.347-.281.405.405,0,0,1,.124-.43l19.091-16.9a.422.422,0,0,1,.306-.108l52.939,4.268a.438.438,0,0,1,.356.273.43.43,0,0,1-.108.438l-19.7,18.454a.455.455,0,0,1-.3.074Zm-51.392-6.535,51.285,5.691,18.893-17.685L87.9,183.582Z" transform="translate(-2.763 -24.3)" fill="#231f20"/>
    <path id="Path_696" data-name="Path 696" d="M119.211,201.215l-9.868-41.425L57.95,155.77l8.9,39.622Z" transform="translate(-0.982 -19.632)" fill="#fff"/>
    <path id="Path_697" data-name="Path 697" d="M119.125,201.539h0l-52.36-5.79a.422.422,0,0,1-.356-.323l-8.9-39.622a.447.447,0,0,1,.091-.364.43.43,0,0,1,.347-.141l51.392,4.02a.414.414,0,0,1,.364.323l9.868,41.417a.414.414,0,0,1-.091.372.422.422,0,0,1-.356.108ZM67.1,194.921l51.483,5.724-9.67-40.532L58.385,156.16Z" transform="translate(-0.904 -19.55)" fill="#231f20"/>
    <path id="Path_698" data-name="Path 698" d="M94.739,188.509a7.742,7.742,0,0,1-4.7-1.836,24.37,24.37,0,0,1-3.052-4.136.414.414,0,0,1,.05-.488l1.15-1.266a.422.422,0,0,1,.331-.132.43.43,0,0,1,.314.174,4.657,4.657,0,0,0,5.335,1.448h0a5.972,5.972,0,0,0,3.1-2.953,6.329,6.329,0,0,0,.157-.935,2.184,2.184,0,0,1,.248-1.067c.116-.132.372-.447,2.167-.083a.414.414,0,0,1,.339.4v2.217c.141.6.935,4.243,0,5.509a7.039,7.039,0,0,1-4.872,3.118C95.136,188.492,94.937,188.509,94.739,188.509Zm-6.882-6.138a22.07,22.07,0,0,0,2.73,3.681,6.617,6.617,0,0,0,4.674,1.6,6.253,6.253,0,0,0,4.293-2.788c.571-.753.215-3.383-.132-4.872a.248.248,0,0,1,0-.083v-1.919a5.193,5.193,0,0,0-1.051-.091,2.044,2.044,0,0,1-.066.587,4.252,4.252,0,0,1-.24,1.2,6.708,6.708,0,0,1-3.631,3.367h0a5.526,5.526,0,0,1-6-1.348Zm6.46.29ZM98.229,177.913Z" transform="translate(-5.99 -23.312)" fill="#d1d3d4"/>
    <path id="Path_699" data-name="Path 699" d="M196.446,202.368h0l-37.769-.951a.414.414,0,0,1-.4-.43.405.405,0,0,1,.414-.4h0l37.761.951a.405.405,0,0,1,.405.422.422.422,0,0,1-.414.405Z" transform="translate(-18.321 -27.378)" fill="#d1d3d4"/>
    <path id="Path_700" data-name="Path 700" d="M171.56,193.525c-5.443,0-9.612,0-9.8-.05a.42.42,0,1,1,.149-.827c.827.074,22.516,0,33.914,0h0a.414.414,0,1,1,0,.827C191.065,193.5,179.831,193.525,171.56,193.525Z" transform="translate(-18.862 -26.004)" fill="#d1d3d4"/>
    <path id="Path_701" data-name="Path 701" d="M197.85,184.829h-.041l-6.237-.562a.414.414,0,0,1-.372-.455.405.405,0,0,1,.447-.372l6.237.562a.414.414,0,1,1,0,.827Z" transform="translate(-24.01 -24.413)" fill="#d1d3d4"/>
    <path id="Path_702" data-name="Path 702" d="M288.83,140.778s.687-19.645,11.258-29.778l28.223,8.189s-15.352,16.668-15.154,30.506Z" transform="translate(-40.884 -11.894)" fill="#fff"/>
    <path id="Path_703" data-name="Path 703" d="M313.067,150.044a.39.39,0,0,1-.141,0l-24.335-8.917a.43.43,0,0,1-.281-.414c0-.2.827-19.935,11.39-30.068a.447.447,0,0,1,.414-.1l28.231,8.189a.439.439,0,0,1,.29.3.405.405,0,0,1-.1.405c-.149.165-15.2,16.692-15.038,30.192a.438.438,0,0,1-.182.356A.447.447,0,0,1,313.067,150.044Zm-23.889-9.637,23.467,8.561c.141-7.081,4.136-14.782,7.577-20.051a87.439,87.439,0,0,1,7.229-9.6l-27.338-7.933C290.667,120.663,289.327,137.893,289.178,140.408Z" transform="translate(-40.794 -11.813)" fill="#231f20"/>
    <path id="Path_704" data-name="Path 704" d="M321.641,122.885h-.116l-19.4-5.625a.422.422,0,0,1-.281-.513.405.405,0,0,1,.513-.281l19.4,5.625a.418.418,0,0,1-.116.827Z" transform="translate(-43.131 -12.836)" fill="#d1d3d4"/>
    <path id="Path_705" data-name="Path 705" d="M318.261,129.735h-.116l-19.4-5.625a.422.422,0,0,1-.281-.513.405.405,0,0,1,.513-.281l19.4,5.625a.418.418,0,0,1-.116.827Z" transform="translate(-42.547 -14.02)" fill="#d1d3d4"/>
    <path id="Path_706" data-name="Path 706" d="M315.371,136.955h-.116l-19.4-5.625a.414.414,0,0,1-.281-.513.405.405,0,0,1,.513-.281l19.4,5.625a.414.414,0,0,1,.281.513.405.405,0,0,1-.4.281Z" transform="translate(-42.047 -15.267)" fill="#d1d3d4"/>
    <path id="Path_707" data-name="Path 707" d="M306.532,143.754a.3.3,0,0,1-.116,0l-13.789-4a.405.405,0,0,1-.281-.513.414.414,0,0,1,.513-.281l13.789,4a.414.414,0,0,1,.281.513.405.405,0,0,1-.4.281Z" transform="translate(-41.488 -16.723)" fill="#d1d3d4"/>
    <path id="Path_708" data-name="Path 708" d="M313.753,86.906h-.083c-.116,0-.4-.091-.38-.546a.364.364,0,0,1,.108-.256c.323-1.472,1.555-9.1,2.357-14.277a.419.419,0,0,1,.827.132C314.357,86.12,314.208,86.906,313.753,86.906Z" transform="translate(-45.111 -5.063)" fill="#d1d3d4"/>
    <path id="Path_709" data-name="Path 709" d="M308.753,89.457h-.083c-.124,0-.4-.083-.38-.546a.364.364,0,0,1,.108-.256c.323-1.472,1.555-9.1,2.357-14.277a.405.405,0,0,1,.471-.339.414.414,0,0,1,.347.471C309.357,88.671,309.208,89.457,308.753,89.457Z" transform="translate(-44.247 -5.505)" fill="#d1d3d4"/>
    <path id="Path_710" data-name="Path 710" d="M303.373,90.527h-.083c-.116,0-.4-.083-.38-.538a.405.405,0,0,1,.108-.265c.323-1.472,1.555-9.1,2.357-14.277a.422.422,0,0,1,.48-.339.405.405,0,0,1,.339.471C303.977,89.742,303.811,90.527,303.373,90.527Z" transform="translate(-43.317 -5.69)" fill="#d1d3d4"/>
    <path id="Path_711" data-name="Path 711" d="M298.283,93.176H298.2c-.124,0-.4-.091-.38-.546a.364.364,0,0,1,.108-.256c.314-1.481,1.555-9.1,2.357-14.277a.414.414,0,1,1,.819.124C298.879,92.382,298.738,93.176,298.283,93.176Z" transform="translate(-42.437 -6.147)" fill="#d1d3d4"/>
    <path id="Path_712" data-name="Path 712" d="M292.9,93.886h-.083c-.124,0-.4-.091-.38-.546a.4.4,0,0,1,.108-.265c.314-1.472,1.555-9.1,2.357-14.269a.414.414,0,0,1,.471-.347.422.422,0,0,1,.347.471C293.523,93.1,293.383,93.886,292.9,93.886Z" transform="translate(-41.507 -6.27)" fill="#d1d3d4"/>
    <path id="Path_713" data-name="Path 713" d="M271.529,60.346s-.232,4.4,3.631,10.29c0,0,8.222-12.672,13.235-14.616S275.169,52.215,271.529,60.346Z" transform="translate(-37.893 -2.103)" fill="#fff"/>
    <path id="Path_714" data-name="Path 714" d="M275.069,70.961a.43.43,0,0,1-.347-.19C270.834,64.84,271,60.423,271,60.233a.5.5,0,0,1,.041-.149c2.556-5.716,11.928-6.766,16.378-6.055,1.39.215,2.1.6,2.159,1.15s-.827,1.017-1.133,1.133c-4.847,1.878-12.97,14.335-13.053,14.459a.413.413,0,0,1-.347.19Zm-3.243-10.613c0,.571.091,4.417,3.226,9.438,1.654-2.482,8.545-12.482,13.094-14.244a1.853,1.853,0,0,0,.562-.29c-.463-.347-2.788-.786-6.1-.48C280.049,55.005,273.854,56.031,271.827,60.349Z" transform="translate(-37.802 -2.014)" fill="#231f20"/>
    <path id="Path_715" data-name="Path 715" d="M290.026,64.264s-6.361-10.613-18.5-5.923a90.261,90.261,0,0,1,8.834-15.253s6.692-2.333,15.642,5.162C296.006,48.25,293.1,59.441,290.026,64.264Z" transform="translate(-37.894 -0.098)" fill="#fff"/>
    <path id="Path_716" data-name="Path 716" d="M289.941,64.579h0a.43.43,0,0,1-.347-.207c-.256-.422-6.336-10.249-17.991-5.79a.4.4,0,0,1-.447-.1.405.405,0,0,1-.083-.447,91.361,91.361,0,0,1,8.884-15.328.414.414,0,0,1,.2-.157c.281-.091,7.014-2.316,16.039,5.244a.422.422,0,0,1,.132.422c-.116.455-2.953,11.307-6.03,16.13a.43.43,0,0,1-.356.232Zm-12.515-7.941c7.006,0,11.258,5.062,12.49,6.758,2.63-4.525,5.1-13.475,5.534-15.1-7.924-6.535-14-5.211-14.889-4.963a93.224,93.224,0,0,0-8.272,14.178A16.543,16.543,0,0,1,277.426,56.639Z" transform="translate(-37.809)" fill="#231f20"/>
    <path id="Path_717" data-name="Path 717" d="M292.464,59.529a.364.364,0,0,1-.132,0,.414.414,0,0,1-.256-.529l3.35-9.728a.414.414,0,0,1,.521-.256.422.422,0,0,1,.256.529l-3.367,9.711A.414.414,0,0,1,292.464,59.529Z" transform="translate(-41.44 -1.178)" fill="#d1d3d4"/>
    <path id="Path_718" data-name="Path 718" d="M287.734,56.574a.372.372,0,0,1-.132,0,.414.414,0,0,1-.256-.521l3.309-9.612a.414.414,0,1,1,.778.265l-3.309,9.612a.405.405,0,0,1-.389.256Z" transform="translate(-40.623 -0.68)" fill="#d1d3d4"/>
    <path id="Path_719" data-name="Path 719" d="M281.913,55.182a.4.4,0,0,1-.165,0,.422.422,0,0,1-.223-.538c3.813-9.14,4.086-9.173,4.368-9.215a.43.43,0,0,1,.463.356.4.4,0,0,1-.157.381c-.414.587-2.606,5.674-3.9,8.793A.405.405,0,0,1,281.913,55.182Z" transform="translate(-39.616 -0.562)" fill="#d1d3d4"/>
    <path id="Path_720" data-name="Path 720" d="M94.429,112.879s-16.014-2.01-20.142-8.627c-2.663-4.285,3.913-18.8,3.913-18.8s2.2,8.371,8.065,9.628,9.628,1.778,9.628,1.778S91.393,108.694,94.429,112.879Z" transform="translate(-3.695 -7.479)" fill="#fff"/>
    <path id="Path_721" data-name="Path 721" d="M94.344,113.206h-.05c-.662-.083-16.262-2.109-20.448-8.826-2.746-4.417,3.615-18.587,3.888-19.19a.4.4,0,0,1,.414-.24.405.405,0,0,1,.364.306c0,.083,2.209,8.148,7.751,9.331,5.79,1.241,9.57,1.77,9.6,1.778a.4.4,0,0,1,.323.207.414.414,0,0,1,0,.356c-.041.116-4.384,11.671-1.514,15.634a.43.43,0,0,1,0,.455A.414.414,0,0,1,94.344,113.206Zm-16.3-26.66c-1.406,3.309-5.617,13.988-3.5,17.371,3.441,5.526,15.716,7.8,19.025,8.321-1.977-4.268.91-12.987,1.654-15.154-1.216-.19-4.566-.728-9.157-1.712C81.3,94.363,78.876,88.9,78.049,86.546Z" transform="translate(-3.61 -7.392)" fill="#231f20"/>
    <path id="Path_722" data-name="Path 722" d="M77.385,105.1a.405.405,0,0,1-.405-.372c-.43-3.962,2.084-10.819,2.192-11.109a.415.415,0,0,1,.778.29c0,.066-2.556,6.965-2.151,10.753a.414.414,0,0,1-.364.455Z" transform="translate(-4.262 -8.844)" fill="#d1d3d4"/>
    <path id="Path_723" data-name="Path 723" d="M76.408,108.886s-.3-3.788,1.481-6.3L74.34,98.77S71.627,105.511,76.408,108.886Z" transform="translate(-3.682 -9.781)" fill="#fff"/>
    <path id="Path_724" data-name="Path 724" d="M76.327,109.254a.43.43,0,0,1-.24-.074c-4.963-3.557-2.242-10.538-2.217-10.6a.43.43,0,0,1,.306-.256.422.422,0,0,1,.38.124l3.549,3.813a.414.414,0,0,1,.041.521c-1.654,2.357-1.406,6-1.406,6.03a.4.4,0,0,1-.207.389A.372.372,0,0,1,76.327,109.254Zm-1.9-9.736c-.463,1.588-1.332,5.79,1.472,8.429a10.861,10.861,0,0,1,1.381-5.368Z" transform="translate(-3.6 -9.701)" fill="#231f20"/>
    <path id="Path_725" data-name="Path 725" d="M81.915,109.048h0a.414.414,0,0,1-.405-.43c0-.29.256-7.139,1.919-11.241a.405.405,0,0,1,.538-.223.414.414,0,0,1,.232.538c-1.6,3.962-1.861,10.886-1.861,10.96A.414.414,0,0,1,81.915,109.048Z" transform="translate(-5.053 -9.495)" fill="#d1d3d4"/>
    <path id="Path_726" data-name="Path 726" d="M87.1,110.73a.422.422,0,0,1-.414-.405C86.6,105.75,88.55,100,88.633,99.762a.416.416,0,0,1,.786.273c0,.05-1.993,5.848-1.9,10.274a.414.414,0,0,1-.405.422Z" transform="translate(-5.948 -9.904)" fill="#d1d3d4"/>
    <path id="Path_727" data-name="Path 727" d="M92.293,112.592a.405.405,0,0,1-.414-.405,43.269,43.269,0,0,1,.653-7.726.422.422,0,0,1,.488-.323.405.405,0,0,1,.323.488,42.277,42.277,0,0,0-.637,7.552.414.414,0,0,1-.414.414Z" transform="translate(-6.845 -10.707)" fill="#d1d3d4"/>
  </g>
</svg>
