<svg xmlns="http://www.w3.org/2000/svg" width="187.381" height="139.5" viewBox="0 0 187.381 139.5">
  <g id="finance_app" transform="translate(-58.65 -44.5)">
    <path id="Path_729" data-name="Path 729" d="M145.79,59.94h52.864v32.8a2.518,2.518,0,0,1-2.518,2.518H148.308a2.518,2.518,0,0,1-2.518-2.518Z" transform="translate(-29.392 -5.208)" fill="#fff"/>
    <path id="Path_730" data-name="Path 730" d="M195.984,95.405H148.157a2.823,2.823,0,0,1-2.816-2.823v-32.8a.3.3,0,0,1,.3-.3H198.5a.3.3,0,0,1,.3.3v32.8a2.823,2.823,0,0,1-2.823,2.823ZM145.943,60.09V92.562a2.22,2.22,0,0,0,2.213,2.22h47.828a2.22,2.22,0,0,0,2.22-2.22V60.09Z" transform="translate(-29.24 -5.053)" fill="#231f20"/>
    <path id="Path_731" data-name="Path 731" d="M148.308,52.86h47.828a2.518,2.518,0,0,1,2.518,2.518v2.174H145.79V55.378A2.518,2.518,0,0,1,148.308,52.86Z" transform="translate(-29.392 -2.82)" fill="#fff"/>
    <path id="Path_732" data-name="Path 732" d="M198.5,57.705H145.638a.3.3,0,0,1-.3-.3V55.227a2.823,2.823,0,0,1,2.817-2.817h47.828a2.823,2.823,0,0,1,2.81,2.817V57.4A.3.3,0,0,1,198.5,57.705Zm-52.559-.61H198.2V55.227a2.22,2.22,0,0,0-2.22-2.213H148.156a2.22,2.22,0,0,0-2.213,2.213Z" transform="translate(-29.24 -2.668)" fill="#231f20"/>
    <circle id="Ellipse_26" data-name="Ellipse 26" cx="3.406" cy="3.406" r="3.406" transform="translate(126.008 61.048)" fill="#ff3d00"/>
    <path id="Path_733" data-name="Path 733" d="M156.09,87.1a6.2,6.2,0,0,1,12.386,0Z" transform="translate(-32.866 -12.347)" fill="#ff3d00"/>
    <circle id="Ellipse_27" data-name="Ellipse 27" cx="3.406" cy="3.406" r="3.406" transform="translate(152.841 61.048)" fill="#ff3d00"/>
    <path id="Path_734" data-name="Path 734" d="M196.58,87.1a6.2,6.2,0,0,1,12.386,0Z" transform="translate(-46.523 -12.347)" fill="#ff3d00"/>
    <path id="Path_735" data-name="Path 735" d="M190.247,73.653h-7.952a.3.3,0,0,1,0-.61h7.25l-1.584-1.663a.3.3,0,0,1,0-.424.311.311,0,0,1,.431,0l2.068,2.18a.292.292,0,0,1,.06.325A.3.3,0,0,1,190.247,73.653Z" transform="translate(-41.602 -8.894)" fill="#231f20"/>
    <path id="Path_736" data-name="Path 736" d="M191.293,76.709a.311.311,0,0,1-.219-.093.3.3,0,0,1,0-.431l1.988-1.935a.3.3,0,0,1,.424.437L191.5,76.623a.3.3,0,0,1-.205.086Z" transform="translate(-44.636 -10.008)" fill="#231f20"/>
    <path id="Path_737" data-name="Path 737" d="M184.558,77.5h-7.952a.3.3,0,0,1-.278-.179.3.3,0,0,1,.06-.331l2.068-2.174a.3.3,0,1,1,.444.418l-1.59,1.657h7.25a.311.311,0,0,1,.3.3A.3.3,0,0,1,184.558,77.5Z" transform="translate(-39.683 -10.192)" fill="#231f20"/>
    <path id="Path_738" data-name="Path 738" d="M178.59,80.55a.278.278,0,0,1-.205-.086L176.4,78.535a.311.311,0,0,1,0-.431.3.3,0,0,1,.431,0l1.988,1.935a.3.3,0,0,1,0,.424A.311.311,0,0,1,178.59,80.55Z" transform="translate(-39.686 -11.305)" fill="#231f20"/>
    <path id="Path_739" data-name="Path 739" d="M193.246,95.863H161.721a.331.331,0,0,1-.331-.331.338.338,0,0,1,.331-.331h31.525a.331.331,0,0,1,0,.663Z" transform="translate(-34.653 -17.101)" fill="#d1d3d4"/>
    <path id="Path_740" data-name="Path 740" d="M193.246,99.243H161.721a.331.331,0,0,1-.331-.331.338.338,0,0,1,.331-.331h31.525a.331.331,0,0,1,0,.663Z" transform="translate(-34.653 -18.241)" fill="#d1d3d4"/>
    <path id="Path_741" data-name="Path 741" d="M190.006,102.663H161.721a.331.331,0,0,1-.331-.331.338.338,0,0,1,.331-.331h28.284a.338.338,0,0,1,.331.331A.331.331,0,0,1,190.006,102.663Z" transform="translate(-34.653 -19.394)" fill="#d1d3d4"/>
    <circle id="Ellipse_28" data-name="Ellipse 28" cx="0.809" cy="0.809" r="0.809" transform="translate(119.308 51.578)" fill="#ff3d00"/>
    <circle id="Ellipse_29" data-name="Ellipse 29" cx="0.809" cy="0.809" r="0.809" transform="translate(122.157 51.578)" fill="#d1d3d4"/>
    <circle id="Ellipse_30" data-name="Ellipse 30" cx="0.809" cy="0.809" r="0.809" transform="translate(125.007 51.578)" fill="#d1d3d4"/>
    <path id="Path_742" data-name="Path 742" d="M237.907,55.37h68.219v80.506a3.314,3.314,0,0,1-3.314,3.314h-61.6a3.314,3.314,0,0,1-3.314-3.314V55.37Z" transform="translate(-60.46 -3.666)" fill="#fff"/>
    <path id="Path_743" data-name="Path 743" d="M302.63,139.352H241a3.645,3.645,0,0,1-3.638-3.645V55.2a.331.331,0,0,1,.331-.331h68.252a.331.331,0,0,1,.331.331v80.506a3.652,3.652,0,0,1-3.645,3.645ZM238.056,55.533V135.72a2.982,2.982,0,0,0,2.976,2.982h61.632a2.989,2.989,0,0,0,2.982-2.982V55.533Z" transform="translate(-60.277 -3.498)" fill="#231f20"/>
    <path id="Path_744" data-name="Path 744" d="M297.646,167.58H257.221A3.247,3.247,0,0,1,254,164.372v-1.922a3.247,3.247,0,0,1,3.241-3.241h40.425a3.241,3.241,0,0,1,3.241,3.241v1.922A3.241,3.241,0,0,1,297.646,167.58Zm-40.425-7.707a2.578,2.578,0,0,0-2.558,2.578v1.922a2.578,2.578,0,0,0,2.578,2.571h40.425a2.578,2.578,0,0,0,2.578-2.571v-1.922a2.578,2.578,0,0,0-2.578-2.578Z" transform="translate(-65.89 -38.691)" fill="#231f20"/>
    <rect id="Rectangle_51" data-name="Rectangle 51" width="5.408" height="38.974" transform="translate(187.202 73.765)" fill="#ff3d00"/>
    <rect id="Rectangle_52" data-name="Rectangle 52" width="5.408" height="29.842" transform="translate(197.182 82.891)" fill="#ff3d00"/>
    <rect id="Rectangle_53" data-name="Rectangle 53" width="5.408" height="35.793" transform="translate(207.156 76.946)" fill="#ff3d00"/>
    <rect id="Rectangle_54" data-name="Rectangle 54" width="5.408" height="25.004" transform="translate(217.137 87.728)" fill="#ff3d00"/>
    <rect id="Rectangle_55" data-name="Rectangle 55" width="5.408" height="35.793" transform="translate(227.117 76.946)" fill="#ff3d00"/>
    <path id="Path_745" data-name="Path 745" d="M316,65.663h-9.165a.331.331,0,1,1,0-.663h9.152a.338.338,0,0,1,.331.331.331.331,0,0,1-.318.331Z" transform="translate(-83.598 -6.914)" fill="#231f20"/>
    <path id="Path_746" data-name="Path 746" d="M312.8,70.813h-5.964a.331.331,0,1,1,0-.663H312.8a.331.331,0,1,1,0,.663Z" transform="translate(-83.598 -8.652)" fill="#231f20"/>
    <path id="Path_747" data-name="Path 747" d="M286.87,86.61c-2.889,0-5.408-3.221-7.436-5.819-1.325-1.683-2.565-3.314-3.393-3.314h0c-.941,0-2.24.775-3.612,1.571-1.869,1.08-3.976,2.306-5.964,2.194-3.718-.2-10.7-8.4-10.994-8.754a.311.311,0,0,1,.033-.444.325.325,0,0,1,.451,0c.066.086,7.1,8.35,10.544,8.536,1.816.106,3.844-1.074,5.633-2.114a9.946,9.946,0,0,1,3.91-1.657c1.1-.033,2.379,1.537,3.93,3.532,1.988,2.538,4.44,5.693,7.1,5.567,2.3-.113,3.4-2.114,4.566-4.235s2.273-4.149,4.6-4.593a.318.318,0,0,1,.113.623c-2.028.384-3.062,2.273-4.162,4.274-1.193,2.18-2.432,4.434-5.083,4.566Z" transform="translate(-66.36 -9.26)" fill="#d1d3d4"/>
    <path id="Path_748" data-name="Path 748" d="M300.183,147.623H245.841a.311.311,0,0,1-.311-.318.318.318,0,0,1,.311-.3h54.342a.318.318,0,0,1,.318.318.312.312,0,0,1-.318.3Z" transform="translate(-63.033 -34.572)" fill="#d1d3d4"/>
    <path id="Path_749" data-name="Path 749" d="M255.379,73.049a1.219,1.219,0,1,1,1.219-1.219A1.219,1.219,0,0,1,255.379,73.049Zm0-1.8a.59.59,0,1,0,.59.583.583.583,0,0,0-.59-.583Z" transform="translate(-65.944 -8.807)" fill="#d1d3d4"/>
    <path id="Path_750" data-name="Path 750" d="M316.383,80.859a1.219,1.219,0,1,1,1.226-1.219A1.219,1.219,0,0,1,316.383,80.859Zm0-1.809a.59.59,0,1,0,.59.59.59.59,0,0,0-.59-.59Z" transform="translate(-86.522 -11.441)" fill="#d1d3d4"/>
    <path id="Path_751" data-name="Path 751" d="M241.217,45h61.6a3.314,3.314,0,0,1,3.314,3.314v3.545H237.91V48.314A3.314,3.314,0,0,1,241.217,45Z" transform="translate(-60.463 -0.169)" fill="#fff"/>
    <path id="Path_752" data-name="Path 752" d="M305.961,52.035H237.741a.331.331,0,0,1-.331-.331V48.145a3.645,3.645,0,0,1,3.638-3.645H302.68a3.651,3.651,0,0,1,3.645,3.645V51.69a.331.331,0,0,1-.365.345Zm-67.888-.663h67.556V48.145a2.989,2.989,0,0,0-2.982-2.982H241.015a2.982,2.982,0,0,0-2.976,2.982Z" transform="translate(-60.294)" fill="#231f20"/>
    <rect id="Rectangle_56" data-name="Rectangle 56" width="50.505" height="62.056" rx="3.67" transform="translate(58.981 85.807)" fill="#fff"/>
    <path id="Path_753" data-name="Path 753" d="M107.054,169.069H61.413a2.763,2.763,0,0,1-2.763-2.763V109.093a2.77,2.77,0,0,1,2.763-2.763h45.641a2.77,2.77,0,0,1,2.764,2.763v57.192a2.763,2.763,0,0,1-2.763,2.783ZM61.413,106.993a2.107,2.107,0,0,0-2.1,2.1v57.192a2.1,2.1,0,0,0,2.1,2.121h45.641a2.1,2.1,0,0,0,2.1-2.1V109.093a2.107,2.107,0,0,0-2.1-2.1Z" transform="translate(0 -20.855)" fill="#231f20"/>
    <path id="Path_754" data-name="Path 754" d="M102.129,180.353H74.911a.331.331,0,0,1-.331-.331.338.338,0,0,1,.331-.331h27.217a.331.331,0,0,1,0,.663Z" transform="translate(-5.373 -45.599)" fill="#d1d3d4"/>
    <path id="Path_755" data-name="Path 755" d="M88.987,187.063H74.911a.338.338,0,0,1-.331-.331.331.331,0,0,1,.331-.331H88.987a.331.331,0,0,1,.331.331.338.338,0,0,1-.331.331Z" transform="translate(-5.373 -47.862)" fill="#d1d3d4"/>
    <path id="Path_756" data-name="Path 756" d="M75.312,127.839q5.964,5.964,11.882,11.889a.616.616,0,0,0,.477.2h18.2A17.555,17.555,0,1,1,75.159,127.7Z" transform="translate(-4.09 -28.063)" fill="#ff3d00"/>
    <path id="Path_757" data-name="Path 757" d="M98.21,118.68v16.952h.172l16.409-.04c.364,0,.364,0,.338-.364a17.708,17.708,0,0,0-10.471-15.043,17.959,17.959,0,0,0-5.679-1.438Z" transform="translate(-13.343 -25.02)" fill="#d1d3d4"/>
    <path id="Path_758" data-name="Path 758" d="M90.374,135.413V118.7a18.973,18.973,0,0,0-5.759,1.213,18.065,18.065,0,0,0-5.925,3.824Z" transform="translate(-6.759 -25.027)" fill="#d1d3d4"/>
    <path id="Path_759" data-name="Path 759" d="M171.3,115.209c-3.9-1.173-5.964-5.739-7-9.371-1.166-4.129-2.538-7.508-.875-11.809a3.569,3.569,0,0,1,1.988-2.306,1.988,1.988,0,0,0,.709-.245,1.511,1.511,0,0,0,.378-.616c2.372-5.593,9.086-5.746,14.122-4.957,2.916.457,6.7,1.789,7.608,4.785,1.663,5.52.258,11.524-2.8,16.3C182.556,111.472,177.142,117,171.3,115.209Z" transform="translate(-35.077 -13.849)" fill="#fff"/>
    <path id="Path_760" data-name="Path 760" d="M173.356,115.716a7.886,7.886,0,0,1-2.326-.345h0c-4.076-1.226-6.183-5.891-7.23-9.6-.133-.471-.265-.934-.4-1.392-1.06-3.6-1.988-6.713-.464-10.6a3.709,3.709,0,0,1,2.227-2.505l.2-.046a.663.663,0,0,0,.663-.577c2.472-5.805,9.278-6.031,14.5-5.2,1.988.311,6.8,1.431,7.88,5.017,1.577,5.249.543,11.266-2.843,16.568C182.687,111.455,178.167,115.716,173.356,115.716ZM176.3,85.735c-3.976,0-7.952,1.127-9.656,5.1a1.677,1.677,0,0,1-.477.749,1.551,1.551,0,0,1-.663.265l-.166.046c-.722.2-1.325.908-1.789,2.1-1.431,3.7-.543,6.72.484,10.206.139.457.272.921.411,1.4,1,3.539,2.989,8.006,6.779,9.145h0c5.3,1.584,10.6-3.141,13.764-8.092,3.28-5.116,4.288-10.955,2.763-16.024-.974-3.221-5.461-4.255-7.343-4.546a26.707,26.707,0,0,0-4.109-.345Z" transform="translate(-34.903 -13.693)" fill="#231f20"/>
    <path id="Path_761" data-name="Path 761" d="M202.46,113.44s4.182,5.229,3.526,6.455-3.254.663-3.254.663" transform="translate(-48.506 -23.253)" fill="#fff"/>
    <path id="Path_762" data-name="Path 762" d="M203.791,120.864a6.627,6.627,0,0,1-1.325-.133.338.338,0,0,1,.133-.663c.663.133,2.459.3,2.9-.517.345-.663-1.551-3.665-3.492-6.1a.338.338,0,0,1,.046-.471.345.345,0,0,1,.471.053c1.014,1.272,4.268,5.507,3.559,6.826A2.436,2.436,0,0,1,203.791,120.864Z" transform="translate(-48.326 -23.076)" fill="#231f20"/>
    <path id="Path_763" data-name="Path 763" d="M192.128,101.862c2.518,1.7,2.207,5.805,2.426,8.436q.457,5.547.663,11.12c.086,2.353-5.964,2.956-7.111,2.353l1.789,9.179-13.181-3.738-.563-10.729s3.976-.338,5.964-5.3,1.173-12.326,1.173-12.326S189.669,100.2,192.128,101.862Z" transform="translate(-39.632 -18.965)" fill="#fff"/>
    <path id="Path_764" data-name="Path 764" d="M189.716,133.116h-.093l-13.195-3.738a.331.331,0,0,1-.245-.3l-.563-10.736a.331.331,0,0,1,.3-.345c.159,0,3.837-.391,5.673-5.116,1.889-4.864,1.16-12.1,1.153-12.174a.371.371,0,0,1,.073-.245.331.331,0,0,1,.225-.119c.265,0,6.567-.616,9.092,1.087h0c2.233,1.511,2.372,4.692,2.485,7.29,0,.5.046.987.086,1.431.3,3.7.53,7.442.663,11.133a1.988,1.988,0,0,1-1.14,1.783,10.405,10.405,0,0,1-5.878,1.054l1.69,8.615a.345.345,0,0,1-.1.311A.365.365,0,0,1,189.716,133.116Zm-12.883-4.321,12.452,3.526-1.683-8.648a.318.318,0,0,1,.126-.331.338.338,0,0,1,.351,0c.736.391,4.142.186,5.8-.848.57-.358.848-.762.828-1.2-.133-3.685-.358-7.422-.663-11.107-.04-.451-.06-.941-.086-1.458-.106-2.412-.239-5.414-2.194-6.733h0c-1.988-1.365-7-1.1-8.33-1.007.126,1.518.51,7.687-1.226,12.147s-4.884,5.3-5.911,5.494Z" transform="translate(-39.453 -18.799)" fill="#231f20"/>
    <path id="Path_765" data-name="Path 765" d="M202.12,125.3s-3.632,0-4.5-4.9" transform="translate(-46.873 -25.6)" fill="#fff"/>
    <path id="Path_766" data-name="Path 766" d="M201.949,125.467c-.04,0-3.923-.06-4.831-5.176a.338.338,0,0,1,.272-.384.331.331,0,0,1,.384.265c.8,4.559,4.043,4.639,4.175,4.639a.328.328,0,1,1,0,.656Z" transform="translate(-46.703 -25.432)" fill="#231f20"/>
    <path id="Path_767" data-name="Path 767" d="M188.8,115.712a5.063,5.063,0,0,0-1.266-2.439,7.289,7.289,0,0,0-1.5-1.557,2.432,2.432,0,0,0-2.048-.431,2.266,2.266,0,0,0-1.325,1.279,4.294,4.294,0,0,0-.3,1.875,7.952,7.952,0,0,0,4.3,6.713l-.219-.205" transform="translate(-41.725 -22.503)" fill="#fff"/>
    <path id="Path_768" data-name="Path 768" d="M186.468,121.312a.3.3,0,0,1-.146-.04,8.343,8.343,0,0,1-4.487-6.992,4.579,4.579,0,0,1,.325-1.988,2.6,2.6,0,0,1,1.557-1.465,2.744,2.744,0,0,1,2.333.477,7.375,7.375,0,0,1,1.564,1.624,5.3,5.3,0,0,1,1.325,2.611.33.33,0,1,1-.656.073,4.844,4.844,0,0,0-1.2-2.28,7.025,7.025,0,0,0-1.418-1.484,2.107,2.107,0,0,0-1.763-.384,1.935,1.935,0,0,0-1.14,1.1,3.937,3.937,0,0,0-.272,1.73,7.687,7.687,0,0,0,3.7,6.19.3.3,0,0,1,.272.08l.225.2a.331.331,0,0,1-.225.583Z" transform="translate(-41.547 -22.344)" fill="#231f20"/>
    <path id="Path_769" data-name="Path 769" d="M191.7,134.117s-3.241-.663-4.9-2.717a7.438,7.438,0,0,0,5.553,6.1Z" transform="translate(-43.224 -29.311)" fill="#231f20"/>
    <path id="Path_770" data-name="Path 770" d="M192.184,137.666h-.08a7.82,7.82,0,0,1-5.805-6.375.331.331,0,0,1,.2-.345.325.325,0,0,1,.384.093,9.6,9.6,0,0,0,4.712,2.6.331.331,0,0,1,.258.265l.663,3.373a.331.331,0,0,1-.325.4Zm-4.97-5.381a6.852,6.852,0,0,0,4.546,4.586l-.517-2.651a10.908,10.908,0,0,1-4.029-1.922Z" transform="translate(-43.054 -29.148)" fill="#231f20"/>
    <ellipse id="Ellipse_31" data-name="Ellipse 31" cx="1.325" cy="0.524" rx="1.325" ry="0.524" transform="translate(150.994 89.101) rotate(-85.58)" fill="#231f20"/>
    <path id="Path_771" data-name="Path 771" d="M128.531,167.21l-6.8,11.929-17.708-18.171s1.431-7.721-.477-7.1a6.369,6.369,0,0,0-3.009,2.247s-1.571-10.6-5.706-7.117-2.233,9.609.9,15.494c2.326,4.367,23,36.224,28.728,34.945s19.344-30.213,19.344-30.213Z" transform="translate(-11.404 -35.007)" fill="#fff"/>
    <path id="Path_772" data-name="Path 772" d="M123.969,199.624c-6.514,0-26.628-31.253-28.7-35.124-2.611-4.911-5.54-11.929-.822-15.9a2.453,2.453,0,0,1,2.525-.663c2.174.822,3.247,5.441,3.592,7.29a6.408,6.408,0,0,1,2.71-1.789.815.815,0,0,1,.842.152c1.107.974.331,5.805.093,7.157l17.277,17.674,6.587-11.551a.331.331,0,0,1,.331-.166l15.242,1.988a.318.318,0,0,1,.245.172.338.338,0,0,1,0,.3c-.563,1.186-13.758,29.1-19.576,30.392A1.862,1.862,0,0,1,123.969,199.624ZM96.262,148.443a2.233,2.233,0,0,0-1.392.663c-3.314,2.81-3,7.608.987,15.09,2.525,4.745,23.036,35.952,28.357,34.779,5.143-1.146,17.23-26.1,18.927-29.623l-14.58-1.922-6.693,11.737a.338.338,0,0,1-.245.166.318.318,0,0,1-.278-.1l-17.708-18.171a.338.338,0,0,1-.086-.292c.451-2.445.8-6.137.152-6.707a.2.2,0,0,0-.205,0,6.123,6.123,0,0,0-2.836,2.114.345.345,0,0,1-.351.139.331.331,0,0,1-.252-.272c-.272-1.836-1.385-6.746-3.314-7.462A1.325,1.325,0,0,0,96.262,148.443Z" transform="translate(-11.229 -34.843)" fill="#231f20"/>
    <path id="Path_773" data-name="Path 773" d="M225.05,138.643s13.7-3.552,18.841-6.567c5.633-3.314,16.243-24.242,19.689-29.444A31.564,31.564,0,0,0,267.7,93.28a4.838,4.838,0,0,0-.159-3.976c-.152-.3-2.585-2.962-2.7-2.651.663-1.862,1.325-3.632,2.028-5.474.186-.51.325-1.153-.066-1.524a.974.974,0,0,0-1.2,0,2.876,2.876,0,0,0-.822.994l-5.633,9.768a7.587,7.587,0,0,0-.709-3.5,1.146,1.146,0,0,0-.418-.543c-.616-.345-1.213.5-1.4,1.173-1,3.526-.278,7.774-2.439,10.895-1.644,2.372-16.243,19.881-16.243,19.881l-12.883,3.314" transform="translate(-56.125 -11.788)" fill="#fff"/>
    <path id="Path_774" data-name="Path 774" d="M224.858,138.8a.334.334,0,0,1-.086-.663c.139-.033,13.725-3.565,18.761-6.528,4.076-2.4,11-14.533,15.587-22.565,1.657-2.9,3.082-5.4,3.976-6.773a31.352,31.352,0,0,0,4.062-9.278,4.553,4.553,0,0,0-.133-3.764,18.35,18.35,0,0,0-2.359-2.452.365.365,0,0,1-.146,0,.338.338,0,0,1-.205-.424h0c.4-1.193.855-2.366,1.286-3.506.252-.663.5-1.325.742-1.988s.225-.974,0-1.166a.663.663,0,0,0-.789,0,2.651,2.651,0,0,0-.7.9L259.2,90.383a.325.325,0,0,1-.378.152.331.331,0,0,1-.2-.292,7.375,7.375,0,0,0-.663-3.314.868.868,0,0,0-.285-.391.239.239,0,0,0-.239,0,1.61,1.61,0,0,0-.663.987,23.713,23.713,0,0,0-.663,4.109c-.219,2.386-.451,4.858-1.856,6.879-1.63,2.366-15.666,19.166-16.263,19.881a.318.318,0,0,1-.172.106l-12.883,3.314a.338.338,0,0,1-.4-.239.331.331,0,0,1,.239-.4l12.784-3.314c1.08-1.325,14.58-17.5,16.157-19.749,1.325-1.882,1.524-4.268,1.743-6.567a23.67,23.67,0,0,1,.663-4.235,2.207,2.207,0,0,1,1.067-1.418.908.908,0,0,1,.815.053,1.326,1.326,0,0,1,.557.663,7.906,7.906,0,0,1,.7,2.479l5.063-8.781a3.188,3.188,0,0,1,.934-1.113,1.325,1.325,0,0,1,1.617.04c.411.391.464,1.027.146,1.882-.245.663-.5,1.325-.749,1.988-.391,1.034-.8,2.1-1.173,3.181a16.177,16.177,0,0,1,2.571,2.651,5.169,5.169,0,0,1,.186,4.241,32.029,32.029,0,0,1-4.155,9.444c-.9,1.359-2.319,3.85-3.976,6.733-4.9,8.575-11.6,20.325-15.832,22.81-5.109,3.009-18.364,6.455-18.927,6.627Z" transform="translate(-55.933 -11.614)" fill="#231f20"/>
    <path id="Path_775" data-name="Path 775" d="M206.052,245.077l-4.288-19.5L159,237.051s.086,3.2.205,8.012Z" transform="translate(-33.847 -61.077)" fill="#231f20"/>
    <path id="Path_776" data-name="Path 776" d="M208.981,135.981s-48.656-1.027-54.832,7.707A123.143,123.143,0,0,0,142.14,166.77l8.748,8.178a320,320,0,0,0,1.763,34.627c15.077,2.651,46.31-9.411,46.045-9.53l-3.976-40.425,18.622-5.752Z" transform="translate(-28.161 -30.843)" fill="#ff3d00"/>
    <path id="Path_777" data-name="Path 777" d="M154.318,177.717h0a.331.331,0,0,1-.318-.345c0-.729.577-17.979,2.942-24.01a.325.325,0,0,1,.431-.186.318.318,0,0,1,.186.424c-2.319,5.925-2.889,23.619-2.9,23.791A.338.338,0,0,1,154.318,177.717Z" transform="translate(-32.161 -36.647)" fill="#231f20"/>
    <path id="Path_778" data-name="Path 778" d="M211.262,172.463a.325.325,0,0,1-.318-.239.338.338,0,0,1,.232-.411l13.751-3.91a.344.344,0,1,1,.186.663l-13.758,3.91a.226.226,0,0,1-.093-.013Z" transform="translate(-51.364 -41.619)" fill="#231f20"/>
    <path id="Path_779" data-name="Path 779" d="M279.018,228.734h-24.05a2.532,2.532,0,0,1-2.538-2.538V199.628a2.538,2.538,0,0,1,2.538-2.538h21.207l5.355,5.222V226.17a2.538,2.538,0,0,1-2.512,2.565Z" transform="translate(-65.36 -51.467)" fill="#fff"/>
    <path id="Path_780" data-name="Path 780" d="M278.849,228.9H254.8a2.87,2.87,0,0,1-2.87-2.87V199.459a2.876,2.876,0,0,1,2.87-2.87h21.207a.318.318,0,0,1,.232.093l5.361,5.229a.338.338,0,0,1,.1.232V226a2.876,2.876,0,0,1-2.85,2.9ZM254.8,197.253a2.213,2.213,0,0,0-2.207,2.207v26.561a2.207,2.207,0,0,0,2.207,2.207h24.05a2.213,2.213,0,0,0,2.207-2.207V202.283l-5.163-5.03Z" transform="translate(-65.192 -51.299)" fill="#231f20"/>
    <circle id="Ellipse_32" data-name="Ellipse 32" cx="1.113" cy="1.113" r="1.113" transform="translate(180.469 47.244)" fill="#ff3d00"/>
    <circle id="Ellipse_33" data-name="Ellipse 33" cx="1.113" cy="1.113" r="1.113" transform="translate(184.333 47.244)" fill="#d1d3d4"/>
    <circle id="Ellipse_34" data-name="Ellipse 34" cx="1.113" cy="1.113" r="1.113" transform="translate(188.196 47.244)" fill="#d1d3d4"/>
    <path id="Path_781" data-name="Path 781" d="M287.838,74.639a.311.311,0,0,1-.205-.08.318.318,0,0,1-.04-.444l2.863-3.393a.318.318,0,0,1,.245-.113h7.164a.331.331,0,1,1,0,.663h-7.031l-2.77,3.314a.318.318,0,0,1-.225.053Z" transform="translate(-77.196 -8.807)" fill="#d1d3d4"/>
    <path id="Path_782" data-name="Path 782" d="M288.3,197.09v5.381l5.355-.159Z" transform="translate(-77.459 -51.467)" fill="#ff3d00"/>
    <path id="Path_783" data-name="Path 783" d="M288.121,202.634a.325.325,0,0,1-.225-.093.318.318,0,0,1-.106-.239v-5.381a.338.338,0,0,1,.205-.3.325.325,0,0,1,.358.066l5.361,5.229a.331.331,0,0,1-.225.563l-5.355.159Zm.331-4.924v4.255l4.235-.126Z" transform="translate(-77.287 -51.298)" fill="#231f20"/>
    <rect id="Rectangle_57" data-name="Rectangle 57" width="10.424" height="10.424" rx="2.73" transform="translate(86.318 159.619)" fill="#ff3d00"/>
    <rect id="Rectangle_58" data-name="Rectangle 58" width="10.424" height="10.424" rx="2.56" transform="translate(84.409 156.279)" fill="#fff"/>
    <path id="Path_784" data-name="Path 784" d="M106.072,223.757H99.041A2.028,2.028,0,0,1,97,221.729V214.7a2.028,2.028,0,0,1,2.028-2.028h7.031a2.028,2.028,0,0,1,2.028,2.028v7.031a2.028,2.028,0,0,1-2.015,2.028Zm-7.031-10.424a1.365,1.365,0,0,0-1.378,1.365v7.031a1.365,1.365,0,0,0,1.365,1.365h7.031a1.365,1.365,0,0,0,1.365-1.365V214.7a1.365,1.365,0,0,0-1.365-1.365Z" transform="translate(-12.935 -56.722)" fill="#231f20"/>
    <path id="Path_785" data-name="Path 785" d="M269.726,225.808v-1.564c-.57-.159-1.12-.272-1.657-.457a4.831,4.831,0,0,1-2.545-1.882,4.7,4.7,0,0,1-.736-2.651h3.055a2.419,2.419,0,0,0,1.875,2.266v-4.149c-.616-.179-1.226-.345-1.836-.537a4.334,4.334,0,0,1-1.776-1.014,3.539,3.539,0,0,1-.987-1.922,4.983,4.983,0,0,1,.192-2.651A4.433,4.433,0,0,1,268,208.6a15.062,15.062,0,0,1,1.544-.4l.186-.04V206h2.863v1.981c0,.146.046.192.186.225a5.964,5.964,0,0,1,2.651,1.246,4.268,4.268,0,0,1,1.518,2.651c.053.285.073.577.113.875h-3.108a2.194,2.194,0,0,0-1.325-1.988v3.877l.338.08a11,11,0,0,1,2.439.775,3.519,3.519,0,0,1,2.107,2.949,4.6,4.6,0,0,1-.8,3.373,4.745,4.745,0,0,1-2.306,1.71c-.577.2-1.173.325-1.789.5v1.518Zm2.87-7.88v3.605a2.565,2.565,0,0,0,1.266-.563,1.571,1.571,0,0,0-.073-2.492A9.422,9.422,0,0,0,272.6,217.929Zm-2.876-3.691v-3.486a10.5,10.5,0,0,0-1.093.557,1.5,1.5,0,0,0,.093,2.512c.311.166.649.278,1,.424Z" transform="translate(-69.529 -54.473)" fill="#ff3d00"/>
    <rect id="Rectangle_59" data-name="Rectangle 59" width="29.186" height="17.389" transform="translate(75.026 58.954)" fill="#d1d3d4"/>
  </g>
</svg>
