<svg id="icon-team" xmlns="http://www.w3.org/2000/svg" width="85" height="85" viewBox="0 0 85 85">
  <path id="Path_914" data-name="Path 914" d="M0,0H85V85H0Z" fill="none"/>
  <path id="Path_915" data-name="Path 915" d="M28.667,61.16V50c0-4.277,3.317-7.64,8.223-9.56A28.385,28.385,0,0,0,10.177,44.2a26.723,26.723,0,0,0,18.49,16.96Zm29.6-12.207c-1.317-1.777-5.7-3.62-11.267-3.62-6.687,0-11.667,2.657-11.667,4.667V62A26.653,26.653,0,0,0,58.267,48.953Zm-31.1-15.287a7.5,7.5,0,1,0-7.5-7.5A7.5,7.5,0,0,0,27.167,33.667ZM47,37a6.667,6.667,0,1,0-6.667-6.667A6.667,6.667,0,0,0,47,37ZM35.333,68.667A33.333,33.333,0,1,1,68.667,35.333,33.333,33.333,0,0,1,35.333,68.667Z" transform="translate(7.167 7.167)" fill="#ff3f01"/>
</svg>
