<svg xmlns="http://www.w3.org/2000/svg" width="165" height="179.608" viewBox="0 0 165 179.608">
  <g id="monitor" transform="translate(-2 -0.583)">
    <g id="Group_591" data-name="Group 591" transform="translate(3.495 0.583)">
      <path id="Path_846" data-name="Path 846" d="M132.913,161.716c-35.666,0-60.158,18.475-77.344,18.475S2.29,170.311,2.29,91.25,50.846.583,69.749.583C158.267.583,196.077,161.716,132.913,161.716Z" transform="translate(-2.29 -0.583)" fill="#efefef"/>
    </g>
    <g id="Group_592" data-name="Group 592" transform="translate(41.316 14.335)">
      <path id="Path_847" data-name="Path 847" d="M9.625,3.25h5.156V13.563H9.625Z" transform="translate(-9.625 -3.25)" fill="#a4afc1"/>
    </g>
    <g id="Group_593" data-name="Group 593" transform="translate(23.27 29.803)">
      <path id="Path_848" data-name="Path 848" d="M6.125,6.25H16.438v5.156H6.125Z" transform="translate(-6.125 -6.25)" fill="#a4afc1"/>
    </g>
    <g id="Group_594" data-name="Group 594" transform="translate(52.918 29.803)">
      <path id="Path_849" data-name="Path 849" d="M11.875,6.25H22.188v5.156H11.875Z" transform="translate(-11.875 -6.25)" fill="#a4afc1"/>
    </g>
    <g id="Group_595" data-name="Group 595" transform="translate(62.586 32.382)">
      <path id="Path_850" data-name="Path 850" d="M57.578,66.047V61.293A10.316,10.316,0,0,0,54.557,54l-7.291-7.291V31.562a25.774,25.774,0,0,0-4.584-14.675L35.664,6.75,28.646,16.887a25.774,25.774,0,0,0-4.584,14.675V46.711L16.772,54a10.316,10.316,0,0,0-3.022,7.291v4.754Z" transform="translate(-13.75 -6.75)" fill="#f3f3f1"/>
    </g>
    <g id="Group_596" data-name="Group 596" transform="translate(26.492 53.007)">
      <path id="Path_851" data-name="Path 851" d="M117.609,10.75H76a25.734,25.734,0,0,1,.361,4.187V30.086l7.291,7.291a10.316,10.316,0,0,1,3.022,7.291v4.754H42.844V44.668a10.316,10.316,0,0,1,3.022-7.291l7.291-7.291V14.937a25.833,25.833,0,0,1,.361-4.187H11.906A5.158,5.158,0,0,0,6.75,15.906V80.359a5.158,5.158,0,0,0,5.156,5.156h105.7a5.158,5.158,0,0,0,5.156-5.156V15.906A5.158,5.158,0,0,0,117.609,10.75Z" transform="translate(-6.75 -10.75)" fill="#ff3d00"/>
    </g>
    <g id="Group_597" data-name="Group 597" transform="translate(26.492 53.007)">
      <path id="Path_852" data-name="Path 852" d="M18.352,80.359V15.906a5.158,5.158,0,0,1,5.156-5.156h-11.6A5.158,5.158,0,0,0,6.75,15.906V80.359a5.158,5.158,0,0,0,5.156,5.156h11.6A5.158,5.158,0,0,1,18.352,80.359Z" transform="translate(-6.75 -10.75)" fill="#ce3200"/>
    </g>
    <g id="Group_598" data-name="Group 598" transform="translate(62.586 32.382)">
      <path id="Path_853" data-name="Path 853" d="M27.729,54l7.291-7.291V31.562A25.774,25.774,0,0,1,39.6,16.887l1.537-2.222L35.664,6.75,28.646,16.887a25.774,25.774,0,0,0-4.584,14.675V46.711L16.772,54a10.316,10.316,0,0,0-3.022,7.291v4.754H24.707V61.293A10.316,10.316,0,0,1,27.729,54Z" transform="translate(-13.75 -6.75)" fill="#d5dbe1"/>
    </g>
    <g id="Group_599" data-name="Group 599" transform="translate(22.625 49.139)">
      <path id="Path_854" data-name="Path 854" d="M120.727,92.5H15.023A9.033,9.033,0,0,1,6,83.477V19.023A9.033,9.033,0,0,1,15.023,10h23.2v7.734h-23.2a1.29,1.29,0,0,0-1.289,1.289V83.477a1.29,1.29,0,0,0,1.289,1.289h105.7a1.29,1.29,0,0,0,1.289-1.289V19.023a1.29,1.29,0,0,0-1.289-1.289h-23.2V10h23.2a9.033,9.033,0,0,1,9.023,9.023V83.477A9.033,9.033,0,0,1,120.727,92.5Z" transform="translate(-6 -10)"/>
    </g>
    <g id="Group_600" data-name="Group 600" transform="translate(80.633 127.772)">
      <path id="Path_855" data-name="Path 855" d="M17.25,25.25h7.734V45.875H17.25Z" transform="translate(-17.25 -25.25)"/>
    </g>
    <g id="Group_601" data-name="Group 601" transform="translate(58.719 144.53)">
      <path id="Path_856" data-name="Path 856" d="M13,28.5H64.563v7.734H13Z" transform="translate(-13 -28.5)"/>
    </g>
    <g id="Group_602" data-name="Group 602" transform="translate(58.719 28.614)">
      <path id="Path_857" data-name="Path 857" d="M60.7,72.951H16.867A3.869,3.869,0,0,1,13,69.084V64.335a14.084,14.084,0,0,1,4.156-10.029l6.157-6.162V34.6a29.6,29.6,0,0,1,5.265-16.876L35.6,7.585a4,4,0,0,1,6.353,0L48.97,17.723A29.5,29.5,0,0,1,54.25,34.6V48.145L60.407,54.3A14.084,14.084,0,0,1,64.563,64.33v4.749A3.87,3.87,0,0,1,60.7,72.951ZM20.734,65.217H56.828v-.882a6.4,6.4,0,0,0-1.887-4.558l-7.291-7.3a3.869,3.869,0,0,1-1.134-2.733V34.6a21.835,21.835,0,0,0-3.9-12.473l-3.836-5.548L34.94,22.121a21.869,21.869,0,0,0-3.893,12.473V49.748a3.851,3.851,0,0,1-1.134,2.733l-7.291,7.291a6.4,6.4,0,0,0-1.887,4.558Z" transform="translate(-13 -6.019)"/>
    </g>
    <g id="Group_603" data-name="Group 603" transform="translate(92.234 91.678)">
      <path id="Path_858" data-name="Path 858" d="M19.5,18.25h7.734V28.563H19.5Z" transform="translate(-19.5 -18.25)"/>
    </g>
    <g id="Group_604" data-name="Group 604" transform="translate(69.031 91.678)">
      <path id="Path_859" data-name="Path 859" d="M15,18.25h7.734V28.563H15Z" transform="translate(-15 -18.25)"/>
    </g>
    <g id="Group_605" data-name="Group 605" transform="translate(2 144.53)">
      <path id="Path_860" data-name="Path 860" d="M2,28.5H167v7.734H2Z" transform="translate(-2 -28.5)"/>
    </g>
  </g>
</svg>
