<svg xmlns="http://www.w3.org/2000/svg" width="273.285" height="196.288" viewBox="0 0 273.285 196.288">
  <g id="_77_marketing" data-name="#77_marketing" transform="translate(-48.22 -38.135)">
    <path id="Path_458" data-name="Path 458" d="M312.619,254.677H60.119a.439.439,0,0,1,0-.877h252.5a.439.439,0,0,1,0,.877Z" transform="translate(-1.406 -26.465)" fill="#d1d3d4"/>
    <rect id="Rectangle_41" data-name="Rectangle 41" width="265.318" height="145.901" rx="12.57" transform="translate(48.676 47.096)" fill="#fff"/>
    <path id="Path_459" data-name="Path 459" d="M302.966,194.644H59.7A11.492,11.492,0,0,1,48.22,183.16V59.314A11.492,11.492,0,0,1,59.7,47.83H302.966A11.492,11.492,0,0,1,314.45,59.314V183.16a11.492,11.492,0,0,1-11.484,11.484ZM59.7,48.734a10.58,10.58,0,0,0-10.571,10.58V183.16A10.58,10.58,0,0,0,59.7,193.688H302.966a10.58,10.58,0,0,0,10.527-10.527V59.314a10.58,10.58,0,0,0-10.528-10.58Z" transform="translate(0 -1.19)" fill="#231f20"/>
    <rect id="Rectangle_42" data-name="Rectangle 42" width="265.318" height="112.696" transform="translate(48.676 63.695)" fill="#fff"/>
    <path id="Path_460" data-name="Path 460" d="M313.994,180.36H48.676a.447.447,0,0,1-.456-.447V67.207a.447.447,0,0,1,.456-.447H313.994a.447.447,0,0,1,.456.447v112.7a.447.447,0,0,1-.456.447Zm-264.862-.877H313.538V67.664H49.132Z" transform="translate(0 -3.513)" fill="#231f20"/>
    <path id="Path_461" data-name="Path 461" d="M239.853,246.628H147.08l10.492-31.968h71.788Z" transform="translate(-12.131 -21.662)" fill="#fff"/>
    <path id="Path_462" data-name="Path 462" d="M239.79,247.021H147.017a.43.43,0,0,1-.36-.193.439.439,0,0,1-.07-.4l10.527-31.968a.456.456,0,0,1,.43-.316h71.788a.456.456,0,0,1,.43.316l10.527,31.968a.439.439,0,0,1-.07.4.43.43,0,0,1-.43.193Zm-92.115-.877h91.483l-10.185-31.056H157.834Z" transform="translate(-12.068 -21.598)" fill="#231f20"/>
    <rect id="Rectangle_43" data-name="Rectangle 43" width="117.091" height="9.001" rx="4.5" transform="translate(122.789 224.966)" fill="#fff"/>
    <path id="Path_463" data-name="Path 463" d="M245.747,260.493H137.657a4.957,4.957,0,0,1,0-9.913h108.09a4.957,4.957,0,0,1,0,9.913Zm-108.09-9a4.044,4.044,0,0,0,0,8.089h108.09a4.044,4.044,0,0,0,0-8.089Z" transform="translate(-10.367 -26.07)" fill="#231f20"/>
    <path id="Path_464" data-name="Path 464" d="M150.62,238.154c1.5-.79,81.807-15.467,81.807-15.467L229.8,214.66H157.972Z" transform="translate(-12.566 -21.662)" fill="#231f20"/>
    <path id="Path_465" data-name="Path 465" d="M150.577,238.522a.456.456,0,0,1-.3-.105.447.447,0,0,1-.132-.456l7.378-23.494a.439.439,0,0,1,.421-.307h71.788a.447.447,0,0,1,.421.3l2.632,8.027a.43.43,0,0,1,0,.36.439.439,0,0,1-.3.211c-27.538,5.036-80.061,14.738-81.693,15.431A.4.4,0,0,1,150.577,238.522Zm7.685-23.485-7.018,22.432c8.211-1.939,70.893-13.414,80.579-15.186l-2.377-7.246Z" transform="translate(-12.506 -21.601)" fill="#231f20"/>
    <path id="Path_466" data-name="Path 466" d="M229.647,91.653s-52.33-12.826-68.586,0-32.74,27.108-32.74,27.108L141.3,144.079l20.072-16.519L152.6,171.319l68.9,1,3.886-39.741s7.106,23.608,14.773,24.564,20.879-9.422,13.651-26.319S229.647,91.653,229.647,91.653Z" transform="translate(-9.829 -5.868)" fill="#ff3d00"/>
    <path id="Path_467" data-name="Path 467" d="M285.731,123.782a8.282,8.282,0,0,1,.877,4.386,12,12,0,0,1-1.307,4.079c-3.369,7.378-6.746,14.747-10.527,21.932-2.228,4.237-6.027,9.106-11.247,9.58-4.509.421-12.115-3.834-13.159-8.422-1.386-6.141,6.676-13.414,10.071-17.879,4.562-5.992,9.1-12.449,14.361-17.853,2.886-2.956,3.86-3.237,7.08-.439A15.589,15.589,0,0,1,285.731,123.782Z" transform="translate(-24.787 -9.705)" fill="#fff"/>
    <path id="Path_468" data-name="Path 468" d="M262.752,164.19c-5.509,0-11.949-4.9-12.826-8.773-1.149-5.088,3.685-10.668,7.562-15.151.974-1.123,1.886-2.184,2.588-3.106.877-1.184,1.807-2.395,2.72-3.606a143.174,143.174,0,0,1,11.677-14.291c3.018-3.1,4.237-3.509,7.7-.465a15.791,15.791,0,0,1,3.9,4.755,8.826,8.826,0,0,1,.965,4.632,12.765,12.765,0,0,1-1.351,4.237c-3.316,7.264-6.746,14.765-10.527,21.932-1.807,3.439-5.72,9.282-11.615,9.826Q263.151,164.205,262.752,164.19ZM278.4,117.623c-.965,0-1.842.763-3.281,2.237a142.123,142.123,0,0,0-11.606,14.2l-2.72,3.614c-.719.939-1.641,2.009-2.632,3.141-3.746,4.334-8.413,9.729-7.369,14.361.965,4.281,8.387,8.457,12.668,8.071,5.466-.5,9.168-6.071,10.9-9.343,3.764-7.159,7.185-14.651,10.527-21.932a11.773,11.773,0,0,0,1.272-3.939,7.9,7.9,0,0,0-.877-4.158h0A14.713,14.713,0,0,0,281.6,119.4C280.157,118.211,279.245,117.623,278.4,117.623Z" transform="translate(-24.731 -9.643)" fill="#231f20"/>
    <path id="Path_469" data-name="Path 469" d="M262.48,108.446,276.1,134.835a4.286,4.286,0,0,0,5.878,2.123l6.4-3.579a5.553,5.553,0,0,0,2.027-7.018l-8.773-20.178,4.711-5.843S264.27,107.139,262.48,108.446Z" transform="translate(-26.293 -7.633)" fill="#fff"/>
    <path id="Path_470" data-name="Path 470" d="M279.969,137.849a4.7,4.7,0,0,1-1.3-.193,5.264,5.264,0,0,1-3.071-2.676L261.993,108.6a.465.465,0,0,1,.14-.579c1.755-1.307,21.765-7.422,24.038-8.115a.43.43,0,0,1,.5.175.447.447,0,0,1,0,.535l-4.5,5.632,8.668,19.923a5.991,5.991,0,0,1-2.228,7.571l-6.466,3.553a4.386,4.386,0,0,1-2.176.553ZM263.02,108.566l13.387,26a4.308,4.308,0,0,0,2.527,2.22,3.509,3.509,0,0,0,2.737-.29l6.466-3.509a5.081,5.081,0,0,0,1.825-6.422l-8.773-20.178a.465.465,0,0,1,.061-.465l3.79-4.693c-6.518,1.974-19.537,6.071-22.02,7.334Z" transform="translate(-26.227 -7.577)" fill="#231f20"/>
    <path id="Path_471" data-name="Path 471" d="M250.9,82l-6.2,1.974s-2.632,17.107,9.062,23.257l5.992-2.114Z" transform="translate(-24.079 -5.383)" fill="#231f20"/>
    <path id="Path_472" data-name="Path 472" d="M253.7,107.64a.4.4,0,0,1-.2-.053c-11.8-6.22-9.317-23.529-9.29-23.687a.439.439,0,0,1,.3-.351l6.2-1.983a.43.43,0,0,1,.535.263l8.861,23.125a.43.43,0,0,1-.263.561l-5.992,2.114a.412.412,0,0,1-.149.009Zm-8.668-23.362c-.254,2.167-1.57,16.861,8.711,22.45l5.387-1.9-8.554-22.318Z" transform="translate(-24.021 -5.327)" fill="#231f20"/>
    <path id="Path_473" data-name="Path 473" d="M320.163,40.34s-8.992,12.431-27.4,20.7C276.816,68.194,250.173,75.2,250.173,75.2s-5.913,17.16,8.571,27.2c0,0,24.634-6.659,35.881-8.58,14.466-2.474,43.294,4.386,43.294,4.386Z" transform="translate(-24.636 -0.271)" fill="#fff"/>
    <path id="Path_474" data-name="Path 474" d="M258.686,102.8a.465.465,0,0,1-.254-.088c-14.607-10.115-8.773-27.547-8.773-27.722a.456.456,0,0,1,.316-.29c.263-.07,26.792-7.08,42.522-14.142,18.081-8.124,27.126-20.423,27.2-20.546a.465.465,0,0,1,.447-.184.456.456,0,0,1,.36.316l17.748,57.822a.465.465,0,0,1-.1.447.482.482,0,0,1-.439.132c-.29-.07-28.9-6.764-43.11-4.334-11.1,1.895-35.592,8.5-35.837,8.571Zm-8.211-27.292c-.614,2.035-4.641,17.221,8.3,26.319,2.4-.649,25.117-6.72,35.723-8.536,13.063-2.237,38.013,3.114,42.7,4.167L319.93,41.242a75.447,75.447,0,0,1-27.038,20.178C277.89,68.113,253.186,74.789,250.475,75.508Z" transform="translate(-24.578 -0.207)" fill="#231f20"/>
    <path id="Path_475" data-name="Path 475" d="M349.013,97.73C344,99.2,337.494,92.861,332.555,82.624a71.887,71.887,0,0,1-4.123-10.852A69.6,69.6,0,0,1,326.107,60.7c-1.439-11.4.623-20.4,5.676-21.88,6.606-1.93,15.791,9.65,20.572,25.95S355.619,95.818,349.013,97.73Z" transform="translate(-34.046 -0.058)" fill="#231f20"/>
    <path id="Path_476" data-name="Path 476" d="M347.486,98.339c-4.843,0-10.694-5.843-15.379-15.554a71.936,71.936,0,0,1-4.158-10.922,70.764,70.764,0,0,1-2.342-11.142c-1.518-12.071.833-20.844,5.992-22.353,6.948-2.035,16.221,9.51,21.116,26.248,4.825,16.467,3.193,31.495-3.641,33.5h0a5.641,5.641,0,0,1-1.588.219Zm1.465-.64Zm-15.712-58.69a4.922,4.922,0,0,0-1.395.2c-4.65,1.36-6.808,9.957-5.369,21.4a68.9,68.9,0,0,0,2.316,11.01,71.062,71.062,0,0,0,4.123,10.791c4.939,10.238,11.352,16.212,15.94,14.914h0c6.369-1.869,7.738-16.405,3.044-32.416-4.369-14.905-12.431-25.9-18.66-25.9Z" transform="translate(-33.983)" fill="#231f20"/>
    <path id="Path_477" data-name="Path 477" d="M250.173,78.821s-5.913,17.16,8.571,27.2c0,0,16.581-4.483,28.74-7.15-2.483-2.527-5.527-7.1-7.018-15.089a49.128,49.128,0,0,1-.877-13.958C265.262,74.847,250.173,78.821,250.173,78.821Z" transform="translate(-24.636 -3.888)" fill="#fff"/>
    <path id="Path_478" data-name="Path 478" d="M258.686,106.42a.465.465,0,0,1-.254-.088c-14.607-10.115-8.773-27.547-8.773-27.722a.456.456,0,0,1,.316-.29c.149,0,15.238-4.027,29.328-8.975a.447.447,0,0,1,.43.07.456.456,0,0,1,.167.395,48.891,48.891,0,0,0,.877,13.826c1.535,8.018,4.615,12.51,6.931,14.861a.465.465,0,0,1,.114.447.439.439,0,0,1-.333.307c-12.019,2.632-28.556,7.106-28.722,7.15Zm-8.211-27.292c-.614,2.035-4.641,17.221,8.3,26.319,1.9-.509,16.554-4.386,27.784-6.931-2.325-2.57-5.167-7.115-6.632-14.738A51.27,51.27,0,0,1,278.96,70.4C266.012,74.943,252.449,78.61,250.475,79.128Z" transform="translate(-24.578 -3.827)" fill="#231f20"/>
    <path id="Path_479" data-name="Path 479" d="M341.411,82.165l-8.773,3.4a71.88,71.88,0,0,1-4.123-10.852,69.6,69.6,0,0,1-2.325-11.071l9.484-1.307Z" transform="translate(-34.111 -2.969)" fill="#fff"/>
    <path id="Path_480" data-name="Path 480" d="M332.554,85.953a.456.456,0,0,1-.4-.254,72.812,72.812,0,0,1-4.158-10.922,70.859,70.859,0,0,1-2.342-11.15.456.456,0,0,1,.395-.5l9.483-1.307a.447.447,0,0,1,.5.325l5.72,19.827a.465.465,0,0,1-.272.553l-8.773,3.4A.36.36,0,0,1,332.554,85.953ZM326.606,63.96a70.482,70.482,0,0,0,2.255,10.527,71.577,71.577,0,0,0,3.922,10.4l8.01-3.1-5.527-19.063Z" transform="translate(-34.044 -2.906)" fill="#231f20"/>
    <ellipse id="Ellipse_18" data-name="Ellipse 18" cx="3.027" cy="10.326" rx="3.027" ry="10.326" transform="translate(298.641 60.227) rotate(-16.19)" fill="#fff"/>
    <path id="Path_481" data-name="Path 481" d="M342.249,82.589c-.877,0-1.948-.877-3.018-2.562a27.583,27.583,0,0,1-2.948-6.878c-1.456-5.018-1.834-10.694.342-11.317,1-.3,2.176.57,3.4,2.491a27.662,27.662,0,0,1,2.939,6.887c1.456,5.018,1.834,10.685-.333,11.317a1.474,1.474,0,0,1-.386.061Zm-5.264-19.906a.36.36,0,0,0-.14,0c-1.026.3-1.421,4.325.29,10.194a26.556,26.556,0,0,0,2.86,6.641c1.114,1.755,1.965,2.237,2.386,2.114,1.035-.3,1.421-4.325-.281-10.194h0a26.416,26.416,0,0,0-2.834-6.65c-1.009-1.553-1.8-2.105-2.255-2.105Z" transform="translate(-35.203 -2.901)" fill="#231f20"/>
    <path id="Path_482" data-name="Path 482" d="M281.452,112.939a4.992,4.992,0,0,0-2.86,1c-.754.7-.877,2.141,0,2.632a2.246,2.246,0,0,0,.93.237,13.159,13.159,0,0,0,4.027-.228,7.6,7.6,0,0,0-2.886,2.377,1.053,1.053,0,0,0-.263.711c.061.491.667.667,1.149.684a8.22,8.22,0,0,0,3.588-.64,5.1,5.1,0,0,0-2.088.983c-1.588,1.465-.14,2.632,1.263,2.5,2.377-.254,7.132,2.342,7.132,2.342s1.246-2.544,1.149-3.834a19.575,19.575,0,0,0-.921-3.983c-.728-2.535-1.658-5.439-3.448-7.448-2.632-2.948-11.01-2.93-11.045,2.158a10.431,10.431,0,0,0,4.272.509Z" transform="translate(-28.097 -8.608)" fill="#fff"/>
    <path id="Path_483" data-name="Path 483" d="M291.386,125.953a.412.412,0,0,1-.219-.061c-.044,0-4.658-2.518-6.869-2.29a2.281,2.281,0,0,1-2.325-1.1,1.641,1.641,0,0,1,.307-1.755h-.807c-.877,0-1.509-.456-1.579-1.079a1.421,1.421,0,0,1,.351-1.035,7.781,7.781,0,0,1,1.29-1.395,13.1,13.1,0,0,1-2.114,0,2.571,2.571,0,0,1-1.114-.29,1.755,1.755,0,0,1-.877-1.333,2.535,2.535,0,0,1,.737-2.044,4.551,4.551,0,0,1,.4-.316,8.247,8.247,0,0,1-1.649-.421.447.447,0,0,1-.289-.43,4.264,4.264,0,0,1,3.053-4.088c2.913-1.105,7.018-.333,8.773,1.632s2.8,5.027,3.509,7.632l.158.544a17.827,17.827,0,0,1,.781,3.509,10.882,10.882,0,0,1-1.2,4.071.447.447,0,0,1-.263.228.4.4,0,0,1-.053.018Zm-6.8-3.272c2.123,0,5.413,1.588,6.588,2.193a9.1,9.1,0,0,0,.877-3.185,16.127,16.127,0,0,0-.746-3.325l-.158-.561c-.719-2.509-1.641-5.343-3.36-7.273-1.509-1.693-5.211-2.36-7.773-1.395a3.448,3.448,0,0,0-2.456,2.939,10.317,10.317,0,0,0,3.764.351.456.456,0,0,1,.079.877,4.579,4.579,0,0,0-2.632.877,1.57,1.57,0,0,0-.456,1.272.816.816,0,0,0,.386.649,1.755,1.755,0,0,0,.746.184,12.914,12.914,0,0,0,3.9-.219.461.461,0,1,1,.281.877,7.018,7.018,0,0,0-2.711,2.228c-.053.07-.2.281-.184.395s.342.272.728.29a7.948,7.948,0,0,0,2.316-.246,9.958,9.958,0,0,1,1.114-.386.474.474,0,0,1,.562.281.456.456,0,0,1-.254.57,8.644,8.644,0,0,1-1.132.395,2.824,2.824,0,0,0-.825.509c-.263.246-.684.728-.5,1.14a1.421,1.421,0,0,0,1.4.579,2.763,2.763,0,0,1,.447-.018Z" transform="translate(-28.029 -8.55)" fill="#231f20"/>
    <path id="Path_484" data-name="Path 484" d="M218.192,105.8l-16.484,41L196.69,99.78Z" transform="translate(-18.219 -7.565)" fill="#231f20"/>
    <path id="Path_485" data-name="Path 485" d="M201.646,147.171h-.061a.447.447,0,0,1-.377-.386L196.19,99.762a.439.439,0,0,1,.158-.377.412.412,0,0,1,.395-.088l21.511,6.018a.439.439,0,0,1,.272.228.465.465,0,0,1,0,.36l-16.493,41A.439.439,0,0,1,201.646,147.171Zm-4.518-46.865,4.764,44.645,15.651-38.9Z" transform="translate(-18.158 -7.503)" fill="#231f20"/>
    <path id="Path_486" data-name="Path 486" d="M199.948,43.688a5.176,5.176,0,0,1,5.194,2.632,4.816,4.816,0,0,1,2.7-4.071,12.282,12.282,0,0,1,4.965-1.167,19.976,19.976,0,0,1,7.115.483c5.957,1.755,9.606,7.825,11.4,13.773.947,3.167,1.676,7.545-.29,10.527-1.807,2.746-7.018,4.623-9.94,5.922-4.229,1.86-8.773,3.2-13.414,2.886-12.2-.825-18.467-13.335-14.642-24.327.877-2.579,2.535-5.071,5.036-6.141a5.781,5.781,0,0,1,1.869-.518Z" transform="translate(-17.635 -0.346)" fill="#fff"/>
    <path id="Path_487" data-name="Path 487" d="M208.949,75.078h-1.377a16.668,16.668,0,0,1-13.01-7.58,19.835,19.835,0,0,1-1.983-17.37c1.088-3.132,2.965-5.422,5.264-6.439a6.536,6.536,0,0,1,2.035-.5h0a5.887,5.887,0,0,1,4.948,1.86,5.641,5.641,0,0,1,2.763-3.246,12.554,12.554,0,0,1,5.141-1.219,20.642,20.642,0,0,1,7.281.5c5.211,1.553,9.466,6.676,11.677,14.037.974,3.255,1.7,7.79-.342,10.878-1.641,2.483-5.79,4.237-8.826,5.518l-1.307.561A30.547,30.547,0,0,1,208.949,75.078Zm-9.027-31.012a5.316,5.316,0,0,0-1.755.43c-2.816,1.237-4.22,4.237-4.8,5.913a18.932,18.932,0,0,0,1.886,16.607,15.791,15.791,0,0,0,12.37,7.141c3.921.272,8.246-.667,13.212-2.842.4-.184.877-.368,1.325-.57,2.921-1.237,6.931-2.93,8.431-5.194,1.851-2.807,1.149-7.071.228-10.15-1.009-3.36-4.1-11.4-11.089-13.475a19.581,19.581,0,0,0-6.966-.465,11.817,11.817,0,0,0-4.781,1.114,4.386,4.386,0,0,0-2.474,3.676.439.439,0,0,1-.833.193,4.782,4.782,0,0,0-4.764-2.377Z" transform="translate(-17.573 -0.285)" fill="#231f20"/>
    <path id="Path_488" data-name="Path 488" d="M217.66,87.2l.535,12.922s-5.2,7.308-13.159,3.93S196.71,94.1,196.71,94.1l2.562-24.634s6.7-2.263,7.1-15.94A41.706,41.706,0,0,0,227.424,60.1s1.386,15.124-.632,21.388S217.66,87.2,217.66,87.2Z" transform="translate(-18.222 -1.889)" fill="#fff"/>
    <path id="Path_489" data-name="Path 489" d="M209.112,105.321a11.177,11.177,0,0,1-4.334-.877c-8.132-3.448-8.571-10.054-8.589-10.334l2.562-24.7a.439.439,0,0,1,.3-.368c.061,0,6.413-2.386,6.8-15.537a.471.471,0,0,1,.693-.377,41.627,41.627,0,0,0,20.844,6.483.439.439,0,0,1,.421.395c.061.623,1.36,15.291-.711,21.572-1.816,5.527-7.352,6-9.045,6.018l.518,12.457a.386.386,0,0,1-.079.272C218.447,100.382,214.85,105.321,209.112,105.321Zm-9.519-35.6-2.527,24.371c0,.184.447,6.273,8.053,9.5,7.1,3,11.852-2.72,12.572-3.658l-.535-12.773a.474.474,0,0,1,.132-.333.456.456,0,0,1,.342-.123c.281,0,6.7.447,8.632-5.4,1.834-5.562.877-18.423.7-20.836A43.163,43.163,0,0,1,206.7,54.272C206.13,66.054,200.875,69.142,199.594,69.721Z" transform="translate(-18.158 -1.833)" fill="#231f20"/>
    <path id="Path_490" data-name="Path 490" d="M202.386,77.513a6.711,6.711,0,0,1-5.088-.728,7.229,7.229,0,0,1-3.3-6.237,6.141,6.141,0,0,1,.456-2.632,3.2,3.2,0,0,1,1.956-1.755,5.15,5.15,0,0,1,3.2.518c1.518.6,1.614,1.43,2.562,2.57-.105-.105-.2-.412-.3-.518" transform="translate(-17.888 -3.431)" fill="#fff"/>
    <path id="Path_491" data-name="Path 491" d="M200.667,78.088a7.159,7.159,0,0,1-3.65-1,7.624,7.624,0,0,1-3.509-6.606,6.466,6.466,0,0,1,.5-2.869,3.658,3.658,0,0,1,2.237-2.035,5.571,5.571,0,0,1,3.509.535,3.921,3.921,0,0,1,2.079,1.816l.167.246a.4.4,0,0,1,.149.1,1.3,1.3,0,0,1,.237.377,1.044,1.044,0,0,0,.07.14h0a.453.453,0,1,1-.623.658l-.07-.079c-.272-.333-.474-.632-.658-.877A3.123,3.123,0,0,0,199.413,67a4.746,4.746,0,0,0-2.913-.5,2.763,2.763,0,0,0-1.684,1.483,5.614,5.614,0,0,0-.421,2.483,6.773,6.773,0,0,0,3.053,5.869,6.352,6.352,0,0,0,4.755.684.452.452,0,0,1,.219.877A7.106,7.106,0,0,1,200.667,78.088Z" transform="translate(-17.828 -3.357)" fill="#231f20"/>
    <path id="Path_492" data-name="Path 492" d="M219.512,98.147a9.089,9.089,0,0,1-7.606-3.728c-3.071-4.132-2.3-7.018-2.3-7.018s4,4.176,9.65,3.983Z" transform="translate(-19.794 -6.045)" fill="#231f20"/>
    <path id="Path_493" data-name="Path 493" d="M219.092,98.537a9.536,9.536,0,0,1-7.6-3.921c-3.158-4.255-2.4-7.29-2.369-7.413a.43.43,0,0,1,.307-.316.456.456,0,0,1,.447.1s3.939,3.992,9.29,3.843a.412.412,0,0,1,.456.421l.281,6.79a.439.439,0,0,1-.395.456A2.126,2.126,0,0,1,219.092,98.537Zm-9.212-10.3a10.124,10.124,0,0,0,2.3,5.86,8.676,8.676,0,0,0,6.8,3.562l-.246-5.93a14.186,14.186,0,0,1-8.852-3.492Z" transform="translate(-19.733 -5.98)" fill="#231f20"/>
    <path id="Path_494" data-name="Path 494" d="M219.178,68.53s3.509,7.088,2.342,8.089-4-.123-4-.123" transform="translate(-20.775 -3.73)" fill="#fff"/>
    <path id="Path_495" data-name="Path 495" d="M220.014,77.412a8,8,0,0,1-2.72-.579.439.439,0,1,1,.325-.807c.711.281,2.746.877,3.509.193.491-.412-.658-3.948-2.456-7.562a.439.439,0,1,1,.781-.395c1.114,2.228,3.509,7.527,2.237,8.624A2.579,2.579,0,0,1,220.014,77.412Z" transform="translate(-20.707 -3.664)" fill="#231f20"/>
    <ellipse id="Ellipse_19" data-name="Ellipse 19" cx="1.535" cy="1.088" rx="1.535" ry="1.088" transform="translate(191.817 64.933) rotate(-77.77)" fill="#231f20"/>
    <ellipse id="Ellipse_20" data-name="Ellipse 20" cx="1.088" cy="1.535" rx="1.088" ry="1.535" transform="matrix(0.996, -0.086, 0.086, 0.996, 202.198, 63.583)" fill="#231f20"/>
    <path id="Path_496" data-name="Path 496" d="M219,87.774a4.544,4.544,0,0,1-.877-.088,6.185,6.185,0,0,1-4.325-3.29,9.729,9.729,0,0,1-1.044-4.386h0a.43.43,0,0,1,.149-.333c.193-.167.272-.246,10.168.877a.439.439,0,0,1,.386.412c0,.158.219,4-1.965,5.957a3.755,3.755,0,0,1-2.492.851Zm-5.369-7.343a8.466,8.466,0,0,0,.93,3.509,5.334,5.334,0,0,0,3.676,2.886,3.15,3.15,0,0,0,2.632-.544c1.526-1.36,1.693-3.939,1.693-4.886-3.07-.36-7.553-.86-8.931-.965Z" transform="translate(-20.19 -5.086)" fill="#231f20"/>
    <path id="Path_497" data-name="Path 497" d="M214.36,84.742c1.755,3.316,5.448,3.79,7.018,2.421a4.539,4.539,0,0,0-2.676-2.956,6.316,6.316,0,0,0-4.343.535Z" transform="translate(-20.388 -5.633)" fill="#231f20"/>
    <path id="Path_498" data-name="Path 498" d="M219.148,88.252a5.317,5.317,0,0,1-.877-.079,6.194,6.194,0,0,1-4.316-3.29.421.421,0,0,1,0-.342.439.439,0,0,1,.228-.254,6.825,6.825,0,0,1,4.623-.561c1.263.342,2.263,1.43,2.965,3.22a.421.421,0,0,1-.114.483,3.72,3.72,0,0,1-2.509.825Zm-4.211-3.369a5.211,5.211,0,0,0,3.439,2.43,3.316,3.316,0,0,0,2.369-.351,3.781,3.781,0,0,0-2.255-2.395A5.711,5.711,0,0,0,214.937,84.883Z" transform="translate(-20.333 -5.573)" fill="#231f20"/>
    <path id="Path_499" data-name="Path 499" d="M136.241,143.349s-9.712,4.29-18.423-1.974S87.06,85.264,87.06,85.264L96.587,80l26.669,38Z" transform="translate(-4.766 -5.137)" fill="#fff"/>
    <path id="Path_500" data-name="Path 500" d="M128.5,145.154a18.563,18.563,0,0,1-11.01-3.509c-8.711-6.255-30-54.3-30.907-56.339a.456.456,0,0,1,.193-.579l9.527-5.194a.456.456,0,0,1,.588.14l26.67,38L136.581,143.1a.465.465,0,0,1,0,.36.4.4,0,0,1-.237.254A21.59,21.59,0,0,1,128.5,145.154Zm-40.925-59.8c2.07,4.632,22.327,49.76,30.442,55.585,7.343,5.264,15.546,2.825,17.546,2.105l-12.756-24.871L96.384,80.559Z" transform="translate(-4.703 -5.073)" fill="#231f20"/>
    <path id="Path_501" data-name="Path 501" d="M97.927,82.39a86.053,86.053,0,0,0,1.132-17.247c0-1.184-.614-2.781-1.755-2.535-.6.132-.956.746-1.2,1.307a20.879,20.879,0,0,0-1.755,8.536q-1.684-4.237-3.281-8.457c-.333-.877-2.351-7.518-3.351-4.606-.474,1.351.158,3.457.325,4.834q.342,2.8.877,5.588c-.211-1.316-2.2-10.966-3.992-9.65-1.491,1.132-.2,3.737.079,5.15.4,2.027.518,4.518,1.29,6.439-.991-2.36-2.07-4.676-3.264-6.931-.3-.579-1.035-2.632-1.676-2.86s-1.43.825-1.5,1.439c-.149,1.342.816,3.579,1.158,4.913.456,1.755,1.079,3.509,1.7,5.264-.509-1.43-1.755-2.684-2.456-4-.605-1.079-1.035-2.632-2.211-3.281a1.448,1.448,0,0,0-2.07.676,2.018,2.018,0,0,0,.193,1.193,78.7,78.7,0,0,0,14.037,23.5" transform="translate(-3.404 -2.518)" fill="#fff"/>
    <path id="Path_502" data-name="Path 502" d="M90.075,92.1a.491.491,0,0,1-.342-.149A78.631,78.631,0,0,1,75.7,68.315a2.439,2.439,0,0,1-.211-1.465,1.518,1.518,0,0,1,.877-1.026,2.158,2.158,0,0,1,1.834.053,5.158,5.158,0,0,1,1.974,2.632c.14.307.272.6.421.877a6.469,6.469,0,0,0,.342.57c-.149-.5-.29-1.009-.421-1.509-.1-.368-.237-.807-.395-1.272a10.361,10.361,0,0,1-.807-3.9,2.465,2.465,0,0,1,1.009-1.588,1.272,1.272,0,0,1,1.062-.167c.64.175,1.132,1.193,1.693,2.5.105.237.193.447.263.579.509.965.991,1.939,1.465,2.93v-.061c-.105-.737-.2-1.43-.333-2.079a9.466,9.466,0,0,0-.272-1.018c-.447-1.483-1.053-3.509.368-4.579a.974.974,0,0,1,1.018-.175,4.036,4.036,0,0,1,1.57,2.176,5.8,5.8,0,0,1,.1-2.632c.237-.693.588-1.035,1.044-1.035h0c.877,0,1.693,1.377,2.983,5.106.079.237.14.421.184.518.816,2.114,1.623,4.255,2.4,6.387a21.493,21.493,0,0,1,1.755-6.483A2.36,2.36,0,0,1,97.146,62.1a1.439,1.439,0,0,1,1.228.281A3.764,3.764,0,0,1,99.4,65.034a85.728,85.728,0,0,1-1.132,17.344.439.439,0,0,1-.518.368.447.447,0,0,1-.368-.526A85.1,85.1,0,0,0,98.5,65.069a2.965,2.965,0,0,0-.728-2,.553.553,0,0,0-.491-.105c-.412.079-.693.605-.877,1.044a20.616,20.616,0,0,0-1.755,8.352.456.456,0,0,1-.377.447.447.447,0,0,1-.509-.29c-1.018-2.807-2.079-5.658-3.167-8.448a2.793,2.793,0,0,0-.193-.553c-1.263-3.685-1.869-4.386-2.123-4.5a3.168,3.168,0,0,0-.193.421,7.808,7.808,0,0,0,.132,3.474c.079.43.149.877.193,1.193.228,1.825.5,3.676.825,5.483a.561.561,0,0,0,0,.079h0a.456.456,0,0,1-.877.149,3.189,3.189,0,0,0-.114-.632c-.526-2.807-1.974-8.308-3.035-8.729h-.114c-.877.693-.439,2.307-.053,3.6.114.4.228.781.29,1.1.14.684.237,1.386.342,2.132a19.3,19.3,0,0,0,.877,4.229.471.471,0,1,1-.877.342c-.974-2.325-2.062-4.65-3.237-6.887-.079-.14-.175-.377-.3-.64-.219-.509-.8-1.86-1.114-1.991a.36.36,0,0,0-.325.079,1.588,1.588,0,0,0-.6.974,10.29,10.29,0,0,0,.737,3.421c.158.483.307.939.412,1.325.465,1.834,1.123,3.641,1.693,5.264h0a.465.465,0,0,1-.877.307h0a10.9,10.9,0,0,0-1.4-2.377,17.546,17.546,0,0,1-1.026-1.553c-.158-.281-.307-.605-.456-.93a4.448,4.448,0,0,0-1.57-2.176,1.272,1.272,0,0,0-1.044,0,.658.658,0,0,0-.377.412,1.754,1.754,0,0,0,.175.93A77.675,77.675,0,0,0,90.417,91.353a.447.447,0,0,1-.044.64.474.474,0,0,1-.3.105Z" transform="translate(-3.342 -2.454)" fill="#231f20"/>
    <path id="Path_503" data-name="Path 503" d="M91.6,84.925a.447.447,0,0,1-.43-.325c-1.948-6.887,4.606-10.615,4.676-10.677a.456.456,0,0,1,.439.8c-.246.132-6.027,3.439-4.246,9.65a.456.456,0,0,1-.307.561Z" transform="translate(-5.226 -4.386)" fill="#231f20"/>
    <path id="Path_504" data-name="Path 504" d="M155.418,183.26l-3.728,10.949h72.631V184.26Z" transform="translate(-12.697 -17.809)" fill="#fff"/>
    <path id="Path_505" data-name="Path 505" d="M224.258,194.593H151.627a.474.474,0,0,1-.368-.184.456.456,0,0,1-.053-.412l3.72-10.94a.412.412,0,0,1,.439-.307l68.9.991a.465.465,0,0,1,.447.456v9.948a.456.456,0,0,1-.456.447Zm-72-.877h71.578v-9.071l-68.121-.991Z" transform="translate(-12.635 -17.746)" fill="#231f20"/>
    <path id="Path_506" data-name="Path 506" d="M235.882,162.119h0a.439.439,0,0,1-.412-.491l4.114-47.856a.439.439,0,0,1,.491-.412.447.447,0,0,1,.412.482l-4.114,47.865A.456.456,0,0,1,235.882,162.119Z" transform="translate(-22.978 -9.231)" fill="#231f20"/>
    <path id="Path_507" data-name="Path 507" d="M149.016,145.317a.465.465,0,0,1-.36-.167.447.447,0,0,1,.07-.632l20.809-16.958a.456.456,0,0,1,.57.7L149.3,145.22a.439.439,0,0,1-.281.1Z" transform="translate(-12.313 -10.966)" fill="#231f20"/>
    <path id="Path_508" data-name="Path 508" d="M71.38,156.7h1.544a.928.928,0,0,0,.167.053,12.765,12.765,0,0,1,6.483,2.193,13.282,13.282,0,0,1,6.08,12.8,12.7,12.7,0,0,1-3.7,7.983A13.317,13.317,0,0,1,70.7,183.852a12.738,12.738,0,0,1-6.08-2.184,13.458,13.458,0,0,1-5.948-9.378c-.061-.395-.105-.79-.158-1.176V169.57l.053-.29c.079-.57.123-1.158.246-1.755a13.607,13.607,0,0,1,11.4-10.694C70.573,156.8,70.976,156.753,71.38,156.7ZM82.1,177.9a12.44,12.44,0,0,0,2.535-7.018h-5.4c-.088.965-.14,1.921-.272,2.869s-.316,1.869-.483,2.763Zm-22.476-7.018A12.44,12.44,0,0,0,62.16,177.9l3.65-1.421a24.257,24.257,0,0,1-.746-5.615Zm24.994-1.1c.105-2.009-1.351-5.983-2.535-7.018l-3.632,1.4a24.95,24.95,0,0,1,.754,5.615Zm-18.809-5.606-3.632-1.412c-1.316,1.386-2.763,5.36-2.518,7.018h5.422a24.249,24.249,0,0,1,.728-5.623Zm6.869,11.58c.8.061,1.579.105,2.351.193s1.553.219,2.342.342a.313.313,0,0,1,.061-.219,22.809,22.809,0,0,0,.667-4.93c0-.228-.053-.281-.272-.281h-5.15Zm-6.518-4.887a22.09,22.09,0,0,0,.676,5.387l4.693-.535v-4.843Zm11.949-1.1a22.485,22.485,0,0,0-.719-5.351l-4.711.535v4.816Zm-11.273-5.369a22.221,22.221,0,0,0-.711,5.351h5.448v-4.816Zm10.185-1.123a12.537,12.537,0,0,0-1.605-3.325,5.536,5.536,0,0,0-1.834-1.755c-.29-.158-.605-.254-.939-.395v5.957a23.686,23.686,0,0,0,4.413-.483Zm-4.386,13.58v5.9a3.509,3.509,0,0,0,1.755-.877,9.361,9.361,0,0,0,2.29-3.509c.123-.307.237-.623.36-.965a23.161,23.161,0,0,0-4.351-.544Zm-1.114,5.913V176.86a23.539,23.539,0,0,0-4.386.509c.254.623.483,1.228.754,1.807a8.045,8.045,0,0,0,1.991,2.755,3.623,3.623,0,0,0,1.693.851Zm-4.43-19.511a23.423,23.423,0,0,0,4.43.509V157.84a3.071,3.071,0,0,0-1.246.544,6.685,6.685,0,0,0-2.088,2.474c-.342.79-.667,1.6-1.044,2.413Zm14.186,15.546a15.283,15.283,0,0,0-3.185-1.2,12.747,12.747,0,0,1-2.632,4.772,12.545,12.545,0,0,0,5.869-3.571Zm-12.51-20.511c-1.36.053-5.115,2.351-5.825,3.6l3.114,1.2c.395-.877.737-1.755,1.132-2.535a8.931,8.931,0,0,1,1.579-2.263Zm-5.834,20.511a12.642,12.642,0,0,0,5.887,3.588,12.414,12.414,0,0,1-2.685-4.8,15.206,15.206,0,0,0-3.2,1.211Zm12.615-20.5a9.852,9.852,0,0,1,1.526,2.228c.386.816.737,1.641,1.105,2.483a14.7,14.7,0,0,0,3.149-1.2,12.176,12.176,0,0,0-5.781-3.509Z" transform="translate(-1.263 -14.55)" fill="#d1d3d4"/>
    <path id="Path_509" data-name="Path 509" d="M306.723,187.6H274.369a.439.439,0,0,1-.439-.439V169.339a.447.447,0,0,1,.439-.439h32.354a.439.439,0,0,1,.439.439v17.826A.439.439,0,0,1,306.723,187.6Zm-31.916-.877h31.477V169.777H274.807Z" transform="translate(-27.698 -16.047)" fill="#d1d3d4"/>
    <path id="Path_510" data-name="Path 510" d="M290.553,180.9a.412.412,0,0,1-.246-.079L274.121,169.7a.439.439,0,1,1,.5-.719l15.932,10.949,15.9-10.94a.439.439,0,1,1,.5.719l-16.177,11.124A.412.412,0,0,1,290.553,180.9Z" transform="translate(-27.696 -16.045)" fill="#d1d3d4"/>
    <path id="Path_511" data-name="Path 511" d="M274.369,188.849a.439.439,0,0,1-.246-.8l12.966-8.913a.439.439,0,1,1,.5.719l-12.966,8.913A.456.456,0,0,1,274.369,188.849Z" transform="translate(-27.698 -17.292)" fill="#d1d3d4"/>
    <path id="Path_512" data-name="Path 512" d="M309.434,188.852a.448.448,0,0,1-.246-.079l-12.957-8.887a.439.439,0,1,1,.5-.719l12.957,8.913a.439.439,0,0,1-.254.8Z" transform="translate(-30.409 -17.295)" fill="#d1d3d4"/>
    <path id="Path_513" data-name="Path 513" d="M323.722,138.477a13.844,13.844,0,1,1,13.835-13.838,13.844,13.844,0,0,1-13.835,13.838Zm0-26.8a12.966,12.966,0,1,0,12.957,12.963,12.966,12.966,0,0,0-12.957-12.963Z" transform="translate(-32.108 -8.916)" fill="#d1d3d4"/>
    <path id="Path_514" data-name="Path 514" d="M329.484,138.249a.447.447,0,0,1-.421-.307l-3.886-12.826a.412.412,0,0,1,.061-.377l7.781-10.9a.439.439,0,0,1,.614-.105.447.447,0,0,1,.1.614l-7.65,10.729,3.825,12.572a.447.447,0,0,1-.289.553Z" transform="translate(-33.984 -9.266)" fill="#d1d3d4"/>
    <path id="Path_515" data-name="Path 515" d="M323.932,126.08a.465.465,0,0,1-.2-.053l-11.843-6.264a.441.441,0,1,1,.412-.781l11.843,6.264a.443.443,0,0,1-.211.833Z" transform="translate(-32.327 -9.915)" fill="#d1d3d4"/>
    <path id="Path_516" data-name="Path 516" d="M114.1,181.042h-4.6a.439.439,0,0,1-.439-.439V159.549a.439.439,0,0,1,.439-.439h4.6a.439.439,0,0,1,.439.439V180.6A.439.439,0,0,1,114.1,181.042Zm-4.158-.877h3.72V159.987h-3.72Z" transform="translate(-7.466 -14.845)" fill="#d1d3d4"/>
    <path id="Path_517" data-name="Path 517" d="M125.553,181.949h-4.615a.439.439,0,0,1-.439-.439V166.939a.439.439,0,0,1,.439-.439h4.6a.439.439,0,0,1,.439.439v14.6A.439.439,0,0,1,125.553,181.949Zm-4.158-.877h3.72V167.351h-3.72Z" transform="translate(-8.87 -15.752)" fill="#d1d3d4"/>
    <path id="Path_518" data-name="Path 518" d="M137.016,182.677h-4.6a.439.439,0,0,1-.439-.439v-9.369a.439.439,0,0,1,.439-.439h4.6a.439.439,0,0,1,.439.439v9.369A.439.439,0,0,1,137.016,182.677Zm-4.158-.877h3.72v-8.492h-3.7Z" transform="translate(-10.279 -16.48)" fill="#d1d3d4"/>
    <path id="Path_519" data-name="Path 519" d="M137.376,183.987H104.4a.439.439,0,1,1,0-.877h32.977a.439.439,0,1,1,0,.877Z" transform="translate(-6.84 -17.79)" fill="#d1d3d4"/>
    <path id="Path_520" data-name="Path 520" d="M82.221,120.769H62.807a4.1,4.1,0,0,1-4.1-4.1V105.627a4.1,4.1,0,0,1,4.1-4.1H82.221a4.1,4.1,0,0,1,4.1,4.1v11.045a4.1,4.1,0,0,1-4.1,4.1ZM62.807,102.407a3.22,3.22,0,0,0-3.22,3.22v11.045a3.228,3.228,0,0,0,3.22,3.22H82.221a3.22,3.22,0,0,0,3.22-3.22V105.627a3.22,3.22,0,0,0-3.22-3.22Z" transform="translate(-1.287 -7.779)" fill="#d1d3d4"/>
    <path id="Path_521" data-name="Path 521" d="M69.3,117.691a.368.368,0,0,1-.228-.07.43.43,0,0,1-.211-.368v-11.2a.456.456,0,0,1,.211-.377.421.421,0,0,1,.421,0l11.528,5.544a.439.439,0,0,1,0,.8l-11.528,5.6A.474.474,0,0,1,69.3,117.691Zm.439-10.94v9.8l10.089-4.9Z" transform="translate(-2.533 -8.281)" fill="#d1d3d4"/>
    <path id="Path_522" data-name="Path 522" d="M149.437,92.959H121.619a.439.439,0,0,1-.439-.439V73.089a.439.439,0,0,1,.439-.439h27.819a.439.439,0,0,1,.439.439V92.521A.439.439,0,0,1,149.437,92.959Zm-27.38-.877H149V73.527H122.057Z" transform="translate(-8.953 -4.235)" fill="#d1d3d4"/>
    <path id="Path_523" data-name="Path 523" d="M121.619,93.61a.43.43,0,0,1-.263-.088.447.447,0,0,1-.088-.614l10.984-14.791a.439.439,0,0,1,.684,0l8.6,10.185a.442.442,0,0,1-.676.57l-8.238-9.764L121.97,93.434A.447.447,0,0,1,121.619,93.61Z" transform="translate(-8.954 -4.886)" fill="#d1d3d4"/>
    <path id="Path_524" data-name="Path 524" d="M141.249,86.349a.456.456,0,0,1-.254-.079.439.439,0,0,1-.105-.605l4.474-6.431a.43.43,0,0,1,.325-.184.439.439,0,0,1,.351.132l6.141,6.431a.43.43,0,0,1,0,.614.439.439,0,0,1-.623,0l-5.781-6.045-4.141,5.992a.43.43,0,0,1-.386.175Z" transform="translate(-11.362 -5.021)" fill="#d1d3d4"/>
    <path id="Path_525" data-name="Path 525" d="M141.558,79.446a2.158,2.158,0,1,1,2.158-2.158,2.158,2.158,0,0,1-2.158,2.158Zm0-3.439a1.281,1.281,0,1,0,1.281,1.281,1.281,1.281,0,0,0-1.281-1.281Z" transform="translate(-11.189 -4.54)" fill="#d1d3d4"/>
    <path id="Path_526" data-name="Path 526" d="M312.355,149.557H296.389a.439.439,0,1,1,0-.877h15.967a.439.439,0,0,1,0,.877Z" transform="translate(-30.4 -13.565)" fill="#d1d3d4"/>
    <path id="Path_527" data-name="Path 527" d="M312.355,153.477H296.389a.439.439,0,1,1,0-.877h15.967a.439.439,0,0,1,0,.877Z" transform="translate(-30.4 -14.046)" fill="#d1d3d4"/>
    <path id="Path_528" data-name="Path 528" d="M307.5,157.407H296.389a.439.439,0,1,1,0-.877H307.5a.439.439,0,1,1,0,.877Z" transform="translate(-30.4 -14.529)" fill="#d1d3d4"/>
    <path id="Path_529" data-name="Path 529" d="M90.487,133.877H63.449a.439.439,0,1,1,0-.877H90.487a.439.439,0,0,1,0,.877Z" transform="translate(-1.815 -11.641)" fill="#d1d3d4"/>
    <path id="Path_530" data-name="Path 530" d="M90.487,137.787H63.449a.439.439,0,1,1,0-.877H90.487a.447.447,0,0,1,.439.439.439.439,0,0,1-.439.439Z" transform="translate(-1.815 -12.121)" fill="#d1d3d4"/>
    <path id="Path_531" data-name="Path 531" d="M82.3,141.717H63.449a.439.439,0,0,1,0-.877H82.3a.439.439,0,0,1,0,.877Z" transform="translate(-1.815 -12.603)" fill="#d1d3d4"/>
    <path id="Path_532" data-name="Path 532" d="M331.573,165.508H329.45v-1.3h2.386l.43-1.895h-2.132v-1.307h2.43l.711-3.237h2.079l-.711,3.237h2.439l.711-3.237h2.053l-.711,3.237h2.132v1.351h-2.413l-.4,1.895h2.132v1.3h-2.369l-.728,3.246h-2.062l.711-3.246h-2.456l-.711,3.246h-2.053Zm2.746-3.149-.4,1.895h2.439l.4-1.895Z" transform="translate(-34.511 -14.681)" fill="#d1d3d4"/>
    <path id="Path_533" data-name="Path 533" d="M295.222,175.664a3.018,3.018,0,0,1-1.149.956,3.351,3.351,0,0,1-1.465.333,3.431,3.431,0,0,1-1.281-.237,3.219,3.219,0,0,1-1.053-.649,3.14,3.14,0,0,1-.711-1,3.088,3.088,0,0,1-.263-1.272,3.159,3.159,0,0,1,.254-1.263,3.124,3.124,0,0,1,.7-1,3.3,3.3,0,0,1,1.035-.676,3.448,3.448,0,0,1,2.369-.053,3.062,3.062,0,0,1,.965.535,2.755,2.755,0,0,1,.684.877,2.632,2.632,0,0,1,.263,1.193,2.325,2.325,0,0,1-.114.781,1.755,1.755,0,0,1-.272.561,1.378,1.378,0,0,1-.368.377,1.938,1.938,0,0,1-.421.219,1.893,1.893,0,0,1-.395.105,1.639,1.639,0,0,1-.325,0,.737.737,0,0,1-.509-.149.474.474,0,0,1-.167-.316h0a2.1,2.1,0,0,1-.43.316,1.342,1.342,0,0,1-.667.149,1.149,1.149,0,0,1-.491-.105,1.2,1.2,0,0,1-.395-.3,1.368,1.368,0,0,1-.246-.447,1.754,1.754,0,0,1-.088-.579,2.167,2.167,0,0,1,.114-.719,2.071,2.071,0,0,1,.333-.614,1.7,1.7,0,0,1,.535-.43,1.579,1.579,0,0,1,.719-.158,1.3,1.3,0,0,1,.561.114.737.737,0,0,1,.351.377h0l.07-.386h.8l-.316,1.676-.044.237a1.254,1.254,0,0,0,0,.254.527.527,0,0,0,.044.228.2.2,0,0,0,.184.079.544.544,0,0,0,.272-.07.632.632,0,0,0,.228-.228,1.368,1.368,0,0,0,.167-.395,2.553,2.553,0,0,0-.105-1.465,1.755,1.755,0,0,0-.456-.658,1.9,1.9,0,0,0-.7-.395,2.9,2.9,0,0,0-.877-.132,2.632,2.632,0,0,0-.965.175,2.088,2.088,0,0,0-.737.509,2.14,2.14,0,0,0-.483.763,2.632,2.632,0,0,0-.175.965,2.421,2.421,0,0,0,.193,1,2.184,2.184,0,0,0,.518.754,2.5,2.5,0,0,0,.8.474,3.061,3.061,0,0,0,1,.158,2.886,2.886,0,0,0,.877-.132,2.273,2.273,0,0,0,.719-.386Zm-2.781-2.746a.854.854,0,0,0-.667.3,1.2,1.2,0,0,0-.175.333,1.431,1.431,0,0,0-.053.395,1.934,1.934,0,0,0,0,.2.754.754,0,0,0,.079.263.623.623,0,0,0,.211.219.658.658,0,0,0,.4.1.877.877,0,0,0,.4-.088.754.754,0,0,0,.254-.246,1.018,1.018,0,0,0,.132-.333,1.669,1.669,0,0,0,0-.36,1.009,1.009,0,0,0-.149-.561.544.544,0,0,0-.439-.219Z" transform="translate(-29.584 -16.258)" fill="#d1d3d4"/>
  </g>
</svg>
