<svg xmlns="http://www.w3.org/2000/svg" width="261.528" height="223.477" viewBox="0 0 261.528 223.477">
  <g id="product_manager" transform="translate(-53.514 -28.435)">
    <ellipse id="Ellipse_46" data-name="Ellipse 46" cx="4.556" cy="12.077" rx="4.556" ry="12.077" transform="translate(262.512 235.515) rotate(-81.23)" fill="#d1d3d4"/>
    <ellipse id="Ellipse_47" data-name="Ellipse 47" cx="21.74" cy="72.48" rx="21.74" ry="72.48" transform="translate(53.514 224.6) rotate(-79.14)" fill="#d1d3d4"/>
    <path id="Path_960" data-name="Path 960" d="M314.9,235.909h-.081L57.591,188.125a.443.443,0,0,1-.362-.524.452.452,0,0,1,.524-.362l257.232,47.774a.454.454,0,1,1-.081.9Z" transform="translate(-0.356 -15.25)" fill="#d1d3d4"/>
    <path id="Path_961" data-name="Path 961" d="M186.13,28.94,309.72,52.651V196.49L186.13,172.779Z" transform="translate(-12.736 -0.049)" fill="#fff"/>
    <path id="Path_962" data-name="Path 962" d="M309.66,196.893h-.081l-123.617-23.72a.452.452,0,0,1-.362-.443V28.891a.452.452,0,0,1,.163-.353.488.488,0,0,1,.371-.1L309.75,52.15a.461.461,0,0,1,.362.452V196.441a.416.416,0,0,1-.163.344A.425.425,0,0,1,309.66,196.893ZM186.531,172.35l122.677,23.5V52.973L186.531,29.47Z" transform="translate(-12.685)" fill="#d1d3d4"/>
    <path id="Path_963" data-name="Path 963" d="M246.558,178.918a.461.461,0,0,1-.443-.362,25.52,25.52,0,0,1,.452-10.043c.9-4.836,2.215-10.332,5.514-14.4a13.035,13.035,0,0,1,14.346-4.411.455.455,0,0,1-.3.859,12.131,12.131,0,0,0-13.352,4.122c-3.164,3.905-4.4,9.275-5.324,14a24.793,24.793,0,0,0-.452,9.69.452.452,0,0,1-.353.533Z" transform="translate(-18.465 -11.584)" fill="#d1d3d4"/>
    <path id="Path_964" data-name="Path 964" d="M272.3,148.076a21.577,21.577,0,0,1-4.032-.479,32.987,32.987,0,0,1-7.982-2.377,25.763,25.763,0,0,1-12.33-13.713c-2.151-5.424-2.477-10.929-2.784-16.217a.47.47,0,0,1,.425-.479.461.461,0,0,1,.479.425c.307,5.225.624,10.622,2.712,15.937A24.8,24.8,0,0,0,260.664,144.4a31.945,31.945,0,0,0,7.765,2.314,15.313,15.313,0,0,0,5.361.334.458.458,0,0,1,.154.9,10.043,10.043,0,0,1-1.645.127Z" transform="translate(-18.406 -8.295)" fill="#d1d3d4"/>
    <path id="Path_965" data-name="Path 965" d="M253.773,85.338h0a.452.452,0,0,1-.443-.452,52.815,52.815,0,0,1,1.539-12.666c.576-2.34,1.435-4.97,3.351-6.67,3.336-2.956,8.6-2.314,13.7-1.392a3.582,3.582,0,0,1,2.811,1.654.453.453,0,0,1-.823.38c-.335-.741-1.383-1.012-2.142-1.148-4.89-.9-9.944-1.51-12.945,1.184-1.736,1.537-2.531,4-3.073,6.219a52.015,52.015,0,0,0-1.51,12.466A.452.452,0,0,1,253.773,85.338Z" transform="translate(-19.19 -3.357)" fill="#d1d3d4"/>
    <path id="Path_966" data-name="Path 966" d="M247.489,86.551h0a.452.452,0,0,1-.425-.479v-.108c.434-8.136,1.085-20.484-8.9-24.642a30.915,30.915,0,0,0-8.253-1.808.455.455,0,0,1,.108-.9,31.313,31.313,0,0,1,8.488,1.862c10.576,4.411,9.944,17.121,9.464,25.528v.081a.452.452,0,0,1-.479.47Z" transform="translate(-16.902 -2.898)" fill="#d1d3d4"/>
    <path id="Path_967" data-name="Path 967" d="M287.483,126.622,218.7,113.433V75.72l68.783,13.2Z" transform="translate(-15.864 -4.541)" fill="#fff"/>
    <path id="Path_968" data-name="Path 968" d="M287.435,127.026h-.081l-68.783-13.189a.461.461,0,0,1-.371-.452V75.672a.443.443,0,0,1,.163-.344.479.479,0,0,1,.38-.1l68.774,13.2a.452.452,0,0,1,.371.443v37.677a.479.479,0,0,1-.163.353A.47.47,0,0,1,287.435,127.026ZM219.1,112.988l67.879,13.026V89.241L219.1,76.224Z" transform="translate(-15.816 -4.493)" fill="#d1d3d4"/>
    <path id="Path_969" data-name="Path 969" d="M275.966,100.269,232.241,91.88a3.8,3.8,0,0,1-3-3.616h0a2.4,2.4,0,0,1,3-2.423l43.725,8.389a3.806,3.806,0,0,1,3.01,3.616h0a2.414,2.414,0,0,1-3.01,2.423Z" transform="translate(-16.876 -5.506)" fill="#fff"/>
    <path id="Path_970" data-name="Path 970" d="M276.5,100.737a3.354,3.354,0,0,1-.66-.072h0l-43.725-8.407a4.285,4.285,0,0,1-3.372-4.023,2.893,2.893,0,0,1,1.021-2.305,3.019,3.019,0,0,1,2.513-.588l43.707,8.434a4.294,4.294,0,0,1,3.372,4.023,2.911,2.911,0,0,1-1.031,2.287,2.875,2.875,0,0,1-1.826.651Zm-.488-.958a2.106,2.106,0,0,0,1.808-.389,2.034,2.034,0,0,0,.7-1.591,3.345,3.345,0,0,0-2.64-3.137l-43.725-8.389a2.088,2.088,0,0,0-1.808.389,2.007,2.007,0,0,0-.7,1.591,3.336,3.336,0,0,0,2.631,3.1Z" transform="translate(-16.828 -5.459)" fill="#d1d3d4"/>
    <path id="Path_971" data-name="Path 971" d="M275.966,110.3l-43.725-8.389a3.8,3.8,0,0,1-3-3.616h0a2.4,2.4,0,0,1,3-2.432l43.725,8.4a3.806,3.806,0,0,1,3.01,3.616h0a2.414,2.414,0,0,1-3.01,2.423Z" transform="translate(-16.876 -6.468)" fill="#fff"/>
    <path id="Path_972" data-name="Path 972" d="M276.5,110.762a3.327,3.327,0,0,1-.66-.063h0l-43.725-8.389a4.285,4.285,0,0,1-3.372-4.023A2.893,2.893,0,0,1,229.761,96a2.983,2.983,0,0,1,2.513-.588l43.707,8.389a4.312,4.312,0,0,1,3.372,4.032,2.92,2.92,0,0,1-1.031,2.287A2.866,2.866,0,0,1,276.5,110.762Zm-.488-.949a2.106,2.106,0,0,0,1.808-.389,2.052,2.052,0,0,0,.7-1.591,3.336,3.336,0,0,0-2.64-3.137l-43.725-8.389a2.088,2.088,0,0,0-1.808.389,2.007,2.007,0,0,0-.7,1.591,3.336,3.336,0,0,0,2.631,3.137Z" transform="translate(-16.828 -6.426)" fill="#d1d3d4"/>
    <path id="Path_973" data-name="Path 973" d="M275.966,120.328l-43.725-8.389a3.806,3.806,0,0,1-3-3.616h0a2.4,2.4,0,0,1,3-2.432l43.725,8.389a3.824,3.824,0,0,1,3.01,3.616h0a2.414,2.414,0,0,1-3.01,2.432Z" transform="translate(-16.876 -7.431)" fill="#fff"/>
    <path id="Path_974" data-name="Path 974" d="M276.5,120.792a3.328,3.328,0,0,1-.66-.063h0l-43.725-8.389a4.285,4.285,0,0,1-3.372-4.023,2.893,2.893,0,0,1,1.021-2.287,2.983,2.983,0,0,1,2.513-.588l43.707,8.389a4.3,4.3,0,0,1,3.372,4.023,2.893,2.893,0,0,1-1.031,2.287A2.829,2.829,0,0,1,276.5,120.792Zm-.488-.949a2.106,2.106,0,0,0,1.808-.4,2.025,2.025,0,0,0,.7-1.591,3.354,3.354,0,0,0-2.64-3.137l-43.725-8.389a2.088,2.088,0,0,0-1.808.4,2,2,0,0,0-.7,1.591,3.345,3.345,0,0,0,2.631,3.137Z" transform="translate(-16.828 -7.389)" fill="#d1d3d4"/>
    <path id="Path_975" data-name="Path 975" d="M307.7,163.065,267.2,155.3V135.34l40.5,7.774Z" transform="translate(-20.522 -10.267)" fill="#fff"/>
    <path id="Path_976" data-name="Path 976" d="M307.65,163.469h-.09L267.071,155.7a.443.443,0,0,1-.371-.443V135.292a.443.443,0,0,1,.163-.344.434.434,0,0,1,.371-.1l40.5,7.774a.443.443,0,0,1,.371.443v19.941a.479.479,0,0,1-.163.353A.488.488,0,0,1,307.65,163.469Zm-40.046-8.6,39.594,7.593V143.437L267.6,135.889Z" transform="translate(-20.474 -10.219)" fill="#d1d3d4"/>
    <path id="Path_977" data-name="Path 977" d="M226.756,68.106,196.97,62.393V45.95l29.786,5.713Z" transform="translate(-13.777 -1.682)" fill="#fff"/>
    <path id="Path_978" data-name="Path 978" d="M226.708,68.551h-.09l-29.777-5.713a.443.443,0,0,1-.371-.443V45.952a.468.468,0,0,1,.542-.443l29.768,5.668a.452.452,0,0,1,.371.443V68.063a.452.452,0,0,1-.452.452Zm-29.334-6.536,28.882,5.541V52l-28.882-5.541Z" transform="translate(-13.729 -1.639)" fill="#d1d3d4"/>
    <path id="Path_979" data-name="Path 979" d="M283.777,155.378h-.1L271.6,153.064a.452.452,0,0,1-.371-.443V140.562a.461.461,0,0,1,.172-.353.443.443,0,0,1,.371-.09l12.077,2.314a.443.443,0,0,1,.362.443v12.077a.452.452,0,0,1-.163.353.47.47,0,0,1-.271.072Zm-11.625-3.146,11.173,2.142V143.247L272.152,141.1Z" transform="translate(-20.909 -10.725)" fill="#d1d3d4"/>
    <ellipse id="Ellipse_48" data-name="Ellipse 48" cx="2.585" cy="3.128" rx="2.585" ry="3.128" transform="translate(252.815 135.317) rotate(-42.26)" fill="#fff"/>
    <path id="Path_980" data-name="Path 980" d="M278.592,150.288a3.822,3.822,0,0,1-.633-.054,4.086,4.086,0,0,1-3.209-3.842,2.712,2.712,0,0,1,.976-2.179,2.856,2.856,0,0,1,2.4-.56,4.086,4.086,0,0,1,3.209,3.833,2.8,2.8,0,0,1-.976,2.188A2.757,2.757,0,0,1,278.592,150.288Zm-1.094-5.794a1.808,1.808,0,0,0-1.808,1.9,3.146,3.146,0,0,0,2.477,2.947,1.935,1.935,0,0,0,1.654-.362,1.907,1.907,0,0,0,.651-1.492A3.155,3.155,0,0,0,278,144.539a2.657,2.657,0,0,0-.461-.036Z" transform="translate(-21.247 -11.059)" fill="#d1d3d4"/>
    <path id="Path_981" data-name="Path 981" d="M276.089,150.078l3.408.66a5.487,5.487,0,0,1,4.33,5.162h0l-12.077-2.287h0a3.48,3.48,0,0,1,4.339-3.534Z" transform="translate(-20.958 -11.672)" fill="#fff"/>
    <path id="Path_982" data-name="Path 982" d="M283.777,156.277h-.1L271.6,153.963a.452.452,0,0,1-.371-.443,3.977,3.977,0,0,1,1.41-3.146,4.122,4.122,0,0,1,3.462-.8l3.408.66a5.975,5.975,0,0,1,4.7,5.6.452.452,0,0,1-.163.353.47.47,0,0,1-.271.09ZM272.17,153.14l11.119,2.133a5.08,5.08,0,0,0-3.923-4.167l-3.417-.66h0a3.191,3.191,0,0,0-2.712.615,3.019,3.019,0,0,0-1.067,2.106Z" transform="translate(-20.909 -11.624)" fill="#d1d3d4"/>
    <path id="Path_983" data-name="Path 983" d="M223.416,65.028h-.09L200.5,60.652a.461.461,0,0,1-.371-.452V49.642a.479.479,0,0,1,.163-.353.461.461,0,0,1,.371-.09l22.852,4.339a.452.452,0,0,1,.371.443V64.576a.479.479,0,0,1-.163.353.488.488,0,0,1-.307.1Zm-22.382-5.162,21.93,4.2V54.442l-21.93-4.212Z" transform="translate(-14.081 -1.993)" fill="#d1d3d4"/>
    <path id="Path_984" data-name="Path 984" d="M200.582,61.108a.443.443,0,0,1-.434-.325.452.452,0,0,1,.316-.56L223.3,54.048a.452.452,0,0,1,.551.316.443.443,0,0,1-.334.542L200.681,61.09Z" transform="translate(-14.081 -2.458)" fill="#d1d3d4"/>
    <path id="Path_985" data-name="Path 985" d="M223.41,65.023a.452.452,0,0,1-.244-.072L200.332,50.008a.452.452,0,1,1,.488-.75l22.834,14.933a.452.452,0,0,1,.136.624.461.461,0,0,1-.38.208Z" transform="translate(-14.075 -1.989)" fill="#d1d3d4"/>
    <path id="Path_986" data-name="Path 986" d="M303.544,81.029,272.33,75.044V50.99l31.214,5.984Z" transform="translate(-21.014 -2.166)" fill="#fff"/>
    <path id="Path_987" data-name="Path 987" d="M303.5,81.434h-.081L272.2,75.449a.443.443,0,0,1-.371-.443V50.952A.461.461,0,0,1,272,50.6a.443.443,0,0,1,.371-.09l31.25,5.975a.452.452,0,0,1,.362.443V80.982a.479.479,0,0,1-.163.353A.47.47,0,0,1,303.5,81.434Zm-30.735-6.807,30.31,5.812V57.28l-30.31-5.822Z" transform="translate(-20.966 -2.119)" fill="#d1d3d4"/>
    <path id="Path_988" data-name="Path 988" d="M296.247,76.639l-15.512-2.965A3.164,3.164,0,0,1,278.24,70.7h0a2,2,0,0,1,2.495-2.007l15.512,2.983a3.155,3.155,0,0,1,2.486,2.974h0a1.989,1.989,0,0,1-2.486,1.989Z" transform="translate(-21.582 -3.86)" fill="#fff"/>
    <path id="Path_989" data-name="Path 989" d="M296.679,77.053a3.02,3.02,0,0,1-.56-.054L280.7,74.07a3.616,3.616,0,0,1-2.857-3.417,2.459,2.459,0,0,1,.9-1.953,2.54,2.54,0,0,1,2.142-.5l15.476,2.965a3.616,3.616,0,0,1,2.857,3.417,2.414,2.414,0,0,1-2.54,2.468Zm-16.416-8.036a1.5,1.5,0,0,0-1.564,1.6,2.712,2.712,0,0,0,2.115,2.531l15.476,3h0a1.654,1.654,0,0,0,1.4-.307,1.582,1.582,0,0,0,.551-1.257,2.712,2.712,0,0,0-2.124-2.531L280.7,69.089a1.945,1.945,0,0,0-.434-.036Z" transform="translate(-21.543 -3.813)" fill="#d1d3d4"/>
    <line id="Line_7" data-name="Line 7" x2="12.33" y2="2.368" transform="translate(268.762 134.547)" fill="#fff"/>
    <path id="Path_990" data-name="Path 990" d="M303.912,148.594h-.081l-12.339-2.368a.434.434,0,0,1-.353-.524.452.452,0,0,1,.524-.362l12.33,2.4a.454.454,0,1,1-.081.9Z" transform="translate(-22.82 -11.226)" fill="#d1d3d4"/>
    <line id="Line_8" data-name="Line 8" x2="12.33" y2="2.368" transform="translate(268.762 139.32)" fill="#fff"/>
    <path id="Path_991" data-name="Path 991" d="M303.912,153.874h-.081l-12.339-2.368a.434.434,0,0,1-.353-.524.452.452,0,0,1,.524-.362l12.33,2.368a.454.454,0,0,1-.081.9Z" transform="translate(-22.82 -11.734)" fill="#d1d3d4"/>
    <line id="Line_9" data-name="Line 9" x2="12.33" y2="2.368" transform="translate(268.762 144.093)" fill="#fff"/>
    <path id="Path_992" data-name="Path 992" d="M303.912,159.154h-.081l-12.339-2.368a.434.434,0,0,1-.353-.524.452.452,0,0,1,.524-.362l12.33,2.368a.454.454,0,1,1-.081.9Z" transform="translate(-22.82 -12.241)" fill="#d1d3d4"/>
    <line id="Line_10" data-name="Line 10" x2="15.91" y2="3.055" transform="translate(258.972 54.944)" fill="#fff"/>
    <path id="Path_993" data-name="Path 993" d="M296.662,61.221h-.09l-15.91-3.055a.434.434,0,0,1-.353-.524.452.452,0,0,1,.524-.362l15.91,3.055a.452.452,0,0,1,.362.524A.461.461,0,0,1,296.662,61.221Z" transform="translate(-21.78 -2.769)" fill="#d1d3d4"/>
    <path id="Path_994" data-name="Path 994" d="M260.352,191.882l-23.982-4.6V162.53l23.982,4.6Z" transform="translate(-17.561 -12.878)" fill="#fff"/>
    <path id="Path_995" data-name="Path 995" d="M260.3,192.286h-.09l-23.973-4.6a.452.452,0,0,1-.371-.443v-24.76a.443.443,0,0,1,.163-.343.434.434,0,0,1,.371-.1l23.991,4.6a.452.452,0,0,1,.371.443v24.751a.452.452,0,0,1-.452.452Zm-23.5-5.424,23.078,4.429V167.427L236.8,163Z" transform="translate(-17.513 -12.83)" fill="#d1d3d4"/>
    <line id="Line_11" data-name="Line 11" x2="15.846" y2="3.037" transform="translate(222.877 156.983)" fill="#fff"/>
    <path id="Path_996" data-name="Path 996" d="M256.668,174.082h-.081l-15.856-3.037a.452.452,0,0,1-.353-.533.443.443,0,0,1,.524-.353L256.75,173.2a.452.452,0,0,1,.362.524A.461.461,0,0,1,256.668,174.082Z" transform="translate(-17.945 -13.61)" fill="#d1d3d4"/>
    <line id="Line_12" data-name="Line 12" x2="15.846" y2="3.037" transform="translate(222.877 162.814)" fill="#fff"/>
    <path id="Path_997" data-name="Path 997" d="M256.668,180.582h-.081l-15.856-3.037a.452.452,0,0,1-.353-.533.443.443,0,0,1,.524-.353l15.846,3.019a.452.452,0,0,1,.362.524.461.461,0,0,1-.443.38Z" transform="translate(-17.945 -14.234)" fill="#d1d3d4"/>
    <line id="Line_13" data-name="Line 13" x2="11.2" y2="2.142" transform="translate(222.877 168.644)" fill="#fff"/>
    <path id="Path_998" data-name="Path 998" d="M252.021,186.082h-.081L240.73,183.9a.46.46,0,0,1,.172-.9l11.209,2.151a.473.473,0,0,1-.09.931Z" transform="translate(-17.944 -14.843)" fill="#d1d3d4"/>
    <path id="Path_999" data-name="Path 999" d="M218.743,146.551h-.09l-17.392-3.336a.461.461,0,0,1-.362-.533.452.452,0,0,1,.533-.353l17.392,3.318a.452.452,0,0,1,.362.524.461.461,0,0,1-.443.38Z" transform="translate(-14.154 -10.937)" fill="#d1d3d4"/>
    <path id="Path_1000" data-name="Path 1000" d="M218.743,153.277h-.09l-17.392-3.372a.452.452,0,0,1-.362-.524.461.461,0,0,1,.533-.362l17.392,3.336a.452.452,0,0,1,.362.524.461.461,0,0,1-.443.4Z" transform="translate(-14.154 -11.58)" fill="#d1d3d4"/>
    <path id="Path_1001" data-name="Path 1001" d="M218.743,160h-.09l-17.392-3.336a.452.452,0,0,1-.362-.524.461.461,0,0,1,.533-.362l17.392,3.336a.461.461,0,0,1,.362.533.452.452,0,0,1-.443.353Z" transform="translate(-14.154 -12.229)" fill="#d1d3d4"/>
    <path id="Path_1002" data-name="Path 1002" d="M218.743,166.729h-.09l-17.392-3.336a.46.46,0,1,1,.172-.9l17.392,3.345a.452.452,0,0,1,.362.524.461.461,0,0,1-.443.371Z" transform="translate(-14.153 -12.873)" fill="#d1d3d4"/>
    <path id="Path_1003" data-name="Path 1003" d="M218.743,173.448h-.09L201.26,170.1a.46.46,0,0,1,.172-.9l17.392,3.336a.452.452,0,0,1,.362.524A.461.461,0,0,1,218.743,173.448Z" transform="translate(-14.153 -13.518)" fill="#d1d3d4"/>
    <path id="Path_1004" data-name="Path 1004" d="M212.072,178.9h-.081l-10.73-2.061a.452.452,0,0,1-.362-.524.461.461,0,0,1,.533-.362l10.721,2.061a.454.454,0,1,1-.081.9Z" transform="translate(-14.154 -14.166)" fill="#d1d3d4"/>
    <path id="Path_1005" data-name="Path 1005" d="M257.266,51.355h-.081l-10.224-1.98a.452.452,0,0,1-.362-.524.461.461,0,0,1,.533-.362l10.242,1.971a.452.452,0,0,1,.362.524.461.461,0,0,1-.47.371Z" transform="translate(-18.543 -1.925)" fill="#d1d3d4"/>
    <path id="Path_1006" data-name="Path 1006" d="M257.265,55.584h-.081L246.96,53.613a.46.46,0,1,1,.172-.9l10.242,1.971a.452.452,0,0,1,.362.524A.461.461,0,0,1,257.265,55.584Z" transform="translate(-18.542 -2.33)" fill="#d1d3d4"/>
    <path id="Path_1007" data-name="Path 1007" d="M303,191.393a9.139,9.139,0,0,1,1.049-4.927,36.98,36.98,0,0,0,2.215-3.128c.9-2,.271-4.357.5-6.554a8.136,8.136,0,0,1,2.305-4.89c1.148-1.166,2.631-1.962,3.724-3.173,1.808-1.989,2.323-4.791,3.345-7.232a18.079,18.079,0,0,1,7.232-8.47c-1.971,3.95,2.5,8.967.479,12.891-.642,1.238-1.871,2.142-2.341,3.462-1.139,3.182,2.658,6.626,1.437,9.772-.606,1.573-2.287,2.486-3.073,3.977-1.058,2.016-.226,4.457-.307,6.735-.127,3.128-2.034,5.939-4.294,8.136-1.419,1.347-2.983,2.522-4.52,3.742-1.808,1.455-2.594,2.992-4.2.651A20.285,20.285,0,0,1,303,191.393Z" transform="translate(-23.957 -11.965)" fill="#d1d3d4"/>
    <path id="Path_1008" data-name="Path 1008" d="M298.959,193.661c.588-2.423,1-5.053,0-7.34-1.121-2.585-3.905-4.42-4.24-7.232-.208-1.808.723-3.688.362-5.505s-1.853-3.046-3.073-4.375A18.314,18.314,0,0,1,287.28,158a27.67,27.67,0,0,0-4.52,7.458c-.958,2.712-.985,5.993.651,8.407a7.014,7.014,0,0,1,1.139,1.871c.56,1.808-.976,3.453-1.763,5.144a5.912,5.912,0,0,0,.56,6.084c1.6,2,4.692,2.775,5.478,5.207a11.752,11.752,0,0,1,.271,2.766,8.136,8.136,0,0,0,5.84,6.96c1.9.461,1.862-.289,2.2-1.889C297.621,197.874,298.443,195.8,298.959,193.661Z" transform="translate(-21.953 -12.443)" fill="#d1d3d4"/>
    <path id="Path_1009" data-name="Path 1009" d="M306.711,175.532c1.347-4.664,1.889-9.528,3.309-14.165a77.61,77.61,0,0,1,4.447-10.567l-5.785,2.441c-1.853.777-3.851,1.7-4.728,3.507-1.528,3.155,1.211,7.232-.389,10.314a25.715,25.715,0,0,1-2.287,2.875c-1.7,2.4-1.446,5.677-.506,8.461.4,1.193,2.151,7.376,3.715,5.659.624-.687.678-3.254.9-4.194C305.8,178.407,306.331,176.979,306.711,175.532Z" transform="translate(-23.675 -11.752)" fill="#d1d3d4"/>
    <path id="Path_1010" data-name="Path 1010" d="M303.825,242.936c1.148-7.62,4.764-34.459,4.8-34.73l-.994-.136c0,.271-3.616,27.119-4.791,34.712Z" transform="translate(-23.944 -17.252)" fill="#d1d3d4"/>
    <path id="Path_1011" data-name="Path 1011" d="M301.819,249.715h1c-.072-9.04-3.842-43.607-6.011-45.985l-.741.678C297.507,205.972,301.729,237.321,301.819,249.715Z" transform="translate(-23.294 -16.835)" fill="#d1d3d4"/>
    <path id="Path_1012" data-name="Path 1012" d="M300.247,246.209l1-.045c-.9-19.5,3.272-60.448,3.309-60.855l-.994-.1C303.529,185.617,299.379,226.6,300.247,246.209Z" transform="translate(-23.684 -15.056)" fill="#d1d3d4"/>
    <path id="Path_1013" data-name="Path 1013" d="M312.594,226.33H291.08l1.51,21.786a7.232,7.232,0,0,0,7.168,6.689h4.158a7.232,7.232,0,0,0,7.177-6.689Z" transform="translate(-22.815 -19.005)" fill="#fff"/>
    <path id="Path_1014" data-name="Path 1014" d="M303.868,255.209H299.71a7.657,7.657,0,0,1-7.62-7.114l-1.51-21.776a.443.443,0,0,1,.127-.344.434.434,0,0,1,.325-.145h21.514a.452.452,0,0,1,.452.488l-1.5,21.776a7.666,7.666,0,0,1-7.629,7.114ZM291.52,226.734l1.473,21.3a6.753,6.753,0,0,0,6.716,6.273h4.158a6.762,6.762,0,0,0,6.725-6.274l1.474-21.3Z" transform="translate(-22.767 -18.957)" fill="#d1d3d4"/>
    <path id="Path_1015" data-name="Path 1015" d="M150.716,106.836s23.91,5.478,28.339,4.592c5.948-1.193,11.9-5.2,17.175-8.036,5.5-2.965,10.848-6.12,16.335-9.175,3.218-1.808,6.49-3.553,9.736-5.333a3.335,3.335,0,0,1,1.094-.434,2.486,2.486,0,0,1,.958.108,2.9,2.9,0,0,1,1.962,1.718c.488,1.437-.9,2.712-1.871,3.616q-4.24,3.941-8.732,7.629l5.116-.425a.633.633,0,0,1,.389,0c.353.181.181.714-.063,1.012a8.47,8.47,0,0,1-3.417,2.151c-4.086,1.69-7.367,2.775-10.848,5.36-3.11,2.278-6.273,4.52-9.51,6.572-5.008,3.227-13.1,9.32-19.508,8.244L148.04,119.41" transform="translate(-9.078 -5.763)" fill="#fff"/>
    <path id="Path_1016" data-name="Path 1016" d="M179.306,124.962a9.944,9.944,0,0,1-1.645-.136l-29.831-5.017.154-.9,29.831,5.017c5.469.9,12.276-3.616,17.248-6.9L197,115.75c3.019-1.934,6.12-4.077,9.492-6.554a37.416,37.416,0,0,1,8.985-4.6l2.007-.814a8.135,8.135,0,0,0,3.236-2.025.723.723,0,0,0,.163-.343h-.1l-5.116.434a.452.452,0,0,1-.325-.8c2.974-2.432,5.9-5,8.714-7.611l.09-.081c.859-.8,2.043-1.9,1.654-3.019a2.423,2.423,0,0,0-1.663-1.428,1.672,1.672,0,0,0-.759-.09,3.065,3.065,0,0,0-.9.38l-3.1,1.69q-3.336,1.8-6.635,3.616l-5.5,3.119c-3.535,2.016-7.232,4.1-10.848,6.066-1.13.615-2.287,1.275-3.48,1.953-4.447,2.549-9.04,5.18-13.794,6.129-4.466.9-27.553-4.366-28.529-4.592a.463.463,0,1,1,.2-.9c.244.054,23.856,5.424,28.158,4.592,4.583-.9,9.13-3.516,13.559-6.029,1.193-.678,2.359-1.347,3.489-1.962,3.616-1.962,7.295-4.041,10.848-6.057l5.5-3.119q3.309-1.808,6.644-3.616l3.1-1.681a3.544,3.544,0,0,1,1.257-.488,2.712,2.712,0,0,1,1.139.118,3.317,3.317,0,0,1,2.26,2.007c.57,1.672-.9,3.055-1.9,3.968l-.09.081c-2.468,2.305-5.035,4.52-7.648,6.735l3.688-.307a1.04,1.04,0,0,1,.633.09.777.777,0,0,1,.425.56,1.483,1.483,0,0,1-.353,1.139,8.868,8.868,0,0,1-3.616,2.278l-2.016.823a37.18,37.18,0,0,0-8.787,4.52c-3.381,2.486-6.5,4.646-9.528,6.6-.606.38-1.247.814-1.934,1.266C190.931,120.858,184.757,124.962,179.306,124.962Z" transform="translate(-9.058 -5.71)" fill="#231f20"/>
    <path id="Path_1017" data-name="Path 1017" d="M89.867,122.533c-13.749,10-15.539,30.825-15.91,46.473-.362,14.717,2.929,28.746,5.993,43.1,3,14.039,11.562,17.663,25.157,20.791,20.176,4.683,44.439,3.616,64.941,1.329s21.758-16.823,19.688-33.374c-.57-4.52-3.788-7.44-7.232-9.944A43.391,43.391,0,0,1,171.4,180.2c-9.718-14.147-10.3-30.87-16.787-46.211-5.135-12.14-16.588-20.6-29.831-20.167S98.988,115.9,89.867,122.533Z" transform="translate(-1.961 -8.198)" fill="#fff"/>
    <path id="Path_1018" data-name="Path 1018" d="M137.9,236.616a146.244,146.244,0,0,1-32.949-3.29c-12.5-2.9-22.31-6.328-25.492-21.171l-.651-3.019c-2.92-13.6-5.686-26.45-5.351-40.181.759-31.684,9.04-41.673,16.091-46.825h0c9.663-7.024,23.2-8.362,35.173-8.75,12.945-.425,24.8,7.6,30.229,20.448a134.827,134.827,0,0,1,5.776,18.4c2.486,9.419,5.053,19.164,10.938,27.734,2.6,3.788,5.894,6.961,10.992,10.594,3.525,2.513,6.87,5.487,7.458,10.233,1.139,9.148,1.582,19.426-3.788,26.215-3.408,4.321-8.732,6.825-16.271,7.657a294.166,294.166,0,0,1-32.154,1.962ZM89.819,122.49l.262.371c-13.18,9.582-15.367,29.677-15.72,46.1-.334,13.632,2.423,26.423,5.333,39.973l.651,3.028c2.811,13.171,10.242,17.094,24.814,20.475,16.66,3.86,37.858,4.294,64.8,1.32,7.313-.814,12.439-3.2,15.693-7.313,5.162-6.545,4.719-16.6,3.616-25.564-.551-4.393-3.733-7.232-7.087-9.609-5.2-3.7-8.551-6.933-11.218-10.848-5.966-8.7-8.561-18.513-11.055-28.023a135.312,135.312,0,0,0-5.767-18.278c-5.288-12.493-16.787-20.321-29.361-19.887-11.842.38-25.212,1.7-34.676,8.579Z" transform="translate(-1.913 -8.156)" fill="#231f20"/>
    <path id="Path_1019" data-name="Path 1019" d="M126.933,200.972a65.231,65.231,0,0,1-7.322-.425h0a69.6,69.6,0,0,1-13.74-2.983c-6.1-1.98-10.2-4.231-13.279-7.3-4.683-4.683-6.463-10.992-7.141-15.467-1.564-10.332,0-21.749,1.139-27.625a28.023,28.023,0,0,1,13.758-19.354,47.459,47.459,0,0,1,18.016-5.677c7.53-.985,12.954-.181,17.067,2.54,6.707,4.429,8.615,12.945,10,21.288l2.341,14.165c.57,3.516,1.365,8.344,4.131,10.622a16.968,16.968,0,0,0,3.137,1.88c1.934.985,3.932,2,5.053,4.212,1.392,2.712,1.98,7.358.551,10.368-1.573,3.327-4.791,5.514-7.078,6.87a51.77,51.77,0,0,1-26.631,6.888Zm-2.893-78.328a43.483,43.483,0,0,0-5.586.389c-7.06.9-12.845,2.712-17.682,5.559a27.191,27.191,0,0,0-13.3,18.739c-1.085,5.831-2.712,17.121-1.13,27.327.651,4.339,2.377,10.45,6.888,14.961,2.974,2.965,6.951,5.153,12.918,7.087a68.467,68.467,0,0,0,13.559,2.947h0c12.466,1.41,24-.8,33.365-6.328,2.179-1.293,5.252-3.381,6.725-6.481,1.311-2.757.75-7.024-.542-9.564-.994-1.953-2.775-2.857-4.655-3.824a17.692,17.692,0,0,1-3.3-1.989c-3.037-2.495-3.86-7.512-4.457-11.173l-2.341-14.156c-1.347-8.136-3.2-16.461-9.6-20.692C132.067,123.556,128.542,122.643,124.04,122.643Z" transform="translate(-3.004 -8.96)" fill="#d1d3d4"/>
    <path id="Path_1020" data-name="Path 1020" d="M93.952,193.195a.452.452,0,0,1-.416-.28.443.443,0,0,1,.244-.588c5.9-2.441,9.835-1.871,10-1.808a.457.457,0,1,1-.136.9s-3.869-.551-9.519,1.808A.389.389,0,0,1,93.952,193.195Z" transform="translate(-3.84 -15.556)" fill="#d1d3d4"/>
    <path id="Path_1021" data-name="Path 1021" d="M188.72,227.471s4.52,23.259,5.758,24.488,20.791.334,20.52-1.808-10.513-5.189-10.513-5.189l-3.137-19.173" transform="translate(-12.985 -18.953)" fill="#fff"/>
    <path id="Path_1022" data-name="Path 1022" d="M199.771,252.943c-2.893,0-5.189-.217-5.686-.714-1.266-1.257-5.116-20.791-5.876-24.714a.452.452,0,0,1,.886-.181c1.727,8.868,4.773,23.3,5.632,24.262.958.741,12.719.56,18-.777a3.988,3.988,0,0,0,1.808-.741c-.136-1.139-5.288-3.3-10.188-4.71a.461.461,0,0,1-.325-.362l-3.146-19.182a.458.458,0,0,1,.9-.145l3.1,18.893c2.712.8,10.305,3.218,10.558,5.424q.072.7-.9,1.166C212.3,252.228,205.05,252.943,199.771,252.943Z" transform="translate(-12.935 -18.906)" fill="#231f20"/>
    <path id="Path_1023" data-name="Path 1023" d="M142.6,238.554s-2.847,20.854-1.374,21.451,21.469,1.555,21.153-.2S152.19,254.7,152.19,254.7l3.571-20.339" transform="translate(-8.383 -19.776)" fill="#fff"/>
    <path id="Path_1024" data-name="Path 1024" d="M154.424,261.182c-5.74,0-12.52-.488-13.415-.85-1.482-.606-.226-12.267,1.094-21.939a.456.456,0,0,1,.9.127c-1.293,9.492-2.233,19.887-1.591,20.99a77.991,77.991,0,0,0,10.305.714c6.979.163,9.591-.244,10.133-.551-.515-.985-5.424-3.137-9.844-4.637a.443.443,0,0,1-.3-.515l3.616-20.33a.458.458,0,1,1,.9.154l-3.544,19.96c2.712.9,9.808,3.534,10.124,5.324a.714.714,0,0,1-.289.7C161.728,260.956,158.3,261.182,154.424,261.182Zm-12.99-1.636Z" transform="translate(-8.338 -19.723)" fill="#231f20"/>
    <path id="Path_1025" data-name="Path 1025" d="M167.254,185.7c6.789-1.012,18.7,42.007,18.7,42.007l13.632-1.582s-2.468-38.934-5.071-49.8c-1.808-7.485-9.944-11.146-18.179-8.714-12.312-.488-24.958-2.052-24.958-2.052Z" transform="translate(-9.399 -13.169)" fill="#231f20"/>
    <path id="Path_1026" data-name="Path 1026" d="M185.909,228.111a.443.443,0,0,1-.434-.325c0-.108-3.019-10.848-6.8-21.361-6.545-18.188-9.944-20.538-11.4-20.321a.452.452,0,0,1-.425-.172l-15.865-20.14a.452.452,0,0,1-.045-.506.443.443,0,0,1,.452-.226c.127,0,12.728,1.564,24.85,2.052a16.5,16.5,0,0,1,12.809,1.229,12.294,12.294,0,0,1,5.867,7.828c2.576,10.775,5.053,49.483,5.08,49.881a.443.443,0,0,1-.4.47l-13.632,1.591Zm-18.486-42.929c6.825,0,17.175,36.159,18.82,41.989l12.818-1.492c-.28-4.285-2.612-39.2-5.026-49.3a11.282,11.282,0,0,0-5.424-7.232,15.639,15.639,0,0,0-12.176-1.121h-.145c-10.115-.4-20.583-1.546-23.91-1.925l15.051,19.092Z" transform="translate(-9.351 -13.121)" fill="#231f20"/>
    <path id="Path_1027" data-name="Path 1027" d="M130.154,105.129s-21.089-1.139-24.859,4.14c-4.068,5.695-3.77,7.91-9.275,21.053,1.808,18.17,12.592,43.535,12.592,43.535l45.442-9.383S152.292,115.5,148.3,108.7,130.154,105.129,130.154,105.129Z" transform="translate(-4.082 -7.292)" fill="#ff3f01"/>
    <path id="Path_1028" data-name="Path 1028" d="M125.55,109.31l12.737,66.712,13.044-.253-9.564-65.718Z" transform="translate(-6.918 -7.767)" fill="#231f20"/>
    <path id="Path_1029" data-name="Path 1029" d="M138.239,176.426a.452.452,0,0,1-.443-.371l-12.737-66.712a.443.443,0,0,1,.1-.38.425.425,0,0,1,.362-.154l16.271.741a.452.452,0,0,1,.425.389l9.555,65.718a.452.452,0,0,1-.434.515l-13.044.253Zm-12.185-66.694,12.556,65.781,12.149-.235-9.428-64.841Z" transform="translate(-6.87 -7.719)" fill="#231f20"/>
    <path id="Path_1030" data-name="Path 1030" d="M115.073,172.379S103,185.134,111.367,195.258s32.2-.524,32.2-.524l-5.948,39.6,17.465-.181s18.206-53.912,16.109-59.49-17.013-8.136-17.013-8.136Z" transform="translate(-5.273 -13.262)" fill="#231f20"/>
    <path id="Path_1031" data-name="Path 1031" d="M137.572,234.746a.47.47,0,0,1-.344-.154.488.488,0,0,1-.1-.371l5.831-38.8a70.711,70.711,0,0,1-12.312,3.77c-9.338,1.853-16.145.579-19.67-3.688-8.524-10.314,3.616-23.349,3.715-23.5a.488.488,0,0,1,.262-.136L154.1,166h.145c.615.108,15.187,2.712,17.356,8.434s-15.367,57.591-16.109,59.8a.443.443,0,0,1-.425.307l-17.456.181Zm5.948-40.507a.452.452,0,0,1,.28.09.47.47,0,0,1,.172.425L138.1,233.8l16.615-.172c6.328-18.685,17.618-54.608,16.009-58.884-1.907-5.08-15.485-7.648-16.588-7.846l-38.87,5.831c-1.148,1.275-11.182,12.963-3.616,22.165,8.045,9.736,31.431-.542,31.639-.651a.407.407,0,0,1,.235,0Z" transform="translate(-5.227 -13.211)" fill="#231f20"/>
    <path id="Path_1032" data-name="Path 1032" d="M118.488,58.865a15.367,15.367,0,0,0-18.025,2.811,13.379,13.379,0,0,0-3.01,13.831,11.842,11.842,0,0,0,11.932,7.114c4.809-.4,9.3-5.162,11.345-9.248C123.18,68.438,124.427,61.884,118.488,58.865Z" transform="translate(-4.141 -2.755)" fill="#fff"/>
    <path id="Path_1033" data-name="Path 1033" d="M108.348,83.061A12.185,12.185,0,0,1,96.985,75.63a13.894,13.894,0,0,1,3.11-14.319,15.747,15.747,0,0,1,18.522-2.893c2.4,1.211,7.431,5.125,2.441,15.105-2.142,4.285-6.716,9.085-11.752,9.492C109.035,83.043,108.673,83.061,108.348,83.061Zm2.893-25.537a14.545,14.545,0,0,0-10.5,4.42A12.954,12.954,0,0,0,97.825,75.3a11.354,11.354,0,0,0,11.48,6.825c4.438-.362,8.886-4.8,10.983-9.04,1.537-3.083,4.42-10.613-2.043-13.894h0A15.5,15.5,0,0,0,111.24,57.524Z" transform="translate(-4.098 -2.707)" fill="#231f20"/>
    <path id="Path_1034" data-name="Path 1034" d="M110.986,68.748a13.559,13.559,0,0,0-2.712,12.936,5.424,5.424,0,0,0,2.079,3.064c2.043,1.247,4.71,0,6.518-1.573a25.41,25.41,0,0,0,6.554-9.636c1.067-2.594,2.432-8.316-1.492-9.157S113.391,66.018,110.986,68.748Z" transform="translate(-5.2 -3.436)" fill="#231f20"/>
    <path id="Path_1035" data-name="Path 1035" d="M112.167,85.668a3.941,3.941,0,0,1-2.106-.579,5.7,5.7,0,0,1-2.278-3.309A14,14,0,0,1,110.631,68.4h0c2.522-2.829,7.367-5.37,11.363-4.52a3.444,3.444,0,0,1,2.423,1.808c1.464,2.784-.389,7.467-.606,7.991a25.781,25.781,0,0,1-6.671,9.808,8.136,8.136,0,0,1-4.972,2.179ZM120.3,64.642a13.347,13.347,0,0,0-9.04,4.375h0a13.044,13.044,0,0,0-2.64,12.484,4.827,4.827,0,0,0,1.889,2.82c1.808,1.121,4.294-.054,5.993-1.528a24.678,24.678,0,0,0,6.418-9.465c.732-1.754,1.672-5.261.642-7.232a2.513,2.513,0,0,0-1.808-1.32,6.8,6.8,0,0,0-1.419-.145Zm-9.4,4.077Z" transform="translate(-5.152 -3.388)" fill="#231f20"/>
    <path id="Path_1036" data-name="Path 1036" d="M134.433,95.618a32.388,32.388,0,0,1-2.3,2.585,12.42,12.42,0,0,1-11.842,1.853c-9.4-3.354-10.558-13.677-9.862-22.283.289-3.5,1.808-10.929,6.906-8-1.482-.9,3.616-5.044,4.357-5.424,5.541-3.164,12.213-.624,16.271,3.733a46.69,46.69,0,0,1,6.273,8.072c1.808,3.236.958,8.136-.579,11.281a15.132,15.132,0,0,1-5.37,6.02c-1.067.687-2.5,1.012-3.462,1.808a5.2,5.2,0,0,0-.4.353Z" transform="translate(-5.45 -3.313)" fill="#fff"/>
    <path id="Path_1037" data-name="Path 1037" d="M124.507,101.209a13.225,13.225,0,0,1-4.411-.75c-7.747-2.766-11.164-10.4-10.115-22.744.136-1.663.8-7.232,3.688-8.714a3.48,3.48,0,0,1,2.992-.072c.5-1.808,4.321-4.764,4.809-5.044,5.939-3.39,12.891-.4,16.823,3.824a46.166,46.166,0,0,1,6.328,8.136c1.88,3.372,1.021,8.425-.57,11.706a15.539,15.539,0,0,1-5.532,6.2,11.462,11.462,0,0,1-1.6.8,7.087,7.087,0,0,0-1.808.985,4.269,4.269,0,0,0-.371.334c-.3.316-.579.66-.9,1.031a9.6,9.6,0,0,1-1.455,1.582A12.429,12.429,0,0,1,124.507,101.209ZM115.142,69.57a2.3,2.3,0,0,0-1.094.262c-1.971,1.031-2.956,4.954-3.209,7.991-.967,11.869,2.251,19.209,9.564,21.813a11.941,11.941,0,0,0,11.417-1.808,9.7,9.7,0,0,0,1.32-1.446,13.349,13.349,0,0,1,.9-1.1h0c.136-.136.28-.271.434-.4a8.009,8.009,0,0,1,2.043-1.121,10.041,10.041,0,0,0,1.464-.723,14.581,14.581,0,0,0,5.207-5.84c1.492-3.073,2.314-7.774.588-10.848a44.827,44.827,0,0,0-6.183-7.982c-3.706-3.968-10.2-6.807-15.72-3.616-.759.434-4.4,3.562-4.4,4.61h.063a.452.452,0,1,1-.452.777h0a3.914,3.914,0,0,0-1.944-.606Z" transform="translate(-5.405 -3.264)" fill="#231f20"/>
    <path id="Path_1038" data-name="Path 1038" d="M139.339,76.3s4.457,7.051,4.42,13.162a8.759,8.759,0,0,1-5.08,8.136l2.3,10.305s1.22,5.261-5.424,5.885a11.372,11.372,0,0,1-10.079-4.475L120.5,90.492s6.382-5.849,4.231-12.511C124.731,78.018,134.367,80.3,139.339,76.3Z" transform="translate(-6.433 -4.597)" fill="#fff"/>
    <path id="Path_1039" data-name="Path 1039" d="M134.371,114.227a11.752,11.752,0,0,1-9.338-4.71.371.371,0,0,1-.063-.136L120,90.588a.434.434,0,0,1,.136-.443c.054-.054,6.138-5.731,4.1-12.032a.443.443,0,0,1,.533-.579c.09,0,9.483,2.17,14.219-1.636a.452.452,0,0,1,.353-.1.461.461,0,0,1,.307.208c.19.289,4.52,7.232,4.52,13.415a9.284,9.284,0,0,1-5.017,8.362l2.224,9.944a5.424,5.424,0,0,1-.823,4.059c-.976,1.356-2.658,2.151-5,2.377A10.852,10.852,0,0,1,134.371,114.227Zm-8.551-5.153a11.046,11.046,0,0,0,9.645,4.194,5.843,5.843,0,0,0,4.339-2,4.52,4.52,0,0,0,.678-3.336l-2.3-10.26a.47.47,0,0,1,.28-.524,8.226,8.226,0,0,0,4.791-7.693c0-5.08-3.164-10.9-4.095-12.5-4.375,3.1-11.526,2.088-13.849,1.654,1.428,5.948-3.29,11-4.357,12.05Z" transform="translate(-6.383 -4.548)" fill="#231f20"/>
    <path id="Path_1040" data-name="Path 1040" d="M123.274,89.337s-4.782-6.445-7.358-1.13,3.751,9.04,6.834,7.955" transform="translate(-5.935 -5.539)" fill="#fff"/>
    <path id="Path_1041" data-name="Path 1041" d="M121.46,96.815a7.3,7.3,0,0,1-5.135-2.4,5.487,5.487,0,0,1-.9-6.4,3.581,3.581,0,0,1,2.784-2.341c2.6-.244,5.234,3.254,5.342,3.4a.452.452,0,0,1-.09.633.461.461,0,0,1-.633-.09c-.669-.9-2.793-3.209-4.52-3.037-.814.072-1.51.687-2.061,1.808a4.619,4.619,0,0,0,.723,5.424c1.492,1.645,3.977,2.513,5.55,1.934a.452.452,0,0,1,.307.85,4.086,4.086,0,0,1-1.365.226Z" transform="translate(-5.884 -5.495)" fill="#231f20"/>
    <path id="Path_1042" data-name="Path 1042" d="M138.242,92.05h-.271a.452.452,0,1,1,0-.9,5.424,5.424,0,0,0,2.974-.642c.054-.461-1.862-2.6-4.122-4.52a.455.455,0,0,1,.588-.7c1.04.9,4.411,3.869,4.411,5.252a.814.814,0,0,1-.289.651,5.74,5.74,0,0,1-3.29.859Z" transform="translate(-7.985 -5.45)" fill="#231f20"/>
    <path id="Path_1043" data-name="Path 1043" d="M136.2,96.448h-.09a7.693,7.693,0,0,1-5.116-2.016.452.452,0,0,1,.1-.633.434.434,0,0,1,.624.09,7.159,7.159,0,0,0,4.457,1.654h.063c2.115,0,4.041-1.121,5.731-3.272a.454.454,0,1,1,.714.56C140.808,95.228,138.62,96.448,136.2,96.448Z" transform="translate(-7.432 -6.114)" fill="#231f20"/>
    <path id="Path_1044" data-name="Path 1044" d="M139.686,99.84s-5.351,1.916-8.7,1.808c0,0,5.27,7.349,10.486,6.138Z" transform="translate(-7.441 -6.858)" fill="#231f20"/>
    <path id="Path_1045" data-name="Path 1045" d="M140.237,108.332c-4.963,0-9.455-6.174-9.654-6.463a.461.461,0,0,1,0-.479.5.5,0,0,1,.416-.235c3.209.09,8.47-1.808,8.524-1.808a.452.452,0,0,1,.6.325l1.808,7.955a.452.452,0,0,1-.334.542,5.8,5.8,0,0,1-1.356.163ZM131.867,102c1.392,1.7,5.216,5.858,9.04,5.342l-1.573-7.006a32.651,32.651,0,0,1-7.476,1.7Z" transform="translate(-7.395 -6.808)" fill="#231f20"/>
    <ellipse id="Ellipse_49" data-name="Ellipse 49" cx="0.832" cy="1.455" rx="0.832" ry="1.455" transform="matrix(0.963, -0.27, 0.27, 0.963, 124.138, 78.732)" fill="#231f20"/>
    <ellipse id="Ellipse_50" data-name="Ellipse 50" cx="0.832" cy="1.455" rx="0.832" ry="1.455" transform="matrix(0.963, -0.27, 0.27, 0.963, 131.503, 76.658)" fill="#231f20"/>
    <path id="Path_1046" data-name="Path 1046" d="M144.87,165.549l9.022-29.189h42.043l-10.052,29.189Z" transform="translate(-8.774 -10.365)" fill="#fff"/>
    <path id="Path_1047" data-name="Path 1047" d="M185.834,165.953H144.822a.461.461,0,0,1-.362-.181.443.443,0,0,1-.072-.407l9.04-29.189a.452.452,0,0,1,.434-.316H195.9a.443.443,0,0,1,.362.19.452.452,0,0,1,.063.416l-10.052,29.18A.461.461,0,0,1,185.834,165.953Zm-40.4-.9h40.073l9.745-28.285H154.178Z" transform="translate(-8.725 -10.317)" fill="#231f20"/>
    <path id="Path_1048" data-name="Path 1048" d="M96.858,128.28s-15.413,34.712-8.136,42.64,46.1-7.575,46.1-7.575c6.653-1.329,13.822-3.67,15.693-11.164.235-.958.253-2.179-.579-2.712a2.45,2.45,0,0,0-1.464-.253,16.272,16.272,0,0,0-4.9,1.021l.045-3.019c-3.688,3.11-8.036,6.545-12.854,7.367-3.173.533-6.518.588-9.727.841q-8.389.669-16.787,1.22s3.7-13.433,6.391-21.062" transform="translate(-3.194 -9.589)" fill="#fff"/>
    <path id="Path_1049" data-name="Path 1049" d="M96.555,173.568c-3.616,0-6.6-.669-8.136-2.386-7.431-8.054,7.385-41.709,8.027-43.137a.452.452,0,0,1,.823.371c-.154.344-15.214,34.531-8.19,42.152,2.866,3.11,11.634,2.784,25.311-.9a213.686,213.686,0,0,0,20.276-6.753c6.662-1.329,13.623-3.616,15.422-10.848.1-.4.371-1.736-.38-2.215a1.989,1.989,0,0,0-1.193-.181,15.613,15.613,0,0,0-4.764.994.443.443,0,0,1-.425-.054.461.461,0,0,1-.19-.38v-2.034c-3.616,2.992-7.738,6.057-12.312,6.834a63.564,63.564,0,0,1-6.933.66c-.949.063-1.889.118-2.829.19-5.189.407-10.685.8-16.8,1.22a.443.443,0,0,1-.38-.163.479.479,0,0,1-.09-.407c0-.136,3.742-13.559,6.409-21.089a.452.452,0,0,1,.569-.28.461.461,0,0,1,.28.579c-2.332,6.6-5.424,17.7-6.21,20.411,5.849-.4,11.146-.777,16.145-1.175.9-.072,1.9-.127,2.847-.181a63.755,63.755,0,0,0,6.843-.66c4.673-.8,8.967-4.167,12.655-7.232a.479.479,0,0,1,.488-.063.47.47,0,0,1,.262.416v2.377a16.334,16.334,0,0,1,4.411-.832,2.884,2.884,0,0,1,1.736.325c.859.542,1.139,1.708.768,3.2-1.916,7.7-9.184,10.133-16.036,11.5C133.717,164.221,110.141,173.568,96.555,173.568Z" transform="translate(-3.152 -9.543)" fill="#231f20"/>
    <path id="Path_1050" data-name="Path 1050" d="M139.909,258.2s10.4,1.473,11.48,1.473l5.37-2.8s10.983,4.583,9.41,6.057-24.335,1.808-26.26.741S139.909,258.2,139.909,258.2Z" transform="translate(-8.215 -21.938)" fill="#231f20"/>
    <path id="Path_1051" data-name="Path 1051" d="M150.08,264.678c-5.1,0-9.6-.235-10.4-.66-2.215-1.2-.407-5.559-.2-6.048a.452.452,0,0,1,.479-.271c2.793.4,10.061,1.41,11.309,1.473l5.27-2.757a.461.461,0,0,1,.38,0c2.224.9,9.492,4.095,9.826,5.975a.9.9,0,0,1-.28.832C165.384,264.226,157.158,264.678,150.08,264.678Zm-9.889-6.029c-.488,1.257-1.229,3.95-.072,4.574,2.079,1.112,24.407.533,25.736-.669.045-.75-4.176-3.173-9.04-5.234l-5.189,2.712a.533.533,0,0,1-.208.045c-1.04,0-9.374-1.166-11.227-1.428Z" transform="translate(-8.171 -21.891)" fill="#231f20"/>
    <path id="Path_1052" data-name="Path 1052" d="M193.043,249.089s10.387,1.482,11.471,1.482l5.424-2.811s10.983,4.583,9.41,6.066-24.344,1.808-26.26.732S193.043,249.089,193.043,249.089Z" transform="translate(-13.321 -21.063)" fill="#231f20"/>
    <path id="Path_1053" data-name="Path 1053" d="M203.169,255.572c-5.1,0-9.6-.235-10.4-.66-2.224-1.193-.416-5.55-.2-6.048a.452.452,0,0,1,.479-.262c2.784.4,10.052,1.4,11.309,1.464l5.27-2.712a.434.434,0,0,1,.38,0c2.224.9,9.483,4.095,9.826,5.966a.9.9,0,0,1-.28.841C218.473,255.166,210.238,255.572,203.169,255.572Zm-9.9-6.029c-.479,1.266-1.229,3.95-.063,4.574,2.07,1.121,24.407.542,25.727-.669.054-.741-4.167-3.164-9.04-5.234l-5.189,2.712a.415.415,0,0,1-.208.054c-1.04,0-9.374-1.175-11.227-1.437Z" transform="translate(-13.269 -21.02)" fill="#231f20"/>
    <path id="Path_1054" data-name="Path 1054" d="M147.43,104.96,167.8,109.7l-.786,17.293h-17.5Z" transform="translate(-9.019 -7.349)" fill="#ff3f01"/>
    <path id="Path_1055" data-name="Path 1055" d="M157.648,132.476a.452.452,0,0,1-.443-.389l-2.866-20.411a.456.456,0,1,1,.9-.118l2.866,20.4a.443.443,0,0,1-.389.506Z" transform="translate(-9.683 -7.945)" fill="#231f20"/>
    <path id="Path_1056" data-name="Path 1056" d="M113.182,135.517a.425.425,0,0,1-.154,0,.443.443,0,0,1-.271-.579l4.212-11.752a.452.452,0,1,1,.85.307l-4.212,11.752a.452.452,0,0,1-.425.271Z" transform="translate(-5.687 -9.07)" fill="#231f20"/>
    <path id="Path_1057" data-name="Path 1057" d="M173.938,191.562h-.145a.461.461,0,0,1-.28-.579c.045-.136,4.755-14.1,1.88-17.88-1.907-2.495-8.66-4.032-8.732-4.041a.463.463,0,1,1,.2-.9c.289.063,7.15,1.618,9.248,4.375,3.173,4.167-1.537,18.133-1.745,18.721a.443.443,0,0,1-.425.307Z" transform="translate(-10.831 -13.418)" fill="#fff"/>
  </g>
</svg>
