<svg xmlns="http://www.w3.org/2000/svg" width="197.919" height="178.526" viewBox="0 0 197.919 178.526">
  <g id="puzzle" transform="translate(-0.583 -2.29)">
    <g id="Group_606" data-name="Group 606" transform="translate(0.583 2.29)">
      <path id="Path_861" data-name="Path 861" d="M178.144,36.876c0,39.3,20.358,66.291,20.358,85.229s-10.887,58.712-98.008,58.712S.583,127.31.583,106.48c0-97.542,177.561-139.208,177.561-69.6Z" transform="translate(-0.583 -2.29)" fill="#efefef"/>
    </g>
    <g id="Group_607" data-name="Group 607" transform="translate(17.157 43.257)">
      <path id="Path_862" data-name="Path 862" d="M12.023,26.546a8.523,8.523,0,1,1,8.523-8.523A8.533,8.533,0,0,1,12.023,26.546Zm0-11.364a2.841,2.841,0,1,0,2.841,2.841A2.849,2.849,0,0,0,12.023,15.182Z" transform="translate(-3.5 -9.5)" fill="#a4afc1"/>
    </g>
    <g id="Group_608" data-name="Group 608" transform="translate(35.622 58.882)">
      <path id="Path_863" data-name="Path 863" d="M62.662,43.5a17.046,17.046,0,1,1,18.864,0h24.66v18.58a17.043,17.043,0,1,0,0,25.336v15.739a5.684,5.684,0,0,1-5.682,5.682H40.843a5.684,5.684,0,0,1-5.682-5.682V87.416a17.043,17.043,0,1,1,0-25.336V43.5Z" transform="translate(-6.75 -12.25)" fill="#ff3d00"/>
    </g>
    <g id="Group_609" data-name="Group 609" transform="translate(64.028 27.631)">
      <path id="Path_864" data-name="Path 864" d="M110.893,31.944a17.016,17.016,0,0,0-28.12-9.449V12.432A5.684,5.684,0,0,0,77.091,6.75H17.431a5.684,5.684,0,0,0-5.682,5.682V69.251h27.5a17.046,17.046,0,1,1,18.864,0h24.66V47.83a16.849,16.849,0,0,0,11.364,4.375A17.046,17.046,0,0,0,110.893,31.944Z" transform="translate(-11.749 -6.75)" fill="#f3f3f1"/>
    </g>
    <g id="Group_610" data-name="Group 610" transform="translate(83.92 58.882)">
      <path id="Path_865" data-name="Path 865" d="M22.864,43.5H35.648a17.037,17.037,0,0,1,3.04-29.989A17.04,17.04,0,0,0,22.864,43.5Z" transform="translate(-15.25 -12.25)" fill="#ce3200"/>
    </g>
    <g id="Group_611" data-name="Group 611" transform="translate(130.148 134.054)">
      <path id="Path_866" data-name="Path 866" d="M28.3,25.48a16.974,16.974,0,0,1-4.909,3.08A16.779,16.779,0,0,0,28.3,29.7Z" transform="translate(-23.386 -25.48)" fill="#00b871"/>
    </g>
    <g id="Group_612" data-name="Group 612" transform="translate(129.927 104.525)">
      <path id="Path_867" data-name="Path 867" d="M28.478,20.283a16.962,16.962,0,0,0-2.25.2,15.615,15.615,0,0,0-2.881.92,16.784,16.784,0,0,1,5.131,3.074Z" transform="translate(-23.347 -20.283)" fill="#00b871"/>
    </g>
    <g id="Group_613" data-name="Group 613" transform="translate(64.033 90.133)">
      <path id="Path_868" data-name="Path 868" d="M13.17,31.955A16.849,16.849,0,0,1,24.534,36.33V17.75H11.75V32.114C12.227,32.074,12.682,31.955,13.17,31.955Z" transform="translate(-11.75 -17.75)" fill="#ce3200"/>
    </g>
    <g id="Group_614" data-name="Group 614" transform="translate(35.632 104.337)">
      <path id="Path_869" data-name="Path 869" d="M19.823,40.512A17,17,0,0,1,30.25,21.545a16.843,16.843,0,0,0-6.455-1.3,17.032,17.032,0,1,0,6.239,32.79,17.046,17.046,0,0,1-10.21-12.529Z" transform="translate(-6.751 -20.25)" fill="#ce3200"/>
    </g>
    <g id="Group_615" data-name="Group 615" transform="translate(64.033 134.054)">
      <path id="Path_870" data-name="Path 870" d="M24.534,41.219V25.48A16.842,16.842,0,0,1,11.75,29.668V41.219A5.684,5.684,0,0,0,17.432,46.9H30.216A5.684,5.684,0,0,1,24.534,41.219Z" transform="translate(-11.75 -25.48)" fill="#ce3200"/>
    </g>
    <g id="Group_616" data-name="Group 616" transform="translate(64.033 27.631)">
      <path id="Path_871" data-name="Path 871" d="M30.216,6.75H17.432a5.684,5.684,0,0,0-5.682,5.682V69.251H24.534V12.432A5.684,5.684,0,0,1,30.216,6.75Z" transform="translate(-11.75 -6.75)" fill="#d5dbe1"/>
    </g>
    <g id="Group_617" data-name="Group 617" transform="translate(99.545 23.37)">
      <path id="Path_872" data-name="Path 872" d="M53.512,77.024H28.853V68.5h20.4V51.342a4.261,4.261,0,0,1,7.119-3.165A13.119,13.119,0,0,0,74.7,46.865,12.775,12.775,0,0,0,56.376,29.148,4.262,4.262,0,0,1,49.251,26V15.943a1.421,1.421,0,0,0-1.42-1.42H18V6H47.83a9.954,9.954,0,0,1,9.943,9.943v2.631a21.548,21.548,0,0,1,11.637-.739A21.218,21.218,0,0,1,85.825,34.694,21.459,21.459,0,0,1,81.24,52.331a21.7,21.7,0,0,1-23.466,6.426V72.763A4.263,4.263,0,0,1,53.512,77.024Z" transform="translate(-18 -6)"/>
    </g>
    <g id="Group_618" data-name="Group 618" transform="translate(59.772 23.37)">
      <path id="Path_873" data-name="Path 873" d="M42.762,77.024h-27.5A4.263,4.263,0,0,1,11,72.763V15.943A9.954,9.954,0,0,1,20.943,6H39.41v8.523H20.943a1.421,1.421,0,0,0-1.42,1.42V68.5H42.762Z" transform="translate(-11 -6)"/>
    </g>
    <g id="Group_619" data-name="Group 619" transform="translate(31.366 54.62)">
      <path id="Path_874" data-name="Path 874" d="M104.01,116.616H44.35a9.954,9.954,0,0,1-9.943-9.943V98.36A21.666,21.666,0,0,1,22.77,99.1,21.218,21.218,0,0,1,6.355,82.24,21.459,21.459,0,0,1,10.94,64.6a21.723,21.723,0,0,1,23.466-6.426V47.012a4.263,4.263,0,0,1,4.261-4.261H56.754a21.307,21.307,0,1,1,37.694,0h15.245a4.263,4.263,0,0,1,4.261,4.261v18.58a4.262,4.262,0,0,1-7.125,3.159A12.778,12.778,0,0,0,88.5,86.468a13.112,13.112,0,0,0,18.33,1.313,4.261,4.261,0,0,1,7.119,3.153v15.739a9.954,9.954,0,0,1-9.943,9.943ZM38.668,86.672a4.255,4.255,0,0,1,4.261,4.261v15.739a1.421,1.421,0,0,0,1.42,1.42h59.66a1.421,1.421,0,0,0,1.42-1.42V98.348a21.681,21.681,0,0,1-23.466-6.426,21.459,21.459,0,0,1-4.585-17.637A21.218,21.218,0,0,1,93.794,57.427a21.563,21.563,0,0,1,11.637.739V51.274h-20.4a4.26,4.26,0,0,1-2.364-7.807,12.784,12.784,0,1,0-14.137,0,4.26,4.26,0,0,1-2.364,7.807H42.93V65.592a4.261,4.261,0,0,1-7.119,3.165,13.1,13.1,0,0,0-18.33,1.313A12.775,12.775,0,0,0,35.8,87.786a4.233,4.233,0,0,1,2.864-1.114Z" transform="translate(-6.001 -11.5)"/>
    </g>
    <g id="Group_620" data-name="Group 620" transform="translate(8.634 151.214)">
      <path id="Path_875" data-name="Path 875" d="M2,28.5H183.822v8.523H2Z" transform="translate(-2 -28.5)"/>
    </g>
  </g>
</svg>
