<svg xmlns="http://www.w3.org/2000/svg" xmlns:xlink="http://www.w3.org/1999/xlink" width="491.414" height="337.193" viewBox="0 0 491.414 337.193">
  <defs>
    <linearGradient id="linear-gradient" x1="0.456" y1="0.646" x2="0.658" y2="0.166" gradientUnits="objectBoundingBox">
      <stop offset="0" stop-color="#17aa4f"/>
      <stop offset="1" stop-color="#003128"/>
    </linearGradient>
    <linearGradient id="linear-gradient-2" x1="0.347" y1="0.665" x2="0.722" y2="0.198" xlink:href="#linear-gradient"/>
    <linearGradient id="linear-gradient-3" x1="0.369" y1="0.691" x2="0.74" y2="-0.127" gradientUnits="objectBoundingBox">
      <stop offset="0" stop-opacity="0"/>
      <stop offset="0.99" stop-color="#552800"/>
    </linearGradient>
    <linearGradient id="linear-gradient-4" x1="0.369" y1="0.738" x2="0.74" y2="0.049" xlink:href="#linear-gradient-3"/>
  </defs>
  <g id="Receptionist_Isometric" transform="translate(-16.538 -37.393)">
    <path id="Path_1" data-name="Path 1" d="M254.958,358.873,26.093,223.611c-7.284-4.086-13.533-10.813-6.435-15.2L249.332,76.023c3.45-2.136,8.677-3.529,12.18-1.5L501.786,213.952c7.284,4.232,8.6,16.054,1.327,20.286L285.154,358.66a30.435,30.435,0,0,1-30.2.212Z" transform="translate(0 11.809)" fill="#17aa4f"/>
    <path id="Path_2" data-name="Path 2" d="M295,277.785l-70.7,40.439L61.94,222.261l92.873-52.951" transform="translate(14.835 43.104)" fill="url(#linear-gradient)"/>
    <path id="Path_3" data-name="Path 3" d="M235.829,78.126,235.55,88s8.451,3.808,12.724,2.654V74.73" transform="translate(71.562 12.2)" fill="#e5b79e"/>
    <path id="Path_4" data-name="Path 4" d="M232,63.36s-.292,15.921-1.181,18.919,8.637,1.526,9.009-2.972" transform="translate(69.996 8.485)" fill="#f7931e"/>
    <path id="Path_5" data-name="Path 5" d="M232.009,68.393c-.159.5,0,16.584,4.922,18.123,7.748,2.428,12.432-3.98,14.78-9.009s.862-19.463-7.562-20.379S233.508,63.8,232.009,68.393Z" transform="translate(70.393 6.424)" fill="#ffd9c0"/>
    <path id="Path_6" data-name="Path 6" d="M232.8,70.005s-3.476-1.393-3.251-6.249A12.631,12.631,0,0,1,242.09,52.121c8.133-.159,21.082,5.148,17.38,18.017-3.98,13.692-10.242,14.21-10.242,14.21s3.025-7.39,2.242-10.986-1.7-7.218-1.7-6.886.226,4.856.226,4.856-5.838.345-6.077,0-1.831-5.426-1.831-5.426v5.426Z" transform="translate(69.599 4.811)" fill="#f7931e"/>
    <path id="Path_7" data-name="Path 7" d="M245.57,70.827s1.207-6.806,3.423-5.4,1.7,6.873-2.72,8.412" transform="translate(74.836 9.098)" fill="#ffd9c0"/>
    <path id="Path_8" data-name="Path 8" d="M256.36,61.173s1.658,20.817-.6,24.412-9.446,5.241-13.9,4.139,5.307-12.923,4.458-18.2-2.1-10.362-2.1-10.362" transform="translate(73.241 7.766)" fill="#f7931e"/>
    <path id="Path_9" data-name="Path 9" d="M236.047,80.348a8.677,8.677,0,0,0-8.558,0c-4.935,2.468-5.506,23.709-5.705,29.348s-.186,18.575-1.327,25.394-7.417,24.134-5.705,25.659,7.218,6.077,9.287,3.808S235.98,95.433,235.98,95.433" transform="translate(64.671 13.667)" fill="#ffe8d9"/>
    <path id="Path_10" data-name="Path 10" d="M253.141,86.559l-5.917-1.5a1.473,1.473,0,0,1-1.035,1.194c-2.654.862-6.634-.252-7.8-2.972a1.632,1.632,0,0,1-.106-.5l-4.458-1.128c.239.637-7.284,2.521-6.859,9.407s-.08,14.183,5.015,15.165a52.036,52.036,0,0,0,10,.836l8.982-6.634,3.41-8.558Z" transform="translate(68.751 14.461)" fill="#ffe8d9"/>
    <path id="Path_11" data-name="Path 11" d="M258.914,129.348c1.778-11.609,13.387-27.3,9.7-34.416-2.3-4.431-8.093-7.682-13.122-10.1a1.522,1.522,0,0,1,0,.159c-.172.385-.385.756-.57,1.128a1.539,1.539,0,0,1,.942,1.327,12.724,12.724,0,0,1-2.255,7.217,41.251,41.251,0,0,1-4.325,6.753c-2.733,3.131-7.43,5.121-11.463,3.33-6.766-3.012-5.705-13.825-2.786-19.158a1.459,1.459,0,0,1,2.362-.292l.451-.637c.106-.159.186-.318.292-.464s.093-.093.146-.146h0a1.592,1.592,0,0,1,.385-.318,1.473,1.473,0,0,1,.133-.119,1.327,1.327,0,0,1,0-.557,10.189,10.189,0,0,1,2.441-3.622h0s-10.919-1.327-11.941,0-3.6,13-4.909,17.128c-3.357,10.508-6.475,9.553-.08,25.832,4.816,12.272-2.919,30.223-3.2,38.144a189.144,189.144,0,0,1-2.454,20.339s44.1,22.342,46.7,22.886,1.645-32.227,0-39.6S257.162,140.957,258.914,129.348Z" transform="translate(66.043 13.545)" fill="#603813"/>
    <path id="Path_12" data-name="Path 12" d="M237.379,79.24s-7.536,5.307-6.567,7.642,3.237,6.554,3.237,6.554l5.785-5.466s1.327,8.186,2.653,8.2c5.307,0,9.8-9.433,10.07-10.243s-3.834-4.352-3.834-4.352-3.98,5.307-8.067,4.4S237.379,79.24,237.379,79.24Z" transform="translate(69.986 13.674)" fill="#f78b72"/>
    <path id="Path_13" data-name="Path 13" d="M236.646,89.8a1.566,1.566,0,1,0,1.566,1.566A1.566,1.566,0,0,0,236.646,89.8Z" transform="translate(71.409 17.124)" fill="#7896b5"/>
    <path id="Path_14" data-name="Path 14" d="M235.516,94a1.566,1.566,0,1,0,1.566,1.566A1.566,1.566,0,0,0,235.516,94Z" transform="translate(71.039 18.497)" fill="#7896b5"/>
    <path id="Path_15" data-name="Path 15" d="M265.839,88c.6,0,5.506,2.839,5.891,9.022s-5.307,17.394-10.614,25.208-16.16,22.993-19.012,28.9-9.5,14.448-9.5,14.448-7.881-.557-9.5-6.461c-1.008-3.662,11.795-18.813,15.788-25.089S257.281,88.756,265.839,88Z" transform="translate(67.477 16.536)" fill="#ffe8d9"/>
    <path id="Path_16" data-name="Path 16" d="M94.066,177.369c.239-.823.478-1.632.69-2.455-8.412-3.728-18.76-5.042-25.208-11.224L24.77,188.646c7.111,6.634,15.364,12.14,22.794,18.415L93.058,181.2q.212-.942.464-1.884a.889.889,0,0,1,0-.969Z" transform="translate(2.69 41.268)" fill="url(#linear-gradient-2)"/>
    <path id="Path_17" data-name="Path 17" d="M81.583,152.459c-.955-2.056-5.2-3.609-10.282-3.609s-9.526,1.632-10.335,3.768c-5.984,8.372-11.861,22-4.511,31.126a18.734,18.734,0,0,0,14.435,6.528h.889a18.734,18.734,0,0,0,14.382-6.528C93.6,174.549,87.606,160.817,81.583,152.459Z" transform="translate(11.923 36.419)" fill="#57c0ed"/>
    <ellipse id="Ellipse_1" data-name="Ellipse 1" cx="10.481" cy="4.498" rx="10.481" ry="4.498" transform="translate(72.742 185.269)" opacity="0.5"/>
    <path id="Path_18" data-name="Path 18" d="M80.106,125.972A86.743,86.743,0,0,0,68.47,161.9a250.9,250.9,0,0,0-4.206-45.746c-.106-.531-.916-.306-.823.225a249.709,249.709,0,0,1,4.126,51.173.4.4,0,0,0,.544.385v.371a.425.425,0,0,0,.849,0A85.854,85.854,0,0,1,80.9,126.384a.448.448,0,0,0-.8-.411Z" transform="translate(15.323 25.637)" fill="#fe6162"/>
    <path id="Path_19" data-name="Path 19" d="M72.085,141.038s6.488-20.87,20.419-28.578c0,0-2.826,4.139-1.5,7.523s3.383,9.407-3.2,12.8-10.349,0-9.791,6.634,3.171,9.791-1.048,12.989-7.828,5.984-9.287,12.869C67.786,165.238,69.431,147.977,72.085,141.038Z" transform="translate(16.711 24.528)" fill="#f22e52"/>
    <path id="Path_20" data-name="Path 20" d="M69.81,142.241s-2.654-32.054-8.332-40.161A14.9,14.9,0,0,1,59.9,111.1c-2.441,4.63-5.068,6.249-3.662,12.286s7.138,4.829,6.634,10.879-5.307,4.909-2.932,12.525S70.46,159.435,70.46,159.435" transform="translate(12.843 21.137)" fill="#f22e52"/>
    <path id="Path_21" data-name="Path 21" d="M111.8,131.64v62.835a12.234,12.234,0,0,0,5.946,10.5l141.96,85.07a18.574,18.574,0,0,0,19.026.08l54.9-32.346a15.311,15.311,0,0,0,7.523-12.525l2.309-53.07" transform="translate(31.127 30.795)" fill="#57c0ed"/>
    <path id="Path_22" data-name="Path 22" d="M287.694,168.42v11.742H283.74l-1.38-6.461" transform="translate(86.857 42.813)" fill="#a85c5c"/>
    <path id="Path_23" data-name="Path 23" d="M111.8,143.2V131.64l4.856,6.395Z" transform="translate(31.127 30.795)" fill="#a85c5c"/>
    <path id="Path_24" data-name="Path 24" d="M116.5,142.918l61.628-35.583a14.369,14.369,0,0,1,14.369,0l146.155,84.381a9.606,9.606,0,0,1,0,16.637L276.921,244a13.745,13.745,0,0,1-13.745,0L116.5,159.263a9.473,9.473,0,0,1,0-16.346Z" transform="translate(31.133 22.224)" fill="#a85c5c"/>
    <path id="Path_25" data-name="Path 25" d="M115.985,135l61.628-35.53a14.369,14.369,0,0,1,14.369,0l146.155,84.381a9.606,9.606,0,0,1,0,16.637L276.4,236.129a13.745,13.745,0,0,1-13.745,0L115.985,151.4a9.473,9.473,0,0,1,0-16.4Z" transform="translate(30.949 19.656)" fill="#c96f6f"/>
    <path id="Path_26" data-name="Path 26" d="M175.37,147.967c.942.239,28.976,17.248,28.976,17.248l41-23.271L217.229,125.2Z" transform="translate(51.898 28.691)" fill="#fff"/>
    <path id="Path_27" data-name="Path 27" d="M173,162.227c.942.239,28.976,17.248,28.976,17.248l41-23.271L214.859,139.46Z" transform="translate(51.124 33.351)" fill="#57c0ed"/>
    <path id="Path_28" data-name="Path 28" d="M230.064,192.145a78.507,78.507,0,0,0,7.616,2.043,38.964,38.964,0,0,0,4.763.544l2.653-1.818L263.67,179.13l-14.183-4.71L216,186.109C220.086,189.147,225.208,190.659,230.064,192.145Z" transform="translate(65.174 44.774)" opacity="0.32" fill="url(#linear-gradient-3)"/>
    <path id="Path_29" data-name="Path 29" d="M248.617,167.6a15.735,15.735,0,0,1-9.287-3.6v9.911a10.3,10.3,0,0,0,10.3,10.3h0a10.3,10.3,0,0,0,10.3-10.3V163.83C256.352,165.276,252.372,167.93,248.617,167.6Z" transform="translate(72.797 41.314)" fill="#57c0ed"/>
    <ellipse id="Ellipse_2" data-name="Ellipse 2" cx="10.296" cy="5.453" rx="10.296" ry="5.453" transform="translate(312.074 199.81)" fill="#5ed18d"/>
    <path id="Path_30" data-name="Path 30" d="M249.229,167.662s-6.992-1.035-8.849-12.352C240.38,155.31,246.35,158.6,249.229,167.662Z" transform="translate(73.14 38.53)" fill="#5ed18d"/>
    <path id="Path_31" data-name="Path 31" d="M248.7,169.461s-7.96-14.409,0-24.081A40.36,40.36,0,0,1,248.7,169.461Z" transform="translate(74.703 35.285)" fill="#5ed18d"/>
    <path id="Path_32" data-name="Path 32" d="M249.229,159.742s-6.992-1.035-8.849-12.352C240.38,147.4,246.35,150.694,249.229,159.742Z" transform="translate(73.14 35.942)" fill="#5ed18d"/>
    <path id="Path_33" data-name="Path 33" d="M247.72,163.366s-1.751-6.846,7.961-12.936C255.694,150.43,254.964,157.21,247.72,163.366Z" transform="translate(75.499 36.935)" fill="#5ed18d"/>
    <ellipse id="Ellipse_3" data-name="Ellipse 3" cx="10.296" cy="5.453" rx="10.296" ry="5.453" transform="translate(312.074 199.81)" fill="#146666"/>
    <path id="Path_34" data-name="Path 34" d="M249.229,167.662s-6.992-1.035-8.849-12.352C240.38,155.31,246.35,158.6,249.229,167.662Z" transform="translate(73.14 38.53)" fill="#5ed18d"/>
    <path id="Path_35" data-name="Path 35" d="M248.7,169.461s-7.96-14.409,0-24.081A40.36,40.36,0,0,1,248.7,169.461Z" transform="translate(74.703 35.285)" fill="#5ed18d"/>
    <path id="Path_36" data-name="Path 36" d="M249.229,159.742s-6.992-1.035-8.849-12.352C240.38,147.4,246.35,150.694,249.229,159.742Z" transform="translate(73.14 35.942)" fill="#5ed18d"/>
    <path id="Path_37" data-name="Path 37" d="M247.72,163.366s-1.751-6.846,7.961-12.936C255.694,150.43,254.964,157.21,247.72,163.366Z" transform="translate(75.499 36.935)" fill="#5ed18d"/>
    <path id="Path_38" data-name="Path 38" d="M144.035,139.708c1.619.491,3.237.982,4.882,1.327,1.008.2-3.144.279-2.123.358l1.579-1.114,17.248-8.9-12.976-5.466L135,135.834A29.8,29.8,0,0,0,144.035,139.708Z" transform="translate(38.707 28.923)" opacity="0.32" fill="url(#linear-gradient-4)"/>
    <path id="Path_39" data-name="Path 39" d="M145.11,115v18.349s17.646.982,17.646,0V115" transform="translate(42.011 25.358)" fill="#57c0ed"/>
    <ellipse id="Ellipse_4" data-name="Ellipse 4" cx="8.823" cy="4.033" rx="8.823" ry="4.033" transform="translate(187.121 154.488)" fill="#57c0ed"/>
    <ellipse id="Ellipse_5" data-name="Ellipse 5" cx="8.823" cy="4.033" rx="8.823" ry="4.033" transform="translate(187.121 136.285)" fill="#3129a3"/>
    <path id="Path_40" data-name="Path 40" d="M148.25,122.231h0q.5.179,1.035.318l-2.4-20.1a1.207,1.207,0,0,0-1.234.226l2.468,19.49Z" transform="translate(42.187 21.231)" fill="#f78b72"/>
    <path id="Path_41" data-name="Path 41" d="M149.954,122.489l.743-18.866a1.207,1.207,0,0,0-1.247,0l-.61,18.681a9.883,9.883,0,0,0,1.115.186Z" transform="translate(43.23 21.584)" fill="#f78b72"/>
    <path id="Path_42" data-name="Path 42" d="M151.76,122.842l2.428-19.662,4.909,2.653-1.99,16.518A15.005,15.005,0,0,1,151.76,122.842Z" transform="translate(44.184 21.496)" fill="#fcb749"/>
    <path id="Path_43" data-name="Path 43" d="M234.38,102.12l9.115,5.135-.557,3.609L234.38,105.8Z" transform="translate(71.18 21.15)" fill="#f7931e"/>
    <path id="Path_44" data-name="Path 44" d="M385.16,79.407l-1.5,82.259a5.174,5.174,0,0,1-7.483,4.537l-69.893-34.814a6.846,6.846,0,0,1-3.795-6.249l1.5-82.259A5.6,5.6,0,0,1,312.122,38l69.323,35.185a6.846,6.846,0,0,1,3.715,6.222Z" transform="translate(93.435 0)" fill="#57c0ed"/>
    <path id="Path_45" data-name="Path 45" d="M315.34,62.58s-9.062,24.678,2.906,37.149,31.55,19.8,31.55,19.8S355.646,72.026,315.34,62.58Z" transform="translate(96.559 8.23)" fill="#fff"/>
    <path id="Path_46" data-name="Path 46" d="M347.729,99.39s-10.773-12.339,0-24.16A28.485,28.485,0,0,1,347.729,99.39Z" transform="translate(106.652 12.363)" fill="#fff"/>
    <path id="Path_47" data-name="Path 47" d="M343.08,114.071s.212-16.385,16.133-17.991a28.485,28.485,0,0,1-16.133,17.991Z" transform="translate(106.698 19.176)" fill="#fff"/>
    <path id="Path_48" data-name="Path 48" d="M349.945,118.656c-1.964-2.574-3.861-5.2-5.745-7.841a49.294,49.294,0,0,1,.305-5.917,51.566,51.566,0,0,0-.186-6.169c-.093-1.1-1.818-1.114-1.725,0a50.787,50.787,0,0,1,.186,6.169c0,1.168-.2,2.335-.279,3.489q-4.365-6.289-8.4-12.8a79.864,79.864,0,0,0-.969-14.435c-.172-1.1-1.844-.637-1.672.464a76.7,76.7,0,0,1,.915,11.145q-6.634-11.118-12.405-22.82c-.491-1-1.977-.119-1.486.876q3.158,6.5,6.634,12.83l-9.99-3.012a.868.868,0,1,0-.464,1.672l11.41,3.436a.822.822,0,0,0,.239,0q5.307,9.592,11.476,18.734c-3.131-1.061-6.222-2.216-9.287-3.569-1.008-.451-1.884,1.035-.876,1.486a112.389,112.389,0,0,0,11.7,4.445h0c2.906,4.285,5.9,8.531,9.048,12.67C349.122,120.394,350.621,119.532,349.945,118.656Z" transform="translate(97.206 10.491)" fill="#68e1fd"/>
  </g>
</svg>
