<svg xmlns="http://www.w3.org/2000/svg" width="482.47" height="338.408" viewBox="0 0 482.47 338.408">
  <g id="sending_emails" transform="translate(-50.32 -42.85)">
    <path id="Path_1058" data-name="Path 1058" d="M438.837,174.929v190.7H86.74v-190.7L262.8,68.48Z" transform="translate(21.092 14.843)" fill="#f1f2f2"/>
    <path id="Path_1059" data-name="Path 1059" d="M439.144,366.706H87a.79.79,0,0,1-.79-.79v-190.7a.79.79,0,0,1,.395-.679L262.74,68.093a.774.774,0,0,1,.821,0L439.6,174.542a.79.79,0,0,1,.379.679v190.7a.79.79,0,0,1-.837.79ZM87.836,365.127H438.4V175.632L263.119,69.657,87.836,175.632Z" transform="translate(20.785 14.551)" fill="#231f20"/>
    <path id="Path_1060" data-name="Path 1060" d="M267.5,107.026s8.132-15.191,7.074-25.266-11.054-11.875-11.054-11.875-24.113-12.554-29.7-21.255l.189,12.728a35.451,35.451,0,0,1-11.891-6.932s-3.758,6.49.3,12.27c0,0-7.106,1.39-11.78-3.316,0,0,2.384,19.107,19.234,21.571C240.975,86.5,255.424,107.768,267.5,107.026Z" transform="translate(92.845 3.347)" fill="#fff"/>
    <path id="Path_1061" data-name="Path 1061" d="M267.168,108.17c-6.664,0-13.817-6-20.734-11.8C240.5,91.4,234.907,86.694,230.075,86c-17.244-2.527-19.881-22.108-19.913-22.266a.79.79,0,0,1,1.342-.647,12.823,12.823,0,0,0,9.885,3.158c-3.158-5.8.205-11.764.363-12.017a.774.774,0,0,1,1.184-.221,38.753,38.753,0,0,0,10.58,6.443l-.174-11.607a.758.758,0,0,1,.553-.758.79.79,0,0,1,.9.316c5.243,8.148,27.635,20.039,29.309,20.923,1.216.268,10.485,2.59,11.543,12.633,1.074,10.28-6.838,25.171-7.169,25.8a.79.79,0,0,1-.647.411Zm.616-.805Zm-55.633-41.7c1.2,4.927,5.4,16.9,18.16,18.776,5.258.774,11.054,5.606,17.134,10.722,6.711,5.622,13.628,11.433,19.723,11.433h.126C268.542,104.143,275,91,274.069,82.1c-.979-9.475-10-11.054-10.375-11.18l-.221-.079c-.932-.474-21.1-11.054-28.519-19.565l.158,10.327a.805.805,0,0,1-.3.632.79.79,0,0,1-.695.142,34.852,34.852,0,0,1-11.4-6.506,10.77,10.77,0,0,0,.663,10.58.853.853,0,0,1,.079.758.79.79,0,0,1-.584.474,15.586,15.586,0,0,1-10.722-2.021Z" transform="translate(92.565 3.009)" fill="#231f20"/>
    <path id="Path_1062" data-name="Path 1062" d="M271.236,236.816s38.862-47.074,45.289-83.03-16.028-44.215-23.861-46.9-48.653-19.613-69.15-4.832S182.6,209.04,182.6,209.04Z" transform="translate(76.607 30.822)" fill="#ff3f01"/>
    <path id="Path_1063" data-name="Path 1063" d="M167.009,249.038l41.8-52.111s29.087-37.094,12.838-41.057c0,0-22.55,2.937-59.391,15.791-10.943,3.806-29.751,47.263-41.626,77.377Z" transform="translate(40.718 65.453)" fill="#231f20"/>
    <path id="Path_1064" data-name="Path 1064" d="M167.308,250.112H120.85a.774.774,0,0,1-.647-.347.79.79,0,0,1,0-.726c13.17-33.414,31.172-74.061,42.1-77.867,36.478-12.633,59.312-15.791,59.549-15.791h.284a6.6,6.6,0,0,1,5.069,4.3c3.743,10.738-16.6,36.857-17.465,37.9l-41.815,52.111a.79.79,0,0,1-.616.426Zm-45.21-1.579h44.831l41.436-51.874c.205-.253,20.671-26.529,17.228-36.446a4.974,4.974,0,0,0-3.822-3.237c-1.99.268-24.287,3.585-59.075,15.7-8.022,2.8-22.424,29.719-40.678,75.861Z" transform="translate(40.419 65.169)" fill="#231f20"/>
    <path id="Path_1065" data-name="Path 1065" d="M213.765,244.886l10.612-25.85s25.9,7.754,43.173,1.247c12.159-4.579,15.87-20.292,21.366-33.02,0,0-72.64-17.212-88.857-24.224,0,0-1.011,0-19.6,19.518-8.306,8.764-14.923,35.467-19.692,62.328Z" transform="translate(63.964 69.605)" fill="#231f20"/>
    <path id="Path_1066" data-name="Path 1066" d="M214.058,245.969h-53a.79.79,0,0,1-.616-.284.821.821,0,0,1-.174-.632c6.064-34.109,12.775-55.269,19.913-62.739,18.823-19.834,19.834-19.786,20.2-19.771a.916.916,0,0,1,.284,0c16.028,7.043,88,24.082,88.668,24.255a.76.76,0,0,1,.521,1.074c-1.026,2.369-2.005,4.9-2.953,7.327-4.248,10.943-8.654,22.266-18.871,26.119-15.949,6-38.657.158-42.984-1.042l-10.343,25.266A.774.774,0,0,1,214.058,245.969Zm-52.111-1.579h51.59l10.422-25.361a.774.774,0,0,1,.947-.458c.268,0,25.85,7.6,42.636,1.263,9.475-3.585,13.817-14.575,17.955-25.266.837-2.163,1.705-4.39,2.606-6.522-8.385-2.005-71.866-17.26-87.689-23.892-.9.679-4.627,3.948-19.107,19.186-6.743,7.185-13.423,28.266-19.313,61.049Z" transform="translate(63.672 69.311)" fill="#231f20"/>
    <path id="Path_1067" data-name="Path 1067" d="M250.073,99.86s-17.37,18.949-27.066,28.424S194.3,150.029,194.3,150.029s-56.691,4.564-57.291,5.464,0,19.723,0,19.723,55.4,10.628,65.5,8.8,33.951-17.86,33.951-17.86Z" transform="translate(50.049 33.016)" fill="#ff3f01"/>
    <path id="Path_1068" data-name="Path 1068" d="M227.162,110.557l-1.753,17.828s3.158,10.233,15.191,8.4,14.212-10.075,14.212-10.075l7.8-34.835S255.4,86.665,248.59,66.294c0,0-25.14-4.737-26.008,4.958,0,0-4.958,17.37-4.6,26.545C218.319,106.72,227,110.415,227.162,110.557Z" transform="translate(97.089 12.907)" fill="#fff"/>
    <path id="Path_1069" data-name="Path 1069" d="M238.121,138.125a13.9,13.9,0,0,1-13.17-9.175.647.647,0,0,1,0-.3l1.674-17.37c-5.637-3.064-8.922-7.9-9.127-13.2-.363-9.222,4.422-26.071,4.627-26.845a5.543,5.543,0,0,1,2.353-4.011c6.316-4.832,23.829-1.579,24.555-1.579a.821.821,0,0,1,.616.537c6.6,19.786,13.659,25.14,13.738,25.266a.805.805,0,0,1,.3.805l-7.8,34.835c-.111.395-2.527,8.8-14.86,10.691a20.8,20.8,0,0,1-2.906.347ZM226.5,128.65c.442,1.232,3.758,9.317,14.212,7.706,11.322-1.737,13.549-9.475,13.565-9.475l7.69-34.314c-1.658-1.437-7.9-7.69-13.754-25.266-2.779-.474-17.56-2.748-22.866,1.279a4.106,4.106,0,0,0-1.753,3.048c0,.316-4.943,17.37-4.6,26.435.268,6.727,5.48,10.406,8.559,11.986a2.022,2.022,0,0,1,.379.237.774.774,0,0,1,.237.647Z" transform="translate(96.805 12.58)" fill="#231f20"/>
    <path id="Path_1070" data-name="Path 1070" d="M240.8,84.558a7.722,7.722,0,0,1,2.953-3.869,9.68,9.68,0,0,1,7.185-1.769c2.921.821,4.406,4.39,3.774,7.359a10.754,10.754,0,0,1-6.885,7.817,9.364,9.364,0,0,1-7.138-.758" transform="translate(110.248 20.826)" fill="#fff"/>
    <path id="Path_1071" data-name="Path 1071" d="M245.481,95.585a10.091,10.091,0,0,1-4.879-1.232.791.791,0,1,1,.758-1.39,8.638,8.638,0,0,0,6.538.695,9.949,9.949,0,0,0,6.316-7.217c.521-2.479-.663-5.732-3.158-6.427a8.764,8.764,0,0,0-6.538,1.579,6.774,6.774,0,0,0-2.637,3.458.829.829,0,1,1-1.579-.505,8.464,8.464,0,0,1,3.253-4.264,10.343,10.343,0,0,1,7.9-1.879c3.442.947,5.022,5.053,4.343,8.275a11.575,11.575,0,0,1-7.453,8.543,9.774,9.774,0,0,1-2.858.363Z" transform="translate(109.958 20.505)" fill="#231f20"/>
    <path id="Path_1072" data-name="Path 1072" d="M231.853,76.92s-7.232,8.385-5.969,10.154,5.448,1.2,5.448,1.2" transform="translate(101.588 19.731)" fill="#fff"/>
    <path id="Path_1073" data-name="Path 1073" d="M230.143,89.378a5.78,5.78,0,0,1-4.627-1.579c-1.405-1.974,3.158-7.9,6.016-11.054a.79.79,0,0,1,1.184,1.026c-3.474,4.043-6.238,8.338-5.906,9.206.711.979,3.269,1.042,4.737.853a.8.8,0,0,1,.205,1.579,14.208,14.208,0,0,1-1.611-.032Z" transform="translate(101.309 19.511)" fill="#231f20"/>
    <ellipse id="Ellipse_51" data-name="Ellipse 51" cx="2.148" cy="1.516" rx="2.148" ry="1.516" transform="matrix(0.16, -0.987, 0.987, 0.16, 343.244, 97.226)" fill="#231f20"/>
    <ellipse id="Ellipse_52" data-name="Ellipse 52" cx="1.516" cy="2.148" rx="1.516" ry="2.148" transform="translate(325.159 92.106) rotate(-1.99)" fill="#231f20"/>
    <path id="Path_1074" data-name="Path 1074" d="M224.236,93.9s10.833,3.648,17.734.553c0,0-8.685,14.212-18.949,11.67Z" transform="translate(100.015 29.564)" fill="#231f20"/>
    <path id="Path_1075" data-name="Path 1075" d="M225.863,107.5a10.958,10.958,0,0,1-2.732-.332.805.805,0,0,1-.6-.837l1.2-12.222a.821.821,0,0,1,.347-.6.79.79,0,0,1,.679,0c.111,0,10.643,3.506,17.181.568a.805.805,0,0,1,.916.205.79.79,0,0,1,0,.932C242.6,95.687,235.274,107.5,225.863,107.5Zm-1.69-1.721c7.09,1.248,13.423-5.969,16.076-9.475-5.669,1.39-12.554-.3-15.049-1.026Z" transform="translate(99.73 29.293)" fill="#231f20"/>
    <path id="Path_1076" data-name="Path 1076" d="M228.341,83.567h-.521l-5.827-.458a6.316,6.316,0,0,1-5.8-6.79l.379-4.737a.79.79,0,0,1,.853-.711L234.262,72.2a.821.821,0,0,1,.537.284.758.758,0,0,1,.19.568l-.379,4.737a6.316,6.316,0,0,1-6.316,5.8ZM218.092,72.513l-.316,3.885a4.737,4.737,0,0,0,4.343,5.085l5.827.458h0a4.611,4.611,0,0,0,3.443-1.105,4.737,4.737,0,0,0,1.658-3.158l.3-3.885Z" transform="translate(96.052 16.226)" fill="#231f20"/>
    <path id="Path_1077" data-name="Path 1077" d="M241.6,84.669h-.521l-5.827-.474a6.316,6.316,0,0,1-5.8-6.79l.379-4.737a.79.79,0,0,1,.853-.726l16.833,1.342a.774.774,0,0,1,.711.837l-.363,4.737a6.317,6.317,0,0,1-6.317,5.811Zm-.395-1.579a4.633,4.633,0,0,0,5.022-4.279l.316-3.885-15.207-1.311-.3,3.869a4.737,4.737,0,0,0,4.343,5.085Z" transform="translate(103.731 16.846)" fill="#231f20"/>
    <path id="Path_1078" data-name="Path 1078" d="M231.773,75.521h0l-4.106-.332a.79.79,0,0,1-.726-.853.821.821,0,0,1,.853-.726l4.106.332a.79.79,0,0,1,0,1.579Z" transform="translate(102.284 17.814)" fill="#231f20"/>
    <path id="Path_1079" data-name="Path 1079" d="M232.222,97.065c-4.943,0-8.843-3.821-10.406-8.275a.79.79,0,0,1,.126-.742.7.7,0,0,1,.663-.316,47.864,47.864,0,0,0,19.771-3.158.79.79,0,0,1,.774.079.774.774,0,0,1,.332.711c0,.363-.821,9.033-8.448,11.212a9.853,9.853,0,0,1-2.811.49Zm-8.511-7.706c1.658,3.49,5.5,7.327,10.849,5.78,4.927-1.405,6.569-6.174,7.09-8.511a50.405,50.405,0,0,1-17.939,2.732Z" transform="translate(99.293 24.125)" fill="#231f20"/>
    <path id="Path_1080" data-name="Path 1080" d="M296.562,113.76c9.191,4.311,24.113,105.312,7.9,112.118C279.192,236.41,210.8,200.612,210.8,200.612l13.454-26.482s46.458,13.833,49.679,4.39-12.728-61.381-7.3-67.034S296.562,113.76,296.562,113.76Z" transform="translate(92.938 38.571)" fill="#ff3f01"/>
    <path id="Path_1081" data-name="Path 1081" d="M249.868,162.888a110.445,110.445,0,0,1-22.976-7.375c-5.653-2.7-10.533-5.29-16.833-6.648a67.744,67.744,0,0,0-23.8-.884,1.974,1.974,0,0,0-.9.3c-.932.79.442,2.148,1.579,2.511a31.993,31.993,0,0,0,9.475,1.295,90.848,90.848,0,0,0-23.687,5.448c-.869.332-1.895.947-1.753,1.848s1.658,1.169,2.732.995l18.792-3.158a43.6,43.6,0,0,0-13.833,4.043c-.616.3-1.326.742-1.358,1.437,0,1.2,1.674,1.421,2.858,1.184a101.189,101.189,0,0,0,16.9-4.974L184.6,164.041a1.658,1.658,0,0,0,1.2,2.037,4.927,4.927,0,0,0,2.605-.205L201.72,162.3l-8.543,3.158c-1.342.49-2.969,1.405-2.748,2.827.253,1.674,2.574,1.8,4.248,1.579a90.247,90.247,0,0,1,20.007-.742c2.448.142,4.9-.268,7.232.442,3.364,1.026,6.759,3.458,9.885,5.1,4.9,2.558,9.775,5.164,14.654,7.769" transform="translate(69.867 60.503)" fill="#fff"/>
    <path id="Path_1082" data-name="Path 1082" d="M246.75,183.276a.7.7,0,0,1-.347-.079q-7.3-3.9-14.654-7.769c-.979-.505-1.99-1.105-3.016-1.721a33.306,33.306,0,0,0-6.743-3.316,15.019,15.019,0,0,0-4.564-.395H214.93a88.886,88.886,0,0,0-19.85.742,6.111,6.111,0,0,1-4.137-.584,2.29,2.29,0,0,1-.932-1.579,2.527,2.527,0,0,1,.932-2.337l-2.053.553a5.353,5.353,0,0,1-3.016.189,2.669,2.669,0,0,1-1.579-1.374,1.942,1.942,0,0,1,0-1.579c-1.216.284-2.416.553-3.632.805a3.979,3.979,0,0,1-3.158-.537,1.69,1.69,0,0,1-.584-1.39c0-1.232,1.295-1.832,1.753-2.053l.916-.426-5.448.916a4.043,4.043,0,0,1-2.827-.411,1.784,1.784,0,0,1-.726-1.184c-.095-.632,0-1.816,2.211-2.621a90.815,90.815,0,0,1,17.26-4.737,30.264,30.264,0,0,1-3.016-.6,3.537,3.537,0,0,1-2.4-2.242,1.579,1.579,0,0,1,.537-1.5,2.479,2.479,0,0,1,1.247-.458,68.108,68.108,0,0,1,24.05.884,64,64,0,0,1,14.986,5.748l2.021.963a111.52,111.52,0,0,0,22.724,7.232.726.726,0,0,1,.537.868.711.711,0,0,1-.868.537,113.6,113.6,0,0,1-23.118-7.406l-2.021-.979a63.168,63.168,0,0,0-14.67-5.622,66.325,66.325,0,0,0-23.545-.868,1.011,1.011,0,0,0-.521.142c0,.442.679,1.042,1.342,1.248A31.582,31.582,0,0,0,196.6,151.6h0a.726.726,0,0,1,0,1.437,90.549,90.549,0,0,0-23.466,5.416c-.632.237-1.358.663-1.295,1.058a.331.331,0,0,0,.142.237,2.684,2.684,0,0,0,1.753.158l14.544-2.463a43.206,43.206,0,0,1,4.279-.726.742.742,0,0,1,.805.616.726.726,0,0,1-.6.821l-4.216.711a42.92,42.92,0,0,0-9.475,3.269c-.774.379-.947.663-.947.821a.268.268,0,0,0,.095.237,2.669,2.669,0,0,0,1.879.205,100.48,100.48,0,0,0,16.8-4.943.726.726,0,0,1,.932.395.742.742,0,0,1-.395.947l-12.1,4.99a.347.347,0,0,0,0,.205,1.216,1.216,0,0,0,.695.616,4.122,4.122,0,0,0,2.211-.205l13.312-3.585a.726.726,0,0,1,.426,1.374l-8.527,3.158c-.742.268-2.448,1.011-2.29,2.037a.869.869,0,0,0,.363.6,4.532,4.532,0,0,0,3.048.332,90.01,90.01,0,0,1,20.181-.758h2.384a15.935,15.935,0,0,1,5.006.458,32.688,32.688,0,0,1,7.043,3.458c1.011.584,2.005,1.169,2.969,1.674q7.343,3.853,14.654,7.769a.711.711,0,0,1,.3.979A.7.7,0,0,1,246.75,183.276Z" transform="translate(69.637 60.265)" fill="#231f20"/>
    <path id="Path_1083" data-name="Path 1083" d="M220.764,105.75c-3.269,1.911-20.8,41.326-28.424,60.133" transform="translate(82.247 36.427)" fill="#fff"/>
    <path id="Path_1084" data-name="Path 1084" d="M192.638,166.884a.726.726,0,0,1-.679-.995c6.9-17.1,24.966-58.317,28.693-60.5a.726.726,0,1,1,.742,1.247c-2.8,1.579-19.471,38.42-28.093,59.786A.711.711,0,0,1,192.638,166.884Z" transform="translate(81.997 36.152)" fill="#231f20"/>
    <path id="Path_1085" data-name="Path 1085" d="M131.53,153.74l-.9,8.022,102.406,44.1.316-8.433Z" transform="translate(46.51 64.219)" fill="#fff"/>
    <path id="Path_1086" data-name="Path 1086" d="M233.328,206.915a.71.71,0,0,1-.316,0l-102.406-44.1a.79.79,0,0,1-.474-.821l.9-8.022a.742.742,0,0,1,.395-.584.758.758,0,0,1,.711,0L233.96,197.045a.774.774,0,0,1,.474.758l-.316,8.432a.821.821,0,0,1-.379.647.758.758,0,0,1-.411.032ZM131.759,161.531l100.811,43.41.268-6.759L132.485,155.119Z" transform="translate(46.218 63.961)" fill="#231f20"/>
    <path id="Path_1087" data-name="Path 1087" d="M131.2,158.839s29.83-14.307,30.588-13.9S268.047,187.58,268.047,187.58l-35.025,14.954Z" transform="translate(46.84 59.12)" fill="#fff"/>
    <path id="Path_1088" data-name="Path 1088" d="M233.312,203.6a.758.758,0,0,1-.316,0L131.174,159.844a.79.79,0,0,1-.474-.711.774.774,0,0,1,.442-.726c30.209-14.5,30.872-14.133,31.314-13.88,1.579.711,105.138,42.178,106.18,42.636a.758.758,0,0,1,.49.726.774.774,0,0,1-.474.726L233.628,203.57a.758.758,0,0,1-.316.032ZM133.4,159.07l99.911,42.889,32.956-14.007c-16.3-6.538-99.106-39.683-104.317-41.863C159.9,146.563,144.107,153.954,133.4,159.07Z" transform="translate(46.55 58.842)" fill="#231f20"/>
    <path id="Path_1089" data-name="Path 1089" d="M195.48,195.327l34.03-15.839,1.311-7.548L195.8,186.894Z" transform="translate(84.066 74.759)" fill="#fff"/>
    <path id="Path_1090" data-name="Path 1090" d="M195.77,196.406a.727.727,0,0,1-.442-.126.758.758,0,0,1-.347-.695l.316-8.433a.821.821,0,0,1,.474-.695L230.811,171.5a.758.758,0,0,1,.79.111.742.742,0,0,1,.284.758L230.59,179.9a.837.837,0,0,1-.442.584L196.1,196.28a.822.822,0,0,1-.332.126Zm1.09-8.685-.268,6.711,32.5-15.128.979-5.716Z" transform="translate(83.775 74.469)" fill="#231f20"/>
    <path id="Path_1091" data-name="Path 1091" d="M131.97,180.918l-2.1-74.108,107.207,49.221-3.285,68.581Z" transform="translate(46.069 37.041)" fill="#fff"/>
    <path id="Path_1092" data-name="Path 1092" d="M234.088,225.682a.758.758,0,0,1-.316,0L131.95,181.924a.774.774,0,0,1-.474-.711l-2.116-74.108a.79.79,0,0,1,.363-.679.774.774,0,0,1,.758,0L237.751,155.6a.758.758,0,0,1,.458.742l-3.285,68.581a.789.789,0,0,1-.363.632A.711.711,0,0,1,234.088,225.682ZM133.024,180.661l100.322,43.063L236.5,156.8,130.987,108.337Z" transform="translate(45.774 36.761)" fill="#231f20"/>
    <path id="Path_1093" data-name="Path 1093" d="M240.073,215.711a.851.851,0,0,1-.332,0l-21.681-10a.79.79,0,0,1-.442-.9l6.553-27.414a.774.774,0,0,1,.9-.6l42.384,6.79-1.39-67.176a.774.774,0,0,1,.774-.805h0a.805.805,0,0,1,.79.774l1.405,68.123a.758.758,0,0,1-.284.6.774.774,0,0,1-.632.189l-42.636-6.822-6.238,26.071,21.1,9.585a.851.851,0,0,1-.268,1.579Z" transform="translate(96.874 42.137)" fill="#231f20"/>
    <path id="Path_1094" data-name="Path 1094" d="M116.946,215.847c-3.679-2.779-8.085-4.248-11.2,0Z" transform="translate(32.101 98.644)" fill="#fff"/>
    <path id="Path_1095" data-name="Path 1095" d="M117.223,216.839h-11.2a.742.742,0,0,1-.647-.395.726.726,0,0,1,0-.758,6.68,6.68,0,0,1,4.453-2.89c2.29-.347,4.911.584,7.769,2.748a.742.742,0,0,1,.253.805.758.758,0,0,1-.632.49Zm-9.585-1.437h7.185a7.674,7.674,0,0,0-4.737-1.184,4.738,4.738,0,0,0-2.448,1.184Z" transform="translate(31.824 98.379)" fill="#231f20"/>
    <path id="Path_1096" data-name="Path 1096" d="M164.217,210.838h-.126a.79.79,0,0,1-.647-.9c.126-.79,3.158-19.328,9.017-28.74a.79.79,0,0,1,1.342.821c-5.637,9.143-8.78,27.982-8.811,28.172A.774.774,0,0,1,164.217,210.838Z" transform="translate(65.507 79.934)" fill="#fff"/>
    <path id="Path_1097" data-name="Path 1097" d="M232.523,113.414l1.611,5.4L214,160.282l5.732,14.828,12.57-10.722,5.164-45.605,2.669-2.748-2.748-4.6Z" transform="translate(94.791 39.722)" fill="#231f20"/>
    <path id="Path_1098" data-name="Path 1098" d="M438.837,135.89v190.7H86.74V135.89L262.8,255.777Z" transform="translate(21.092 53.882)" fill="#fff"/>
    <path id="Path_1099" data-name="Path 1099" d="M439.144,327.671H87a.79.79,0,0,1-.79-.79v-190.7a.774.774,0,0,1,.426-.695.805.805,0,0,1,.821,0l175.6,119.6,175.6-119.6a.774.774,0,0,1,.805,0,.758.758,0,0,1,.426.695v190.7A.79.79,0,0,1,439.144,327.671ZM87.836,326.092H438.4V137.671L263.593,256.737a.821.821,0,0,1-.884,0L87.837,137.671Z" transform="translate(20.785 53.585)" fill="#231f20"/>
    <path id="Path_1100" data-name="Path 1100" d="M263.083,256.858a.853.853,0,0,1-.442-.126L86.585,136.829a.79.79,0,0,1-.205-1.09.805.805,0,0,1,1.105-.221l175.6,119.6,175.6-119.6a.79.79,0,0,1,1.09.221.774.774,0,0,1-.205,1.09l-176.041,119.9A.9.9,0,0,1,263.083,256.858Z" transform="translate(20.805 53.591)" fill="#231f20"/>
    <path id="Path_1101" data-name="Path 1101" d="M86.74,296.893,262.781,187.16,438.837,296.893Z" transform="translate(21.092 83.573)" fill="#fff"/>
    <path id="Path_1102" data-name="Path 1102" d="M439.144,297.969H87a.79.79,0,0,1-.758-.568.774.774,0,0,1,.347-.884L262.74,186.783a.805.805,0,0,1,.837,0L439.6,296.516a.774.774,0,0,1,.347.884A.79.79,0,0,1,439.144,297.969ZM89.81,296.39H436.444L263.167,188.378Z" transform="translate(20.785 83.287)" fill="#231f20"/>
    <rect id="Rectangle_117" data-name="Rectangle 117" width="101.585" height="56.312" transform="translate(373.496 310.895) rotate(-14.34)" fill="#ff3f01"/>
    <path id="Path_1103" data-name="Path 1103" d="M269.216,277.477a.931.931,0,0,1-.411-.111.884.884,0,0,1-.363-.49L254.5,222.318a.805.805,0,0,1,.568-.963L353.493,196.2a.869.869,0,0,1,.6,0,.758.758,0,0,1,.363.49L368.4,251.248a.79.79,0,0,1-.568.963l-98.427,25.155Zm-12.98-54.717,13.549,53.027,96.9-24.776-13.47-53.09Z" transform="translate(118.232 88.778)" fill="#231f20"/>
    <path id="Path_1104" data-name="Path 1104" d="M263.81,262.989,305.2,219.8l57.038,18.018Z" transform="translate(123.637 102.476)" fill="#ff3f01"/>
    <path id="Path_1105" data-name="Path 1105" d="M264.1,264.068a.789.789,0,0,1-.679-.395.758.758,0,0,1,.111-.947l41.389-43.173a.805.805,0,0,1,.805-.221l57.038,18.034a.789.789,0,0,1,.553.774.805.805,0,0,1-.6.742l-98.427,25.155Zm41.626-43.079-39.147,40.836,93.074-23.8Z" transform="translate(123.345 102.187)" fill="#231f20"/>
    <path id="Path_1106" data-name="Path 1106" d="M254.98,221.831l57.733,20.75,40.694-45.921Z" transform="translate(118.524 89.075)" fill="#ff3f01"/>
    <path id="Path_1107" data-name="Path 1107" d="M313,243.64a.742.742,0,0,1-.268,0L255,222.89a.79.79,0,0,1-.521-.774.805.805,0,0,1,.584-.742l98.427-25.155a.805.805,0,0,1,.869.347.79.79,0,0,1-.079.947l-40.694,45.905a.758.758,0,0,1-.584.221Zm-55.048-21.413,54.811,19.692,38.625-43.584Z" transform="translate(118.234 88.806)" fill="#231f20"/>
    <rect id="Rectangle_118" data-name="Rectangle 118" width="57.859" height="32.072" transform="matrix(0.971, -0.24, 0.24, 0.971, 467.9, 248.406)" fill="#ff3f01"/>
    <path id="Path_1108" data-name="Path 1108" d="M322.742,210.319a.805.805,0,0,1-.774-.6l-7.69-31.125a.805.805,0,0,1,.568-.963l56.169-13.88a.758.758,0,0,1,.948.568l7.706,31.125a.789.789,0,0,1-.095.6.758.758,0,0,1-.49.363l-56.154,13.88ZM316,178.973l7.327,29.593,54.622-13.5L370.7,165.472Z" transform="translate(152.852 70)" fill="#231f20"/>
    <path id="Path_1109" data-name="Path 1109" d="M319.63,201.683,343.4,177.27l32.388,10.517Z" transform="translate(155.964 77.846)" fill="#ff3f01"/>
    <path id="Path_1110" data-name="Path 1110" d="M319.919,202.759a.758.758,0,0,1-.679-.395.79.79,0,0,1,.111-.947l23.766-24.4a.774.774,0,0,1,.805-.205l32.4,10.517a.79.79,0,0,1,0,1.579l-56.154,13.88Zm23.987-24.287L322.414,200.58,373.2,188.026Z" transform="translate(155.675 77.56)" fill="#231f20"/>
    <path id="Path_1111" data-name="Path 1111" d="M314.75,178.116l32.783,12.065,23.387-25.961Z" transform="translate(153.138 70.288)" fill="#ff3f01"/>
    <path id="Path_1112" data-name="Path 1112" d="M347.833,191.24a.9.9,0,0,1-.284,0l-32.783-12.064a.79.79,0,0,1-.505-.79.774.774,0,0,1,.584-.726l56.169-13.88a.79.79,0,0,1,.869.347.805.805,0,0,1-.095.947l-23.371,25.913a.853.853,0,0,1-.584.253Zm-30.1-12.633L347.6,189.661l21.3-23.687Z" transform="translate(152.854 70.019)" fill="#231f20"/>
    <rect id="Rectangle_119" data-name="Rectangle 119" width="50.437" height="27.951" transform="translate(394.346 247.275) rotate(-24.12)" fill="#ff3f01"/>
    <path id="Path_1113" data-name="Path 1113" d="M279.9,206.492a.774.774,0,0,1-.726-.458l-11.417-25.519a.774.774,0,0,1,.395-1.042l46.016-20.608a.805.805,0,0,1,1.058.395l11.385,25.44a.789.789,0,0,1,0,.6.869.869,0,0,1-.411.442l-46.031,20.529A.8.8,0,0,1,279.9,206.492Zm-10.391-25.9L280.3,204.66l44.579-19.96L314.1,160.634Z" transform="translate(125.88 67.147)" fill="#231f20"/>
    <path id="Path_1114" data-name="Path 1114" d="M275.42,197.473l16.6-24.6,29.419,4Z" transform="translate(130.361 75.298)" fill="#ff3f01"/>
    <path id="Path_1115" data-name="Path 1115" d="M275.719,198.6a.774.774,0,0,1-.663-1.232l16.612-24.6a.79.79,0,0,1,.758-.347l29.419,4.011a.79.79,0,0,1,.679.663.805.805,0,0,1-.458.837l-46.031,20.529A.805.805,0,0,1,275.719,198.6Zm16.976-24.555-14.781,21.918,40.978-18.349Z" transform="translate(130.062 75.035)" fill="#231f20"/>
    <path id="Path_1116" data-name="Path 1116" d="M268.18,179.858l30,5.274,16.028-25.882Z" transform="translate(126.168 67.41)" fill="#ff3f01"/>
    <path id="Path_1117" data-name="Path 1117" d="M298.454,186.207h-.126l-30-5.274a.774.774,0,0,1-.632-.679.79.79,0,0,1,.458-.821l46.016-20.608a.805.805,0,0,1,.932.205.774.774,0,0,1,0,.932l-16.028,25.9a.806.806,0,0,1-.616.347Zm-27.319-6.316,26.94,4.737,14.4-23.245Z" transform="translate(125.882 67.124)" fill="#231f20"/>
    <path id="Path_1118" data-name="Path 1118" d="M207.4,43.35H114.8A10.943,10.943,0,0,0,103.86,54.293v47.374A10.943,10.943,0,0,0,114.8,112.61h82.446l9.822,16.833.126-16.833h.268a10.943,10.943,0,0,0,10.943-10.943V54.293A10.943,10.943,0,0,0,207.4,43.35Z" transform="translate(31.006 0.289)" fill="#fff"/>
    <path id="Path_1119" data-name="Path 1119" d="M207.3,130.523a.79.79,0,0,1-.679-.395l-9.585-16.439H115.093a11.749,11.749,0,0,1-11.733-11.733V54.583A11.749,11.749,0,0,1,115.093,42.85h92.6a11.733,11.733,0,0,1,11.733,11.733v47.374a11.733,11.733,0,0,1-11.212,11.717l-.126,16.075a.758.758,0,0,1-.584.742A.426.426,0,0,1,207.3,130.523ZM115.093,44.429a10.17,10.17,0,0,0-10.154,10.154v47.374a10.17,10.17,0,0,0,10.154,10.154h82.446a.79.79,0,0,1,.695.395l8.369,14.354L206.7,112.9a.79.79,0,0,1,.79-.79h.268a10.17,10.17,0,0,0,10.154-10.154V54.583a10.154,10.154,0,0,0-10.154-10.154Z" transform="translate(30.717)" fill="#231f20"/>
    <path id="Path_1120" data-name="Path 1120" d="M130.45,76.162l41.5-25.392L136.782,65.408Z" transform="translate(46.405 4.587)" fill="#231f20"/>
    <path id="Path_1121" data-name="Path 1121" d="M130.738,77.246a.79.79,0,0,1-.553-.237.805.805,0,0,1-.126-.963l6.316-10.738a.774.774,0,0,1,.379-.332l35.167-14.654a.79.79,0,0,1,.711,1.405L131.148,77.12A.79.79,0,0,1,130.738,77.246Zm6.885-10.912-4.6,7.785,30.161-18.413Z" transform="translate(46.118 4.292)" fill="#231f20"/>
    <path id="Path_1122" data-name="Path 1122" d="M134.46,65.408l13.58,6.932L169.627,50.77Z" transform="translate(48.728 4.587)" fill="#ff3f01"/>
    <path id="Path_1123" data-name="Path 1123" d="M148.311,73.344a.79.79,0,0,1-.332,0l-13.565-6.932a.726.726,0,0,1-.411-.79.7.7,0,0,1,.442-.632l35.167-14.654a.726.726,0,0,1,.774,1.184l-21.571,21.6a.742.742,0,0,1-.505.221Zm-11.859-7.6,11.764,5.985L166.85,53.115Z" transform="translate(48.457 4.31)" fill="#231f20"/>
    <path id="Path_1124" data-name="Path 1124" d="M176.837,50.77,132.164,61.429l-10.154-5.8Z" transform="translate(41.517 4.587)" fill="#ff3f01"/>
    <path id="Path_1125" data-name="Path 1125" d="M132.43,62.442a.679.679,0,0,1-.347-.095l-10.17-5.811a.72.72,0,0,1,.3-1.342L177.04,50.33a.758.758,0,0,1,.774.6.726.726,0,0,1-.537.821L132.6,62.442Zm-7.8-6.016,7.9,4.532,34.741-8.322Z" transform="translate(41.251 4.332)" fill="#231f20"/>
    <path id="Path_1126" data-name="Path 1126" d="M128.44,61.429l3.174,14.733,6.332-10.754L173.113,50.77Z" transform="translate(45.241 4.587)" fill="#ff3f01"/>
    <path id="Path_1127" data-name="Path 1127" d="M131.87,77.14h-.111a.711.711,0,0,1-.584-.568l-3.158-14.717a.711.711,0,0,1,.537-.853l44.658-10.675a.758.758,0,0,1,.869.474.742.742,0,0,1-.411.9L138.707,66.244,132.5,76.792A.742.742,0,0,1,131.87,77.14Zm-2.29-14.907,2.637,12.238,5.4-9.159a.711.711,0,0,1,.347-.3l26.845-11.2Z" transform="translate(44.986 4.32)" fill="#231f20"/>
    <text id="Sent" transform="translate(170.981 101.259)" font-size="19" font-family="SegoeUI, Segoe UI"><tspan x="0" y="0" letter-spacing="0.01em">S</tspan><tspan y="0">ent</tspan></text>
    <path id="Path_1128" data-name="Path 1128" d="M232.046,331.282a.79.79,0,0,1,0-1.579c2.1,0,4.2,0,6.316-.158a.79.79,0,1,1,0,1.579C236.246,331.2,234.13,331.251,232.046,331.282Zm-6.316,0h0c-2.1,0-4.216,0-6.316-.158a.79.79,0,0,1-.758-.805.821.821,0,0,1,.821-.774c2.1.079,4.185.126,6.316.158a.79.79,0,1,1,0,1.579Zm18.949-.442a.774.774,0,0,1-.774-.742.79.79,0,0,1,.742-.837c2.084-.111,4.185-.253,6.316-.426a.774.774,0,0,1,.837.726.79.79,0,0,1-.726.853c-2.1.158-4.2.3-6.316.426Zm-31.582,0h0c-2.116-.126-4.216-.268-6.316-.442a.792.792,0,0,1,.126-1.579c2.1.174,4.185.316,6.316.442a.79.79,0,0,1,0,1.579Zm44.215-.995a.821.821,0,0,1-.79-.711.79.79,0,0,1,.711-.868q3.158-.332,6.316-.711a.8.8,0,1,1,.205,1.579q-3.158.411-6.316.711Zm-56.738,0h-.079c-2.1-.237-4.2-.49-6.316-.758a.8.8,0,0,1,.205-1.579c2.069.268,4.153.521,6.316.742a.791.791,0,1,1-.095,1.579Zm69.276-1.579a.79.79,0,0,1-.774-.663.774.774,0,0,1,.663-.9c2.069-.316,4.153-.647,6.222-.995a.774.774,0,0,1,.9.647.758.758,0,0,1-.632.9c-2.084.363-4.169.695-6.317,1.011Zm-81.783-.126h-.126c-2.084-.332-4.169-.695-6.238-1.074a.8.8,0,1,1,.284-1.579c2.069.395,4.137.742,6.206,1.074a.792.792,0,0,1-.126,1.579Zm94.242-2.005a.794.794,0,0,1-.158-1.579c2.069-.411,4.137-.837,6.174-1.279a.808.808,0,0,1,.347,1.579l-6.206,1.279Zm-106.638-.316H175.5c-2.069-.442-4.122-.916-6.174-1.421a.774.774,0,0,1-.568-.947.79.79,0,0,1,.947-.584c2.037.505,4.074.963,6.127,1.405a.79.79,0,0,1,.6.948.774.774,0,0,1-.805.6Zm118.908-2.384a.774.774,0,0,1-.758-.6.79.79,0,0,1,.568-.963q3.079-.758,6.111-1.579a.79.79,0,0,1,.963.553.821.821,0,0,1-.553.979c-2.037.537-4.09,1.058-6.143,1.579Zm-131.241-.6h-.221c-2.037-.568-4.058-1.153-6.08-1.769a.824.824,0,0,1,.474-1.579c1.99.616,4.011,1.2,6.032,1.753a.805.805,0,0,1,.553.979.79.79,0,0,1-.726.616Zm143.448-2.7a.8.8,0,1,1-.221-1.579c2.021-.584,4.027-1.216,6.016-1.848a.827.827,0,1,1,.49,1.579c-2.005.647-4.027,1.263-6.064,1.863a.505.505,0,0,1-.19-.016Zm-155.512-1.011a.71.71,0,0,1-.253,0c-2.005-.679-4-1.405-5.953-2.148a.79.79,0,0,1,.553-1.469c1.958.726,3.916,1.437,5.906,2.116a.805.805,0,0,1,.49,1.011.774.774,0,0,1-.711.49Zm167.545-2.874a.774.774,0,0,1-.742-.521.805.805,0,0,1,.49-1.011c1.99-.695,3.964-1.421,5.922-2.163a.774.774,0,0,1,1.011.458.79.79,0,0,1-.458,1.026c-1.958.742-3.948,1.469-5.953,2.179a.742.742,0,0,1-.237.032ZM139.477,314.67a.678.678,0,0,1-.3,0c-1.958-.821-3.916-1.674-5.811-2.527a.79.79,0,0,1-.379-1.058.774.774,0,0,1,1.042-.379c1.879.853,3.806,1.705,5.748,2.511a.774.774,0,0,1,.426,1.026.758.758,0,0,1-.695.411Zm191.169-2.906a.758.758,0,0,1-.726-.49.774.774,0,0,1,.426-1.026c1.942-.805,3.869-1.579,5.78-2.479a.79.79,0,0,1,1.042.411.805.805,0,0,1-.395,1.042c-1.927.853-3.869,1.674-5.827,2.5a.994.994,0,0,1-.268.032Zm-202.6-2.353a.933.933,0,0,1-.347-.079c-1.895-.947-3.774-1.942-5.606-2.953a.79.79,0,0,1-.316-1.074.805.805,0,0,1,1.074-.316c1.816,1.011,3.679,1.99,5.559,2.921a.821.821,0,0,1,.347,1.074.805.805,0,0,1-.711.426Zm214.177-2.779a.758.758,0,0,1-.711-.442.79.79,0,0,1,.363-1.058c1.895-.916,3.774-1.848,5.638-2.811a.791.791,0,0,1,.726,1.405c-1.879.963-3.758,1.911-5.685,2.827a.648.648,0,0,1-.332.063Zm-225.215-3.316a.79.79,0,0,1-.411-.126c-1.816-1.09-3.616-2.227-5.369-3.379a.79.79,0,0,1-.221-1.09.774.774,0,0,1,1.09-.221c1.737,1.137,3.521,2.258,5.322,3.348a.79.79,0,0,1,.268,1.074A.805.805,0,0,1,117.006,303.316Zm236.427-2.511a.821.821,0,0,1-.695-.395.805.805,0,0,1,.316-1.074c1.832-1.026,3.648-2.085,5.432-3.158a.794.794,0,1,1,.821,1.358q-2.7,1.579-5.5,3.158A.789.789,0,0,1,353.433,300.805Zm-246.959-4.453a.821.821,0,0,1-.458-.142q-2.59-1.879-5.069-3.837a.79.79,0,0,1-.126-1.105.821.821,0,0,1,1.121-.126c1.579,1.295,3.3,2.558,4.99,3.79a.79.79,0,0,1,.189,1.105A.805.805,0,0,1,106.474,296.352Zm-9.885-7.9a.821.821,0,0,1-.521-.19c-1.421-1.247-2.842-2.527-4.2-3.806l-.49-.474a.774.774,0,0,1,0-1.105.79.79,0,0,1,1.121,0l.474.458c1.358,1.279,2.748,2.542,4.169,3.758a.79.79,0,0,1-.521,1.39Zm-9.159-8.685a.806.806,0,0,1-.568-.237c-1.484-1.579-2.937-3.158-4.327-4.643a.774.774,0,0,1,0-1.105.79.79,0,0,1,1.121,0c1.39,1.579,2.827,3.158,4.3,4.6a.79.79,0,0,1,0,1.121.853.853,0,0,1-.521.332ZM79,270.3a.805.805,0,0,1-.616-.3c-1.358-1.579-2.669-3.316-3.932-4.974a.805.805,0,0,1,.158-1.105.79.79,0,0,1,1.105.158c1.248,1.579,2.558,3.3,3.885,4.927a.774.774,0,0,1-.095,1.105.806.806,0,0,1-.505.332Zm-7.6-10.091a.774.774,0,0,1-.647-.347c-1.2-1.753-2.369-3.553-3.458-5.337a.79.79,0,0,1,1.342-.821c1.074,1.753,2.227,3.537,3.411,5.274a.774.774,0,0,1-.205,1.09.742.742,0,0,1-.442.284Zm-6.6-10.754a.805.805,0,0,1-.695-.411c-1.026-1.863-2.005-3.774-2.921-5.653a.79.79,0,0,1,.379-1.058.774.774,0,0,1,1.042.363c.9,1.863,1.879,3.743,2.874,5.59a.758.758,0,0,1-.3,1.058.7.7,0,0,1-.379.253Zm-5.511-11.243a.79.79,0,0,1-.742-.49c-.805-1.942-1.579-3.948-2.274-5.922a.79.79,0,0,1,1.484-.537c.695,1.958,1.453,3.932,2.258,5.859a.805.805,0,0,1-.426,1.026.726.726,0,0,1-.3.063Zm-4.2-11.907a.774.774,0,0,1-.758-.568c-.584-2.037-1.121-4.106-1.579-6.159a.785.785,0,1,1,1.532-.347c.458,2.021.979,4.058,1.579,6.064a.79.79,0,0,1-.537.979.569.569,0,0,1-.205.032Zm-2.763-12.317a.79.79,0,0,1-.79-.663c-.332-2.1-.6-4.216-.805-6.316a.793.793,0,1,1,1.579-.142c.205,2.053.474,4.137.805,6.206a.79.79,0,0,1-.647.916ZM51.11,201.431a.805.805,0,0,1-.79-.774c0-1.042,0-2.084,0-3.158v-3.253a.774.774,0,0,1,.821-.758.79.79,0,0,1,.758.805v6.222a.79.79,0,0,1-.774.821Zm.426-12.633h0a.774.774,0,0,1-.711-.853c.221-2.116.505-4.248.869-6.316a.774.774,0,0,1,.9-.647.79.79,0,0,1,.647.916c-.347,2.037-.632,4.122-.837,6.206a.821.821,0,0,1-.837.711Zm2.132-12.444h-.189a.79.79,0,0,1-.568-.963c.49-2.069,1.074-4.122,1.721-6.127a.79.79,0,0,1,.995-.505.774.774,0,0,1,.505.979c-.632,1.974-1.2,4-1.69,6.032a.79.79,0,0,1-.742.6Zm3.869-12.017a.647.647,0,0,1-.3,0,.79.79,0,0,1-.442-1.026c.79-1.958,1.674-3.916,2.606-5.811a.79.79,0,1,1,1.405.695c-.9,1.863-1.769,3.774-2.542,5.716a.805.805,0,0,1-.695.442Zm5.59-11.259a.742.742,0,0,1-.395-.111.774.774,0,0,1-.284-1.074c1.074-1.816,2.195-3.632,3.364-5.4a.79.79,0,0,1,1.311.869c-1.137,1.737-2.258,3.537-3.316,5.322A.79.79,0,0,1,63.127,153.078Zm6.964-10.549a.742.742,0,0,1-.474-.158.79.79,0,0,1-.174-1.09c1.263-1.705,2.574-3.4,3.916-5.022a.774.774,0,0,1,1.105-.111.79.79,0,0,1,.111,1.105c-1.326,1.579-2.621,3.269-3.853,4.958a.805.805,0,0,1-.632.268Zm8.006-9.759a.726.726,0,0,1-.521-.205.79.79,0,0,1,0-1.121C79,129.865,80.5,128.286,82,126.881a.774.774,0,0,1,1.105,0,.79.79,0,0,1,0,1.121c-1.484,1.437-2.953,2.953-4.374,4.5a.774.774,0,0,1-.632.221Zm9.033-8.827a.758.758,0,0,1-.584-.268.774.774,0,0,1,0-1.105c1.579-1.405,3.253-2.763,4.911-4.058a.805.805,0,0,1,.979,1.263c-1.579,1.263-3.269,2.606-4.848,3.979a.79.79,0,0,1-.458.142Zm131.225-2.5a.79.79,0,0,1-.695-.426A27.338,27.338,0,0,0,214,116.111a.794.794,0,1,1,1.184-1.058,27.366,27.366,0,0,1,3.869,5.243.774.774,0,0,1-.332,1.058.726.726,0,0,1-.363.047Zm-121.166-5.29a.742.742,0,0,1-.647-.347.774.774,0,0,1,.205-1.09c1.737-1.2,3.537-2.353,5.337-3.442a.774.774,0,0,1,1.09.268.79.79,0,0,1-.268,1.09c-1.784,1.058-3.553,2.211-5.274,3.379A.742.742,0,0,1,97.188,116.158Zm112.844-4.137a.774.774,0,0,1-.505-.189,52.694,52.694,0,0,0-5.022-3.679.793.793,0,0,1,.869-1.326,55.142,55.142,0,0,1,5.164,3.806.79.79,0,0,1-.505,1.39Zm-102.106-2.369a.805.805,0,0,1-.711-.426.79.79,0,0,1,.332-1.058c1.863-.979,3.79-1.911,5.732-2.779a.774.774,0,0,1,1.042.395.805.805,0,0,1-.395,1.042c-1.911.853-3.806,1.769-5.637,2.732a.774.774,0,0,1-.363.095Zm91.589-4.548a.726.726,0,0,1-.347-.095c-1.816-.9-3.743-1.753-5.7-2.511a.787.787,0,1,1,.568-1.469,52.385,52.385,0,0,1,5.843,2.574.79.79,0,0,1,.347,1.058.805.805,0,0,1-.774.442Zm-80.014-.632a.805.805,0,0,1-.742-.505.774.774,0,0,1,.458-1.011c1.974-.758,4-1.453,6.016-2.084a.758.758,0,0,1,.979.521.774.774,0,0,1-.521.979c-1.974.632-3.979,1.311-5.922,2.053a.742.742,0,0,1-.332.047Zm12.033-3.774a.8.8,0,1,1-.189-1.579c2.037-.521,4.122-.979,6.206-1.374a.79.79,0,0,1,.932.616.805.805,0,0,1-.632.932c-2.053.395-4.106.853-6.127,1.358Zm56.217-.142h-.205c-1.958-.553-4-1.058-6.08-1.484a.79.79,0,0,1-.616-.932.805.805,0,0,1,.932-.616,63.356,63.356,0,0,1,6.19,1.579.74.74,0,0,1-.284,1.453Zm-43.821-2.242a.791.791,0,1,1-.111-1.579c2.084-.284,4.2-.521,6.316-.695a.792.792,0,1,1,.126,1.579c-2.069.189-4.169.411-6.222.695ZM175.4,98.03h-.111c-2.005-.253-4.106-.474-6.222-.616a.79.79,0,0,1-.742-.837.805.805,0,0,1,.853-.742c2.148.158,4.279.363,6.317.632a.791.791,0,0,1-.095,1.579Zm-18.949-.805a.79.79,0,0,1-.79-.758.805.805,0,0,1,.758-.821c2.1,0,4.248-.095,6.316,0a.805.805,0,0,1,.774.805.79.79,0,0,1-.805.774H156.39Z" transform="translate(0 30.551)" fill="#d1d3d4"/>
  </g>
</svg>
