<svg id="service" xmlns="http://www.w3.org/2000/svg" width="85" height="85" viewBox="0 0 85 85">
  <path id="Path_958" data-name="Path 958" d="M0,0H85V85H0Z" fill="none"/>
  <path id="Path_959" data-name="Path 959" d="M76.455,27.407A7.546,7.546,0,0,1,84,34.953V50.044a7.546,7.546,0,0,1-7.545,7.546H72.448A30.186,30.186,0,0,1,42.5,84V76.454A22.637,22.637,0,0,0,65.136,53.817V31.18a22.636,22.636,0,1,0-45.273,0V57.59H8.545A7.546,7.546,0,0,1,1,50.044V34.953a7.546,7.546,0,0,1,7.545-7.546h4.007a30.185,30.185,0,0,1,59.9,0ZM26.5,56.779l4-6.4a22.657,22.657,0,0,0,23.995,0l4,6.4a30.2,30.2,0,0,1-31.993,0Z" fill="#ff3f01"/>
</svg>
